<svg width="41" height="32" viewBox="0 0 41 32" fill="none" xmlns="http://www.w3.org/2000/svg">
<g id="Group">
<path id="Vector" d="M38.4375 26.25C38.4375 26.9296 38.1675 27.5814 37.687 28.062C37.2064 28.5425 36.5546 28.8125 35.875 28.8125H5.125C4.44538 28.8125 3.7936 28.5425 3.31304 28.062C2.83248 27.5814 2.5625 26.9296 2.5625 26.25V10.875C2.5625 10.1954 2.83248 9.5436 3.31304 9.06304C3.7936 8.58248 4.44538 8.3125 5.125 8.3125H8.12825C10.166 8.31139 12.12 7.50122 13.5607 6.06006L15.6876 3.93831C16.1668 3.45897 16.8164 3.189 17.4942 3.1875H23.5007C24.1802 3.18765 24.8319 3.45772 25.3124 3.93831L27.4341 6.06006C28.1481 6.77427 28.9958 7.3408 29.9288 7.72728C30.8618 8.11376 31.8619 8.31262 32.8717 8.3125H35.875C36.5546 8.3125 37.2064 8.58248 37.687 9.06304C38.1675 9.5436 38.4375 10.1954 38.4375 10.875V26.25ZM5.125 5.75C3.76577 5.75 2.4622 6.28995 1.50108 7.25108C0.539954 8.2122 0 9.51577 0 10.875L0 26.25C0 27.6092 0.539954 28.9128 1.50108 29.8739C2.4622 30.835 3.76577 31.375 5.125 31.375H35.875C37.2342 31.375 38.5378 30.835 39.4989 29.8739C40.46 28.9128 41 27.6092 41 26.25V10.875C41 9.51577 40.46 8.2122 39.4989 7.25108C38.5378 6.28995 37.2342 5.75 35.875 5.75H32.8717C31.5126 5.74971 30.2093 5.20957 29.2484 4.24838L27.1266 2.12662C26.1657 1.16543 24.8624 0.62529 23.5033 0.625H17.4967C16.1376 0.62529 14.8343 1.16543 13.8734 2.12662L11.7516 4.24838C10.7907 5.20957 9.48737 5.74971 8.12825 5.75H5.125Z" fill="white"/>
<path id="Vector_2" d="M20.5 23.6875C18.801 23.6875 17.1715 23.0126 15.9701 21.8112C14.7687 20.6097 14.0938 18.9803 14.0938 17.2812C14.0938 15.5822 14.7687 13.9528 15.9701 12.7513C17.1715 11.5499 18.801 10.875 20.5 10.875C22.199 10.875 23.8285 11.5499 25.0299 12.7513C26.2313 13.9528 26.9062 15.5822 26.9062 17.2812C26.9062 18.9803 26.2313 20.6097 25.0299 21.8112C23.8285 23.0126 22.199 23.6875 20.5 23.6875ZM20.5 26.25C22.8787 26.25 25.1599 25.3051 26.8419 23.6231C28.5238 21.9411 29.4688 19.6599 29.4688 17.2812C29.4688 14.9026 28.5238 12.6214 26.8419 10.9394C25.1599 9.25742 22.8787 8.3125 20.5 8.3125C18.1213 8.3125 15.8401 9.25742 14.1581 10.9394C12.4762 12.6214 11.5312 14.9026 11.5312 17.2812C11.5312 19.6599 12.4762 21.9411 14.1581 23.6231C15.8401 25.3051 18.1213 26.25 20.5 26.25ZM7.6875 12.1562C7.6875 12.4961 7.55251 12.8219 7.31223 13.0622C7.07195 13.3025 6.74606 13.4375 6.40625 13.4375C6.06644 13.4375 5.74055 13.3025 5.50027 13.0622C5.25999 12.8219 5.125 12.4961 5.125 12.1562C5.125 11.8164 5.25999 11.4906 5.50027 11.2503C5.74055 11.01 6.06644 10.875 6.40625 10.875C6.74606 10.875 7.07195 11.01 7.31223 11.2503C7.55251 11.4906 7.6875 11.8164 7.6875 12.1562Z" fill="white"/>
</g>
</svg>
