<svg width="16" height="17" viewBox="0 0 16 17" fill="none" xmlns="http://www.w3.org/2000/svg">
<g clip-path="url(#clip0_106_251)">
<path d="M8 0.5C5.88619 0.525503 3.86614 1.37655 2.37134 2.87134C0.876545 4.36614 0.0255025 6.38619 0 8.5C0.0255025 10.6138 0.876545 12.6339 2.37134 14.1287C3.86614 15.6235 5.88619 16.4745 8 16.5C10.1138 16.4745 12.1339 15.6235 13.6287 14.1287C15.1235 12.6339 15.9745 10.6138 16 8.5C15.9745 6.38619 15.1235 4.36614 13.6287 2.87134C12.1339 1.37655 10.1138 0.525503 8 0.5ZM12.5714 9.07143H8.57143V13.0714H7.42857V9.07143H3.42857V7.92857H7.42857V3.92857H8.57143V7.92857H12.5714V9.07143Z" fill="black"/>
</g>
<defs>
<clipPath id="clip0_106_251">
<rect width="16" height="16" fill="white" transform="translate(0 0.5)"/>
</clipPath>
</defs>
</svg>
