<svg width="33" height="32" viewBox="0 0 33 32" fill="#000" xmlns="http://www.w3.org/2000/svg">
<g clip-path="url(#clip0_24_274)">
<path d="M16.031 24.89C15.25 24.237 13.601 22.699 12.136 21.289C9.305 18.804 5.576 15.601 1.595 12.642C0.327996 11.7 0.410996 10.11 1.155 9.10598C1.418 8.75198 2.381 7.68498 3.783 8.72298C7.322 11.359 11.017 14.382 15.414 18.244L15.984 18.744L16.528 18.213C20.147 14.672 23.723 11.242 27.649 8.21098C29.078 7.10998 30.738 7.91198 31.419 8.78098C31.734 9.18698 32.327 10.238 31.078 11.201C27.045 14.308 23.368 17.789 19.952 21.089L19.705 21.326L19.702 21.394C19.117 22.019 17.001 23.993 16.031 24.891V24.89Z" fill="#000"/>
</g>
<defs>
<clipPath id="clip0_24_274">
<rect width="33" height="32" fill="#000"/>
</clipPath>
</defs>
</svg>
