<svg width="32" height="32" viewBox="0 0 32 32" fill="none" xmlns="http://www.w3.org/2000/svg">
<g clip-path="url(#clip0_18_94)">
<path d="M7.14 13.32C7.00262 13.3162 6.87122 13.263 6.77 13.17C5.69 12.33 4.69 11.5 3.77 10.68C2.95629 9.96542 2.18812 9.20059 1.47 8.39C1.14826 8.03535 0.866558 7.64634 0.630005 7.23C0.390671 6.77334 0.244505 6.27365 0.200005 5.76C0.118519 5.04928 0.20765 4.32938 0.460005 3.66C0.639448 3.141 0.923833 2.66451 1.29545 2.26021C1.66706 1.85591 2.11794 1.53246 2.62 1.31C3.1219 1.07255 3.67191 0.954419 4.22704 0.964827C4.78217 0.975236 5.32737 1.11391 5.82 1.37C6.36323 1.62777 6.84943 1.99157 7.25 2.44C7.85296 1.69923 8.69403 1.19035 9.63 0.999998C10.498 0.873231 11.3825 1.06506 12.12 1.54C13.0138 2.10269 13.6634 2.98074 13.94 4C14.2296 4.98984 14.1695 6.0492 13.77 7C13.6107 7.36269 13.3984 7.6997 13.14 8C12.6431 8.62495 12.1017 9.21315 11.52 9.76C10.7 10.54 9.79 11.35 8.63 12.29C8.31001 12.56 7.98 12.82 7.63 13.08L7.55 13.15C7.43579 13.2503 7.29166 13.31 7.14 13.32ZM4.15 2C3.75522 1.98866 3.36273 2.06374 3 2.22C2.62358 2.3899 2.28628 2.63569 2.00924 2.94198C1.7322 3.24827 1.52139 3.60846 1.39 4C1.19758 4.52041 1.1291 5.07851 1.19 5.63C1.22889 6.01626 1.3373 6.39231 1.51 6.74C1.71186 7.0992 1.95337 7.43463 2.23 7.74C2.91492 8.51708 3.64981 9.24863 4.43 9.93C5.31265 10.7078 6.21632 11.4614 7.14 12.19L8 11.51C9.13 10.58 10 9.8 10.83 9C11.3768 8.48535 11.888 7.93407 12.36 7.35C12.5499 7.11683 12.7111 6.86166 12.84 6.59C13.15 5.86303 13.2064 5.05289 13 4.29C12.7973 3.49886 12.2906 2.81967 11.59 2.4C11.0487 2.04919 10.3983 1.90703 9.76 2C8.91343 2.23746 8.17722 2.76485 7.68 3.49L7.31 4L6.89 3.52C6.48859 2.99363 5.97208 2.56605 5.38 2.27C4.99605 2.0871 4.57526 1.99473 4.15 2Z" fill="white"/>
</g>
<defs>
<clipPath id="clip0_18_94">
<rect width="32" height="32" fill="white"/>
</clipPath>
</defs>
</svg>
