<svg width="15" height="15" viewBox="0 0 15 15" fill="none" xmlns="http://www.w3.org/2000/svg">
<g clip-path="url(#clip0_18_100)">
<g clip-path="url(#clip1_18_100)">
<path d="M13.94 4C13.6656 2.97704 13.0158 2.09509 12.12 1.53C11.3812 1.05853 10.4968 0.870279 9.63 0.999995C8.69403 1.19034 7.85296 1.69923 7.25 2.44C6.84943 1.99157 6.36323 1.62777 5.82 1.37C5.32736 1.1139 4.78217 0.975233 4.22704 0.964825C3.67191 0.954416 3.1219 1.07255 2.62 1.31C2.11794 1.53245 1.66706 1.85591 1.29545 2.26021C0.923833 2.66451 0.639447 3.141 0.460004 3.66C0.203009 4.32823 0.113737 5.04927 0.200004 5.76C0.243172 6.2739 0.389414 6.77384 0.630004 7.23C0.865933 7.64674 1.14768 8.03582 1.47 8.39C2.18812 9.20059 2.95629 9.96542 3.77 10.68C4.69 11.5 5.69 12.33 6.77 13.17C6.87122 13.263 7.00262 13.3162 7.14 13.32C7.29638 13.3094 7.44451 13.246 7.56 13.14L8.63 12.28C9.79 11.34 10.71 10.53 11.52 9.75C12.0995 9.20147 12.644 8.61698 13.15 8C13.4015 7.69665 13.6101 7.36016 13.77 7C14.1695 6.0492 14.2296 4.98984 13.94 4Z" fill="black"/>
</g>
</g>
<defs>
<clipPath id="clip0_18_100">
<rect width="14.29" height="14.29" fill="white"/>
</clipPath>
<clipPath id="clip1_18_100">
<rect width="14.29" height="14.29" fill="white"/>
</clipPath>
</defs>
</svg>
