<svg width="23" height="32" viewBox="0 0 23 32" fill="none" xmlns="http://www.w3.org/2000/svg">
<g id="lush-icon-storelocator" clip-path="url(#clip0_57_758)">
<path id="Vector" d="M2.99201 19.281L2.77501 18.853C1.25701 15.958 -0.970991 10.521 1.15101 6.634C2.82601 3.567 6.57501 0.0809981 11.63 0.356998C16.391 0.616998 18.547 2.461 20.028 4.23C21.373 5.836 22.093 7.359 22.365 9.167C22.976 13.234 21.482 18.053 17.797 23.901C17.3983 24.5427 17.01 25.1908 16.632 25.845C15.518 27.75 14.465 29.55 13.168 30.706C12.794 31.04 12.12 31.82 11.63 31.82C10.223 31.553 8.03701 29.282 2.99301 19.28L2.99201 19.281ZM3.30101 7.872C2.16501 9.899 2.79001 13.435 5.01601 17.573C5.06301 17.66 5.14801 17.822 5.26401 18.047C9.14601 25.545 10.993 27.734 11.72 28.37C12.586 27.432 13.464 25.97 14.316 24.551C14.724 23.872 15.145 23.169 15.579 22.498C19.026 17.17 20.445 12.917 19.917 9.498C19.716 8.194 19.183 7.118 18.135 5.898C16.753 4.29 15.092 3.18 11.478 2.987C11.3381 2.97986 11.1981 2.97619 11.058 2.976C7.36701 2.976 4.58701 5.575 3.30001 7.871L3.30101 7.872Z" fill="black"/>
<path id="Vector_2" d="M11.676 16.659C11.088 16.659 10.504 16.529 9.94798 16.262C8.07598 15.366 6.93798 13.175 7.17998 10.933C7.41098 8.805 8.59898 7.381 10.441 7.027C12.625 6.605 15.158 7.832 16.212 9.816C17.132 11.547 16.745 13.459 15.149 15.06L15.147 15.062L15.015 15.194L15.013 15.193C13.996 16.158 12.828 16.659 11.676 16.659ZM11.234 8.824C11.057 8.824 10.885 8.839 10.719 8.872C9.75798 9.057 9.20098 9.802 9.06098 11.088C8.90098 12.559 9.62198 14.027 10.776 14.579C11.972 15.152 13.067 14.432 13.778 13.722L13.788 13.711C14.803 12.694 15.061 11.693 14.554 10.739C13.966 9.633 12.51 8.824 11.234 8.824Z" fill="black"/>
</g>
<defs>
<clipPath id="clip0_57_758">
<rect width="23" height="32" fill="white"/>
</clipPath>
</defs>
</svg>
