<svg width="30" height="32" viewBox="0 0 30 32" fill="none" xmlns="http://www.w3.org/2000/svg">
<g clip-path="url(#clip0_24_384)">
<g clip-path="url(#clip1_24_384)">
<path d="M24.237 10.953C24.476 12.498 23.541 17.905 21.237 20.063C21.441 20.096 21.625 20.29 21.737 20.408C25.057 23.896 26.85 26.248 28.923 28.705C29.238 29.079 29.79 30.645 29.445 31.384C29.098 32.129 27.178 32.339 25.765 30.645L24.144 28.705C21.641 25.757 20.629 25.101 18.107 22.428C16.431 23.403 14.991 23.803 12.793 23.924C5.56401 24.326 0.719008 19.837 0.203008 12.923C-0.312992 6.00898 4.82101 0.646983 11.229 0.0549829C18.214 -0.591017 23.543 4.50798 24.238 10.953H24.237ZM3.43101 11.47C2.48001 23.274 20.456 24.223 21.225 12.077C20.706 1.48898 4.30401 0.616983 3.43101 11.47Z" fill="black"/>
</g>
</g>
<defs>
<clipPath id="clip0_24_384">
<rect width="30" height="32" fill="white"/>
</clipPath>
<clipPath id="clip1_24_384">
<rect width="30" height="32" fill="white"/>
</clipPath>
</defs>
</svg>
