<svg width="36" height="34" viewBox="0 0 36 34" fill="none" xmlns="http://www.w3.org/2000/svg">
<path d="M35.8929 28.8483C35.8634 28.5045 35.8372 28.2072 35.8351 28.0051L35.5166 9.56613C35.5075 9.11755 35.3219 8.69027 34.9994 8.37554C34.6769 8.06082 34.243 7.88359 33.7905 7.88171H29.9783C28.6534 7.88171 27.7767 8.85582 27.696 9.79641C27.6295 10.5629 28.1082 11.1673 28.8857 11.3003C29.6795 11.4343 30.2258 11.4052 30.9826 11.363L31.2268 11.3489C31.5245 11.3338 31.8124 11.3187 32.0916 11.31L32.2551 20.117L32.4198 30.4441C29.9172 30.3295 19.8099 29.8819 16.6487 29.9241C13.5998 29.9684 6.07468 30.3198 3.50996 30.443L4.16532 11.3035H9.89451C9.97956 11.9457 10.3307 12.5014 10.8366 12.7804C11.3513 13.0658 11.9391 13.0193 12.4887 12.6485C12.879 12.3858 13.0044 11.9209 13.095 11.5825C13.1224 11.4745 13.1534 11.3674 13.1876 11.2614C13.2465 11.2614 13.373 11.2689 13.5475 11.2862C13.7034 11.3014 13.8059 11.3133 13.8899 11.3024C15.145 11.1781 16.4644 11.2214 17.7413 11.2624L18.2364 11.2808C18.5799 11.2938 18.8514 11.3046 19.3018 11.3046C19.9331 11.3046 20.4903 10.9608 20.7902 10.3856C21.0944 9.80182 21.0519 9.11529 20.679 8.59526C20.1621 7.87306 19.3901 7.8763 18.7653 7.88279L18.4807 7.88171C17.339 7.86116 16.4971 7.86657 15.4318 7.87306L15.2082 7.87414L13.8964 7.88062C14.289 6.60812 15.1155 4.60584 16.5844 3.78525C17.2495 3.41333 17.9878 3.34306 18.7751 3.57226C21.9156 4.48907 22.5131 8.71959 22.9079 11.5208L22.9417 11.7598C23.0605 12.6009 23.2404 13.8723 24.0615 14.3307C24.4519 14.548 24.9132 14.5448 25.4333 14.3221C26.8029 13.7361 26.5663 12.0182 26.4245 10.99C26.4082 10.87 26.3918 10.7554 26.3798 10.6494C25.9829 7.32492 25.0528 4.79071 23.537 2.90195C21.8741 0.831561 18.8569 -0.752316 15.8625 0.374237C12.5138 1.63701 11.0155 5.52589 10.527 7.13896C10.4609 7.35768 10.3987 7.57754 10.3405 7.79846L10.3252 7.80062C10.1765 7.82435 10.0291 7.85574 9.8836 7.89468C9.40926 8.02442 8.71465 7.9736 8.09309 7.92819C7.7725 7.90441 7.46936 7.88171 7.18912 7.88171H2.49258C1.5548 7.88171 0.796939 8.60932 0.767497 9.53802L0.304059 22.5788L0.000915584 32.122C-0.0132602 32.5696 0.137221 32.948 0.449088 33.2475C0.977953 33.7535 1.97571 34 3.50015 34C4.12824 34 4.74216 33.96 5.2394 33.9276C5.56109 33.9059 5.84024 33.8876 6.02016 33.8876H34.1754C34.6378 33.8876 35.0227 33.7254 35.3193 33.4043C36.2047 32.4486 36.0172 30.2819 35.8939 28.8473L35.8929 28.8483Z" fill="black"/>
</svg>
