<svg width="34" height="32" viewBox="0 0 34 32" fill="none" xmlns="http://www.w3.org/2000/svg">
<g clip-path="url(#clip0_18_40)">
<g clip-path="url(#clip1_18_40)">
<path d="M32.917 26.682C32.89 26.364 32.866 26.089 32.864 25.902L32.572 8.847C32.5636 8.43209 32.3934 8.03688 32.0976 7.74578C31.8019 7.45467 31.404 7.29075 30.989 7.289H27.493C26.278 7.289 25.474 8.19001 25.4 9.06001C25.339 9.769 25.778 10.328 26.491 10.451C27.219 10.575 27.72 10.548 28.414 10.509L28.638 10.496C28.911 10.482 29.175 10.468 29.431 10.46L29.581 18.606L29.732 28.158C27.437 28.052 18.168 27.638 15.269 27.677C12.473 27.718 5.572 28.043 3.22 28.157L3.821 10.454H9.075C9.153 11.048 9.475 11.562 9.939 11.82C10.411 12.084 10.95 12.041 11.454 11.698C11.812 11.455 11.927 11.025 12.01 10.712C12.0352 10.6121 12.0636 10.5131 12.095 10.415C12.149 10.415 12.265 10.422 12.425 10.438C12.568 10.452 12.662 10.463 12.739 10.453C13.89 10.338 15.1 10.378 16.271 10.416L16.725 10.433C17.04 10.445 17.289 10.455 17.702 10.455C18.281 10.455 18.792 10.137 19.067 9.605C19.346 9.065 19.307 8.43 18.965 7.949C18.491 7.281 17.783 7.284 17.21 7.29L16.949 7.289C15.902 7.27 15.13 7.275 14.153 7.281L13.948 7.282L12.745 7.288C13.105 6.111 13.863 4.259 15.21 3.5C15.82 3.156 16.497 3.091 17.219 3.303C20.099 4.151 20.647 8.064 21.009 10.655L21.04 10.876C21.149 11.654 21.314 12.83 22.067 13.254C22.425 13.455 22.848 13.452 23.325 13.246C24.581 12.704 24.364 11.115 24.234 10.164C24.219 10.053 24.204 9.947 24.193 9.849C23.829 6.774 22.976 4.43 21.586 2.683C20.061 0.768004 17.294 -0.696996 14.548 0.345004C11.477 1.513 10.103 5.11 9.655 6.602C9.59438 6.8043 9.53737 7.00767 9.484 7.212L9.47 7.214C9.33358 7.23595 9.1984 7.26499 9.065 7.301C8.63 7.421 7.993 7.374 7.423 7.332C7.129 7.31 6.851 7.289 6.594 7.289H2.287C1.427 7.289 0.731999 7.962 0.704999 8.821L0.279999 20.883L0.00199931 29.71C-0.0110007 30.124 0.126999 30.474 0.412999 30.751C0.897999 31.219 1.813 31.447 3.211 31.447C3.787 31.447 4.35 31.41 4.806 31.38C5.101 31.36 5.357 31.343 5.522 31.343H31.342C31.766 31.343 32.119 31.193 32.391 30.896C33.203 30.012 33.031 28.008 32.918 26.681L32.917 26.682Z" fill="white"/>
</g>
</g>
<defs>
<clipPath id="clip0_18_40">
<rect width="34" height="32" fill="white"/>
</clipPath>
<clipPath id="clip1_18_40">
<rect width="34" height="32" fill="white"/>
</clipPath>
</defs>
</svg>
