<?xml version="1.0" standalone="no"?>
<!DOCTYPE svg PUBLIC "-//W3C//DTD SVG 1.1//EN" "http://www.w3.org/Graphics/SVG/1.1/DTD/svg11.dtd" >
<svg xmlns="http://www.w3.org/2000/svg" xmlns:xlink="http://www.w3.org/1999/xlink" version="1.1">
<metadata>
Created by FontForge 20200314 at Thu Aug 21 13:24:51 2014
 By Unknown
Copyright (c) 2014 Cosmetics Warriors Ltd. All rights reserved. This font may not be altered in any way without prior permission from Cosmetic Warriors Ltd.
</metadata>
<defs>
<font id="LushHandwritten-Bold" horiz-adv-x="470" >
  <font-face 
    font-family="Lush Handwritten WLat"
    font-weight="700"
    font-stretch="normal"
    units-per-em="1000"
    panose-1="3 8 8 2 4 2 1 1 1 1"
    ascent="836"
    descent="-164"
    x-height="653"
    cap-height="706"
    bbox="-173 -282 1374 1041"
    underline-thickness="50"
    underline-position="-100"
    unicode-range="U+000D-FEFF"
  />
<missing-glyph horiz-adv-x="500" 
d="M450 0h-400v750h400v-750zM400 50v650h-300v-650h300z" />
    <glyph glyph-name=".notdef" horiz-adv-x="500" 
d="M450 0h-400v750h400v-750zM400 50v650h-300v-650h300z" />
    <glyph glyph-name=".null" horiz-adv-x="0" 
 />
    <glyph glyph-name=".null" horiz-adv-x="0" 
 />
    <glyph glyph-name="nonmarkingreturn" horiz-adv-x="333" 
 />
    <glyph glyph-name="CR" unicode="&#xd;" horiz-adv-x="245" 
 />
    <glyph glyph-name="space" unicode=" " horiz-adv-x="245" 
 />
    <glyph glyph-name="exclam" unicode="!" horiz-adv-x="296" 
d="M207 692q43 11 86 11q5 0 14 -6t9 -12q0 -8 -8 -30q-104 -280 -145 -420q-7 -24 -12.5 -30t-22.5 -8q-42 -5 -77 -5q-4 0 -10.5 9.5t-6.5 15.5q0 2 13 52q42 154 120 372q10 26 18 36.5t22 14.5zM-10 28q-5 18 -5 53q0 11 49.5 21.5t70.5 10.5q10 0 21 -15t11 -33
q0 -8 -13.5 -27.5t-21.5 -19.5q-14 0 -40 -4t-49 -4q-7 0 -14 5.5t-9 12.5z" />
    <glyph glyph-name="quotedbl" unicode="&#x22;" horiz-adv-x="441" 
d="M265 709q8 0 15 -8.5t7 -15.5q0 -9 -39 -94q-49 -107 -63 -129q-5 -8 -32 -15.5t-42 -7.5q-5 0 -12.5 7t-7.5 13q0 31 74 209q4 10 14 20.5t17 10.5q15 0 36.5 5t32.5 5zM465 715q8 0 15 -8.5t7 -15.5q0 -9 -39 -94q-49 -107 -63 -129q-5 -8 -32 -15.5t-42 -7.5
q-5 0 -12.5 7t-7.5 13q0 31 74 209q4 10 14 20.5t17 10.5q15 0 36.5 5t32.5 5z" />
    <glyph glyph-name="numbersign" unicode="#" horiz-adv-x="621" 
d="M16 401q0 18 165 56q44 100 68 150q11 22 54 27q12 2 29 2q9 0 18.5 -9t9.5 -18t-5 -19q-36 -72 -52 -107q66 12 110 18q35 81 65 134q6 10 38 16.5t59 6.5q8 0 8 -27q0 -4 -7 -17.5t-23.5 -44.5t-30.5 -60q71 0 104 -4q15 -2 15 -13q0 -7 -24 -22t-36 -15q-40 0 -85 -3
q-16 -35 -39 -100q68 5 124 5q5 0 11 -5.5t6 -10.5q0 -8 -14.5 -20t-24.5 -12q-53 0 -120 -9q-8 -23 -24.5 -79t-28 -90t-16.5 -37q-39 -28 -69 -28q-25 0 -25 4t-5.5 12.5t-6.5 13.5q19 65 62 186q-63 -12 -121 -30q-24 -65 -41 -119q-15 -46 -17 -50q-43 -16 -94 -16
q-6 0 -10.5 8.5t-4.5 14.5q0 14 41 120q-35 -11 -59 -11q-39 0 -60 11q-9 4 -9 16q0 13 37 24q62 20 121 36q19 50 42 102q-34 -15 -46 -15q-37 0 -69 10q-20 5 -20 18zM275 421q-9 -20 -45 -104q78 16 117 22l41 103q-51 -7 -113 -21z" />
    <glyph glyph-name="dollar" unicode="$" horiz-adv-x="602" 
d="M-70 129q0 24 28 47t50 23q9 0 45 -18t42 -19q60 -9 84 -10q24 77 49 146q-98 43 -139 74.5t-41 82.5q0 39 46.5 77.5t114 64.5t136.5 35l40 113q3 9 13.5 18t20.5 9q12 0 23.5 -9.5t11.5 -19.5q0 -25 -32 -108q47 -2 85.5 -13.5t56.5 -24t18 -21.5q0 -23 -11.5 -53.5
t-30.5 -30.5q-6 0 -23 16t-49.5 33t-75.5 19q-33 -87 -68 -192q115 -48 165.5 -83t50.5 -83q0 -47 -74 -82.5t-234 -41.5q-25 -90 -25 -122q0 -5 -19.5 -18t-34.5 -13q-22 0 -22 33q0 31 25 119q-75 4 -150.5 18.5t-75.5 33.5zM262 395q11 32 55 158q-56 -11 -90.5 -38
t-34.5 -57q0 -17 15 -30.5t55 -32.5zM292 269q-20 -58 -38 -117q139 4 139 42q0 16 -21 31.5t-80 43.5z" />
    <glyph glyph-name="percent" unicode="%" horiz-adv-x="760" 
d="M150 384q-40 0 -66 21t-26 52q0 67 53 147.5t124 80.5q54 0 95.5 -22t41.5 -62q0 -78 -71.5 -147.5t-150.5 -69.5zM252 607q-38 0 -68.5 -40.5t-30.5 -82.5q0 -31 10 -31q27 0 70 44t43 83q0 27 -24 27zM493 34q-39 0 -72 21.5t-33 63.5q0 74 52 144.5t121 70.5
q58 0 97 -27t39 -71q0 -64 -67.5 -133t-136.5 -69zM480 122q0 -21 13 -21q24 0 67.5 48.5t43.5 80.5q0 10 -8.5 18.5t-23.5 8.5q-39 0 -65.5 -41.5t-26.5 -93.5zM517 676q6 11 26 22.5t36 11.5q9 0 15 -7.5t6 -16.5q0 -21 -42 -91q-187 -315 -306 -528q-12 -21 -37.5 -36
t-41.5 -15q-6 0 -12 6t-6 12q0 15 13 37q149 266 349 605z" />
    <glyph glyph-name="ampersand" unicode="&#x26;" horiz-adv-x="590" 
d="M92 478q21 89 95.5 148.5t160.5 59.5q49 0 82 -25t33 -65q0 -39 -43.5 -88.5t-162.5 -152.5q28 -55 67 -101q106 103 145 147q29 0 36 -6q15 -12 22 -36q-48 -59 -156 -156q48 -50 70.5 -65.5t51.5 -15.5q5 0 12 -6t7 -16q0 -14 -35 -46.5t-51 -32.5q-15 0 -57 29.5
t-89 74.5q-134 -105 -241 -105q-45 0 -67.5 21.5t-22.5 58.5q0 43 35 89.5t140 147.5q-32 74 -32 141zM221 476q0 -19 5 -42q71 67 98 102.5t28 64.5q0 27 -29 27q-46 0 -74 -51.5t-28 -100.5zM232 175q-36 41 -69 92q-89 -92 -89 -131q0 -22 24 -22q51 0 134 61z" />
    <glyph glyph-name="quotesingle" unicode="'" horiz-adv-x="241" 
d="M265 709q8 0 15 -8.5t7 -15.5q0 -9 -39 -94q-49 -107 -63 -129q-5 -8 -32 -15.5t-42 -7.5q-5 0 -12.5 7t-7.5 13q0 31 74 209q4 10 14 20.5t17 10.5q15 0 36.5 5t32.5 5z" />
    <glyph glyph-name="parenleft" unicode="(" horiz-adv-x="334" 
d="M419 779q23 0 51 -5q11 0 11 -22q0 -5 -16 -11t-37.5 -13.5t-29.5 -13.5q-98 -71 -179.5 -256.5t-81.5 -319.5q0 -97 44 -140q5 -5 16.5 -10t19.5 -9.5t8 -9.5q-7 -23 -22 -39q-19 -5 -41 -5q-67 0 -101 58.5t-34 146.5q0 167 105 370q61 120 136.5 199.5t150.5 79.5z
" />
    <glyph glyph-name="parenright" unicode=")" horiz-adv-x="332" 
d="M107 734q7 15 22.5 32.5t25.5 17.5q19 0 37.5 -16t28.5 -40q47 -112 47 -233q0 -253 -186 -456q-48 -53 -100.5 -80t-82.5 -27q-14 0 -21.5 11.5t-7.5 27.5q113 57 197.5 209t84.5 296q0 156 -45 258z" />
    <glyph glyph-name="asterisk" unicode="*" horiz-adv-x="511" 
d="M85 587q0 6 27.5 32.5t37.5 26.5q5 0 13.5 -4.5t21 -14.5t22.5 -19t28.5 -25t29.5 -26l46 140q3 11 27 21q21 6 78 6q3 0 6 -6.5t3 -9.5q0 -8 -7.5 -26t-25 -56.5t-31.5 -71.5q120 58 158 58q9 0 18 -4.5t10 -10.5q-4 -17 -17 -24q-146 -61 -180 -78q126 -84 126 -106
q-2 -2 -18.5 -21.5t-20.5 -22.5q-6 -6 -23 -6q-21 0 -106 68q-46 -138 -52 -138q-13 0 -44 -0.5t-33 -0.5q-5 0 -10 5.5t-5 9.5q0 3 54 143q-112 -62 -132 -62q-19 0 -48 35q11 13 53 29q61 24 125 54q-13 9 -34.5 24.5t-36 26t-30 22t-23 19.5t-7.5 13z" />
    <glyph glyph-name="plus" unicode="+" horiz-adv-x="563" 
d="M5 327q-4 2 -4 8q0 14 11 18q103 30 208 44q38 113 66 188q6 15 24 19q13 0 46.5 -4.5t35.5 -7.5l5 -20q0 -12 -53 -163q133 7 178 7q6 0 15 -9.5t9 -16.5q0 -9 -15.5 -18t-27.5 -9q-38 -2 -179 -16q-18 -58 -61 -204q-4 -14 -15 -27t-23 -13q-18 0 -48 9.5t-30 17.5
q0 38 51 200q-21 -4 -46 -9.5t-39 -8.5t-21 -3q-61 0 -87 18z" />
    <glyph glyph-name="comma" unicode="," horiz-adv-x="250" 
d="M-44 -121q-21 -12 -59 -12q-14 0 -22 10t-8 25q0 4 19.5 33t48.5 75.5t47 84.5q9 17 28 33.5t37 16.5q50 0 61 -16q7 -11 7 -30q0 -12 -31 -55q-65 -88 -128 -165z" />
    <glyph glyph-name="hyphen" unicode="-" horiz-adv-x="487" 
d="M367 317q-53 -6 -130.5 -18t-133 -21t-66.5 -9t-21 8.5t-10 17.5q0 20 12 37q33 11 178.5 32.5t213.5 21.5q5 0 14 -10t9 -17q0 -22 -12 -31q-11 -7 -54 -11z" />
    <glyph glyph-name="period" unicode="." horiz-adv-x="250" 
d="M-19 125q12 26 111 26q7 0 17 -9.5t10 -15.5q0 -23 -10 -49.5t-26 -29.5q-49 -11 -88 -11q-8 0 -16.5 7t-8.5 15q0 43 11 67z" />
    <glyph glyph-name="slash" unicode="/" horiz-adv-x="365" 
d="M486 756q-66 -106 -243 -377.5t-246 -373.5q-4 -6 -10.5 -16t-8.5 -13t-6 -8t-6.5 -6.5t-6 -3.5t-7.5 -3q-8 -2 -15 -5.5t-16 -3.5q-5 0 -15 8.5t-10 16.5q0 22 61 114q22 33 206.5 318.5t224.5 342.5q5 7 17 12t19 5q12 0 23.5 6.5t22.5 6.5q6 0 16 -20z" />
    <glyph glyph-name="zero" unicode="0" horiz-adv-x="535" 
d="M184 674q12 0 40.5 -10.5t40.5 -19.5q66 33 129 33q49 0 84 -42.5t35 -100.5q0 -102 -44 -212t-116 -201q-40 -52 -83 -71t-117 -19q-32 0 -80 16q-28 10 -48.5 54t-20.5 90q0 94 43.5 218.5t104.5 232.5q11 20 17.5 26t14.5 6zM350 583q-43 0 -119 -43
q-107 -206 -107 -348q0 -88 34 -88q40 0 95.5 69.5t96.5 169t41 176.5q0 64 -41 64z" />
    <glyph glyph-name="one" unicode="1" horiz-adv-x="333" 
d="M16 41q42 183 145 476l-42 -36q-9 -7 -21 -7q-9 0 -29 20t-20 28q0 11 13 24q68 59 148 144q18 19 47 19q31 0 67 -7q5 -1 8.5 -11.5t3.5 -16.5q0 -12 -7 -29q-3 -7 -23.5 -55.5t-30.5 -78.5q-93 -275 -126 -451q-1 -9 -7.5 -16.5t-12.5 -8.5q-17 -2 -45.5 -11t-49.5 -9
q-5 0 -10.5 9t-7.5 17z" />
    <glyph glyph-name="two" unicode="2" horiz-adv-x="525" 
d="M509 594q0 -56 -108.5 -196t-224.5 -255q172 69 233 69q26 0 50 -9.5t24 -20.5q0 -8 -8.5 -19.5t-15.5 -12.5q-136 -32 -271 -88q-23 -9 -54.5 -24.5t-49.5 -22.5t-31 -7q-14 0 -43 32q-26 9 -34 16t-8 17q0 14 98 117q9 10 44 45.5t52.5 53.5t46 50.5t51.5 61.5
q58 72 90 124t32 69q0 5 -4 5q-26 0 -79.5 -27t-97.5 -61.5t-44 -53.5q0 -2 0.5 -8.5t0.5 -9.5q0 -11 -8 -23t-19 -12q-47 0 -77 12.5t-30 31.5q0 14 21 40q60 77 160.5 130.5t180.5 53.5q53 0 88 -22t35 -56z" />
    <glyph glyph-name="three" unicode="3" horiz-adv-x="544" 
d="M335 240q0 27 -19 36t-76 9q-18 0 -59.5 -4t-48.5 -4q-31 0 -42 4q-6 2 -15.5 19t-9.5 24q0 15 44 41q115 67 182.5 123t110.5 120q-99 -25 -204 -77q24 -8 24 -23q0 -23 -13 -28q-71 -26 -130 -26q-7 0 -23.5 15.5t-16.5 22.5q0 28 61 71t153.5 76.5t168.5 33.5
q41 0 70 -22t29 -53q0 -32 -78 -102t-130 -105q-14 -10 -40 -26q20 2 27 2q57 0 100 -23q33 -18 53 -46.5t20 -57.5q0 -49 -64.5 -97t-170 -78.5t-215.5 -30.5q-16 0 -33.5 10t-16.5 17q4 40 32 41q78 2 153.5 20.5t126 50t50.5 67.5z" />
    <glyph glyph-name="four" unicode="4" horiz-adv-x="548" 
d="M280 5q-62 -17 -77 -17q-11 0 -21 10t-10 21q0 14 16 59l57 165l-137 -53q-42 -17 -68 -17q-19 0 -47 32.5t-28 46.5q0 4 4 11t12.5 18t16 20.5t21 26t21.5 26.5q34 42 125 145t127 146q20 24 95 24q19 39 29 39q23 0 59.5 -10t36.5 -20q0 -6 -8.5 -23t-10.5 -22
l-84 -262q88 28 110 28q35 0 43 -4q10 -8 10 -16q0 -14 -188 -84l-75 -227q-2 -6 -6 -24t-9 -27.5t-14 -11.5zM272 323q15 43 87 265q-158 -177 -278 -331z" />
    <glyph glyph-name="five" unicode="5" horiz-adv-x="532" 
d="M259 645q54 0 55 -24q106 36 161 36q7 0 40 -6t44 -9q37 -10 40 -15q0 -10 -5.5 -22t-13.5 -12q-3 0 -30 0.5t-32 0.5q-40 0 -119 -24.5t-165 -65.5q-37 -44 -66.5 -89.5t-29.5 -57.5q0 -9 8 -16.5t35 -17t78 -21.5q116 -27 159 -50.5t43 -60.5q0 -43 -59 -84t-139 -61
q-88 -22 -165 -22q-42 0 -70 9.5t-38 20.5t-10 22q0 18 26 48.5t46 30.5q9 0 46 -16.5t37 -20.5q0 -15 -14 -37q80 11 139.5 38t59.5 56q0 18 -113 42q-108 23 -154 41q-20 7 -35 27.5t-15 40.5q0 34 55 118q57 86 116 166q18 24 33.5 29.5t51.5 5.5z" />
    <glyph glyph-name="six" unicode="6" horiz-adv-x="497" 
d="M385 723q28 -11 28 -27q0 -6 -11.5 -18.5t-21.5 -15.5q-42 -11 -116 -118q-52 -75 -83 -145q104 70 170 70q47 0 86 -40.5t39 -97.5q0 -60 -120 -175q-56 -54 -120 -93.5t-109 -39.5q-49 0 -105 38q-19 12 -24 56q-4 -3 -9 -3q-17 0 -32.5 12.5t-15.5 26.5q0 17 69 94
q35 137 129 297q41 69 78.5 114.5t59 60.5t34.5 15q41 0 74 -11zM352 393q-85 0 -219 -140q-11 -49 -11 -103q0 -52 17 -52q20 0 74.5 44.5t104 110t49.5 111.5q0 29 -15 29z" />
    <glyph glyph-name="seven" unicode="7" horiz-adv-x="521" 
d="M3 293q4 31 15 38q84 50 252 90q74 147 120 225q-75 -25 -164 -66q-92 -43 -114 -43q-12 0 -28.5 4t-27 9.5t-10.5 8.5q0 6 5.5 20t10.5 19q10 10 96 41.5t147 50.5q119 38 155 38q14 0 37.5 -19t23.5 -33q0 -21 -19 -58q-49 -94 -90 -171q44 6 81 6q17 0 44 -3.5
t31 -7.5q0 -6 -5.5 -18.5t-8.5 -12.5q-65 0 -176 -29q-31 -57 -61 -121q-87 -180 -105 -225q-12 -30 -22 -30q-26 0 -63.5 9t-37.5 17q0 19 8 37q61 132 131 270l-66 -25q-6 -2 -31 -17.5t-38 -15.5q-15 0 -52 4.5t-38 7.5z" />
    <glyph glyph-name="eight" unicode="8" horiz-adv-x="520" 
d="M20 400q0 59 72 126t187 127q86 44 131 44q29 0 62 -22t40 -47q22 -5 52 -20.5t29 -27.5q0 -34 -16 -45q-179 -114 -328 -257q115 -80 115 -150q0 -27 -17 -46q-19 -25 -80.5 -45.5t-102.5 -20.5q-42 0 -96 24.5t-76 74.5q1 29 32 74t83 91q-45 34 -66 60t-21 60z
M330 545q0 13 31.5 34t72.5 35q-8 8 -25 8q-58 0 -180 -92q-31 -23 -46.5 -37.5t-31 -39t-15.5 -50.5q0 -33 34 -65q113 105 210 171q-19 1 -35 4q-5 1 -10 12t-5 20zM258 130q0 29 -73 90q-29 -25 -48 -57t-19 -49q0 -18 14.5 -27.5t35.5 -9.5q31 0 60.5 18.5t29.5 34.5z
" />
    <glyph glyph-name="nine" unicode="9" horiz-adv-x="511" 
d="M392 722q65 0 95 -65q18 -3 46 -14.5t28 -20.5q0 -13 -19 -49q-46 -89 -153.5 -299t-135.5 -265q-6 -12 -18 -20.5t-20 -8.5q-21 0 -53 17q-15 8 -15 27q0 16 17 50q74 148 158 295q-150 -127 -184 -127q-36 0 -79 13q-17 5 -35 27t-18 42q0 25 27 85q60 137 154.5 225
t204.5 88zM118 315q44 23 120.5 79.5t127.5 105.5q-13 8 -13 20q0 11 15 28q17 21 22 37.5t5 45.5q0 22 -11 22q-39 0 -103 -61.5t-113 -143t-50 -133.5z" />
    <glyph glyph-name="colon" unicode=":" horiz-adv-x="290" 
d="M0 123q4 9 15.5 16.5t23.5 7.5q43 0 76 -9q11 -4 18.5 -16.5t7.5 -24.5q0 -15 -12 -38.5t-26 -23.5q-25 0 -61 7.5t-51 16.5q0 35 9 64zM102 461q11 10 99 10q14 0 25 -12t11 -27q0 -13 -14 -40.5t-26 -27.5q-61 0 -86 17q-23 13 -23 26q0 7 5.5 29t8.5 25z" />
    <glyph glyph-name="semicolon" unicode=";" horiz-adv-x="290" 
d="M96 423q13 28 35 28q35 0 67 -11t32 -21q0 -12 -9 -37t-16 -30q-11 -7 -18 -7q-43 0 -82 7q-8 2 -14.5 10t-6.5 18q0 21 12 43zM15 128q3 8 19.5 13.5t27.5 5.5q28 0 56 -14q16 -8 16 -27q0 -4 -22.5 -39t-61.5 -87.5t-75 -92.5q-21 -23 -37 -23t-38.5 13t-22.5 23
q0 9 24 43q79 112 114 185z" />
    <glyph glyph-name="equal" unicode="=" horiz-adv-x="597" 
d="M46 439q0 17 48 27q280 55 368 55q15 0 49 -10q14 -4 28 -12t14 -13q0 -10 -12 -18.5t-27 -10.5q-107 -13 -200 -30.5t-139 -28t-61 -10.5q-11 0 -39.5 22t-28.5 29zM6 231q0 10 5 20q4 8 61 19q88 18 219.5 37.5t149.5 19.5q11 0 25 -6q5 -2 23.5 -9.5t29 -12.5t10.5 -8
q0 -13 -2 -21q-1 -2 -4.5 -3t-12.5 -2.5t-19 -2.5t-28.5 -3.5t-34.5 -4.5q-99 -14 -182 -29t-119 -23t-44 -8q-15 0 -26 6l-15 8q-16 8 -26 14t-10 9z" />
    <glyph glyph-name="question" unicode="?" horiz-adv-x="531" 
d="M67 536q57 63 162 101t196 38q63 0 106 -22t43 -63q0 -42 -48.5 -95.5t-157.5 -134.5q-44 -32 -67 -61t-51 -85q-28 -9 -85 -9q-7 0 -23 5.5t-16 10.5q0 88 150 201q79 60 117 96t38 59q0 34 -57 34q-58 0 -111.5 -30t-84.5 -86q-11 -18 -99 -32q-28 19 -30 35
q0 18 18 38zM100 101q15 25 110 25q7 0 16.5 -9t9.5 -15q0 -21 -9.5 -46.5t-24.5 -28.5q-48 -10 -83 -10q-7 0 -15 6.5t-8 11.5q0 57 4 66z" />
    <glyph glyph-name="at" unicode="@" horiz-adv-x="856" 
d="M571 715q100 0 167 -54.5t67 -145.5q0 -131 -78.5 -244.5t-154.5 -133.5q-39 -11 -69 -11q-16 0 -26.5 16.5t-10.5 48.5q0 40 6 83q-26 -66 -69.5 -115.5t-82.5 -49.5q-54 0 -77.5 19.5t-23.5 68.5q0 85 49 174.5t105 109.5q27 10 79 10q61 0 63 -50q47 55 65 55
q9 0 22 -9.5t13 -17.5q0 -7 -12.5 -40t-16.5 -48q-21 -86 -27 -182q146 129 146 294q0 70 -38.5 109.5t-109.5 39.5q-86 0 -170 -50t-143.5 -124.5t-96 -162.5t-36.5 -164q0 -79 50 -123.5t133 -44.5q122 0 274 80q105 55 145 55q4 0 9.5 -9t5.5 -16q-18 -14 -38 -29
t-71 -45.5t-100.5 -53t-118 -40t-132.5 -17.5q-120 0 -192 61t-72 172q0 105 55.5 217.5t135.5 193.5q172 173 376 173zM330 179q75 69 126 162q-18 5 -29 17q6 38 6 63t-3 25q-8 0 -35 -37.5t-43 -76.5q-25 -60 -25 -114q0 -24 3 -39z" />
    <glyph glyph-name="A" unicode="A" horiz-adv-x="456" 
d="M-100 41q0 11 52 121q-42 6 -42 31q0 6 73 38q62 132 137.5 260.5t131.5 181.5q17 16 52.5 25t68.5 9q12 0 23 -15.5t11 -30.5q-24 -142 -33 -289q24 6 39 6q6 0 13 -8t7 -19q0 -3 -2.5 -5t-8.5 -4.5t-12 -4t-17 -5t-19 -6.5q0 -154 7 -228q0 -4 5 -14t5 -16
q0 -20 -25 -24l-26 -5q-27 -5 -42 -5q-29 0 -36 33t-7 129q0 56 1 84q-125 -50 -168 -69q-13 -33 -29 -79t-18 -52q-10 -26 -16 -34.5t-19 -11.5q-72 -16 -81 -16q-8 0 -16.5 8t-8.5 15zM288 599q-64 -81 -170 -319q19 7 141 53q8 136 29 266z" />
    <glyph glyph-name="B" unicode="B" horiz-adv-x="583" 
d="M49 328q42 114 98 234q-15 1 -32.5 9t-17.5 17q0 17 23 25q28 10 61 17l9.5 19t10 20.5t10.5 20.5q19 7 55 16.5t49 9.5q19 0 19 -17q0 -15 -17 -51q6 0 20 0.5t21 0.5q43 0 86.5 -8t81 -32t37.5 -60q0 -25 -16.5 -49t-38.5 -38q-78 -51 -280 -119q50 8 92 8
q126 0 191 -34q39 -20 39 -54q0 -26 -17 -45.5t-63 -50.5q-85 -57 -228 -102.5t-235 -45.5q-12 0 -23 18q-1 2 -10 8.5t-9 11.5q0 21 54 188q-10 4 -26.5 17.5t-16.5 25.5q30 22 73 40zM286 290q-60 0 -128 -13q-36 -96 -58 -183q301 78 301 150q0 20 -30 33t-85 13z
M339 586q-18 0 -56 -4q-52 -111 -86 -199q167 66 216 110q29 25 29 52q0 17 -31.5 29t-71.5 12z" />
    <glyph glyph-name="C" unicode="C" horiz-adv-x="437" 
d="M-32 78q0 73 83.5 290t141.5 293q13 18 54.5 33.5t76.5 15.5q27 0 45 -16t26 -46.5t10.5 -59t2.5 -68.5q0 -11 -28.5 -22.5t-51.5 -11.5q-13 0 -24.5 10t-11.5 23q0 59 -10 89q-56 -94 -119.5 -268t-64.5 -238q96 65 194 165q50 52 90 59q8 1 23.5 13.5t25.5 12.5
q7 0 14.5 -9.5t7.5 -18.5q-203 -216 -258 -264q-62 -54 -170 -54q-33 0 -45 17.5t-12 54.5z" />
    <glyph glyph-name="D" unicode="D" horiz-adv-x="553" 
d="M174 655q13 4 50.5 9t47.5 5q9 0 16 -6t7 -14q0 -4 -18 -38q99 -22 183 -86t84 -135q0 -72 -62.5 -137t-154.5 -104q-133 -57 -245 -84q-11 -28 -22 -34q-19 -8 -50 -15.5t-44 -7.5q-24 0 -24 26q0 3 2 15q-22 1 -29 5t-7 15q0 6 4 14t8 9q15 2 43 8q155 437 171 479
q-19 0 -39 -0.5t-25 -0.5q-6 0 -13.5 8t-7.5 14q1 12 23 21.5t50 9.5q22 0 34 -1q12 23 18 25zM414 383q0 55 -46 100.5t-114 71.5q-72 -197 -147 -417q135 46 221 112.5t86 132.5z" />
    <glyph glyph-name="E" unicode="E" 
d="M72 20q-54 0 -82 3t-36 8.5t-8 15.5q0 7 5.5 20t6.5 16q20 75 42 141q-32 9 -32 19q0 9 9 14q10 7 49 38q32 89 73 177q45 100 68.5 136t53.5 36q33 0 68 -9q40 16 69 30q39 17 61.5 26t59 17.5t72.5 8.5q40 0 40 -12v-4q-167 -57 -329 -171q-31 -58 -60 -119
q92 41 126 53t59 12q80 0 80 -16q0 -2 -2.5 -4t-5 -3t-5.5 -2l-3 -1q-14 -6 -54 -24t-55 -24.5t-47 -21.5t-50.5 -24.5t-43 -23t-46.5 -26.5q-44 -107 -68 -193q160 86 256 145q10 5 27 5q78 0 78 -22q-128 -97 -289 -186q-65 -35 -87 -35z" />
    <glyph glyph-name="F" unicode="F" horiz-adv-x="490" 
d="M-68 212l85 41q41 106 85 202q-21 3 -35 8q-10 4 -19 14.5t-9 19.5q0 6 16.5 16t51 27t49.5 25q29 56 51 92q2 2 15.5 5t23.5 3q13 0 39 -10.5t29 -21.5q127 44 186 44q28 0 65 -13t37 -22q0 -8 -3 -19.5t-8 -12.5q-19 -9 -76 -9q-21 0 -23 9l-3 18q-130 -42 -218 -87
q-56 -104 -107 -226q111 36 188 63q78 26 100 26t34 -7q7 -5 7 -19q0 -2 -2 -4t-6.5 -4.5t-9.5 -5.5t-13.5 -6.5t-15.5 -6.5t-17.5 -7t-18.5 -7.5t-20.5 -8.5t-20.5 -8q-110 -44 -244 -104q-23 -59 -50 -146q0 -1 -2.5 -13t-7 -16t-14.5 -6t-28.5 -6.5t-31.5 -7.5t-18 -3
q-28 0 -28 35q0 3 3 8t4 8l35 104q-38 4 -47 13q-6 5 -8 26z" />
    <glyph glyph-name="G" unicode="G" horiz-adv-x="525" 
d="M179 -124q0 24 42.5 148.5t92.5 236.5q-146 -181 -205 -220q-30 -20 -77 -20q-23 0 -46.5 12t-23.5 34q0 66 42.5 188t108 241.5t123.5 174.5q10 10 58.5 26t78.5 16q31 0 38 -7q13 -14 26 -52t13 -63q0 -11 -28.5 -19t-49.5 -8q-29 0 -33 14q-6 23 -20 56
q-35 -34 -65 -84t-77 -155q99 36 225.5 67t157.5 31q33 0 46.5 -4t13.5 -15q0 -6 -28 -23.5t-35 -18.5q-41 -6 -73 -13q-7 -22 -71 -198t-85 -244q-8 -25 -16 -57l-7 -32q-3 -9 -27 -18q-60 -17 -77 -17q-6 0 -14 7t-8 16zM139 163q131 139 202 217q-106 -33 -202 -72
q-46 -110 -46 -145q0 -5 7 -9t13 -4q13 0 26 13z" />
    <glyph glyph-name="H" unicode="H" horiz-adv-x="529" 
d="M-39 89q85 268 186 534q1 4 3.5 7t4.5 5t6 4t6.5 2.5t9.5 2.5t11 3q46 14 60 14q11 0 21.5 -9.5t10.5 -21.5q0 -6 -3 -12t-8.5 -14t-8.5 -12l-92 -252q97 46 166 68q48 135 103 260q2 5 13 14.5t18 9.5q6 0 43.5 -8t41.5 -13q6 -9 6 -19t-3 -17q-51 -129 -76 -196
q4 0 12.5 0.5t12.5 0.5q44 0 62 -10q2 -1 2 -31q-60 -7 -112 -20q-64 -167 -111 -301q-10 -28 -23 -36q-8 -5 -51.5 -13t-59.5 -8q-3 0 -8 9t-5 12t4.5 10t5.5 8q32 91 94 261q-108 -47 -178 -99q-46 -138 -46 -153q0 -11 17 -21q-9 -40 -34 -40h-93q-9 0 -12 3q-9 5 -9 21
q0 14 13 57z" />
    <glyph glyph-name="I" unicode="I" horiz-adv-x="257" 
d="M51 33q-5 -1 -23.5 -4.5t-27.5 -3.5q-11 0 -23 10t-12 20q0 36 72.5 254.5t151.5 380.5q7 16 99 16q22 0 29 -6t7 -21q0 -7 -12 -12q-47 -76 -122 -294.5t-95 -298.5q-3 -12 -4.5 -17t-6 -11t-12.5 -9t-21 -4z" />
    <glyph glyph-name="J" unicode="J" horiz-adv-x="484" 
d="M9 509q-8 10 -8 32q0 18 88 52t197 62q1 20 11.5 34t24.5 14q10 0 49 -28q110 20 187 20q19 0 40 -5t33.5 -10t12.5 -8q0 -6 -6 -15t-12 -9q-94 0 -217 -26q-19 -134 -69.5 -292t-114.5 -280q-5 -9 -22.5 -17.5t-26.5 -8.5q-16 0 -42 7t-32 14q-6 8 -17 31
q-16 36 -43 123.5t-27 98.5q0 10 28 17t45 7q10 0 18 -22q22 -62 51 -130q45 99 80 214t45 207q-180 -54 -180 -82q0 -4 3 -10.5t3 -8.5t-6 -6.5t-9 -4.5q-18 0 -48 11t-36 19z" />
    <glyph glyph-name="K" unicode="K" horiz-adv-x="551" 
d="M439 577q68 51 94 51q9 0 31 -8.5t34 -11.5q4 -1 9.5 -10.5t5.5 -15.5t-14 -15.5t-32 -19t-21 -11.5q-211 -148 -286 -205q-6 -5 -18.5 -14t-19.5 -14.5t-17.5 -13.5t-16.5 -13t-12 -11t-8.5 -10.5t-2.5 -7.5q0 -6 23 -11.5t67 -11.5t86 -10.5t103 -11t96 -10.5
q19 -3 19 -20q0 -4 -2 -11.5t-5.5 -14t-7.5 -6.5q-197 11 -436 35q-20 -58 -29 -87q-12 -37 -13 -45q-3 -24 -16 -24q-20 0 -44 -2q-10 0 -30.5 -6.5t-32.5 -6.5q-10 0 -18 21l221 561q17 43 22 66q3 14 15.5 23t24.5 11q63 9 77 9q15 0 24.5 -10.5t9.5 -21.5
q0 -5 -8.5 -21.5t-19.5 -36t-14 -25.5q-54 -118 -90 -203q124 105 252 200z" />
    <glyph glyph-name="L" unicode="L" horiz-adv-x="407" 
d="M-52 65q191 490 191 506q0 4 -8 8t-8 8q0 3 7 17.5t15 31t10 21.5q13 5 35 5q9 0 32.5 6.5t33.5 6.5q29 0 29 -23q0 -25 -10 -54q-78 -238 -184 -483q136 71 275 136q8 3 13 3q6 0 18.5 -3t18.5 -3q13 0 13 -18q0 -6 -5.5 -10t-14.5 -7.5t-11 -5.5q-37 -22 -98 -59.5
t-115.5 -70t-109.5 -61.5q-11 -6 -28 -6q-5 0 -15 0.5t-16 0.5q-43 0 -63 -2q-1 2 -9.5 12t-8.5 16q0 5 6 15.5t7 12.5z" />
    <glyph glyph-name="M" unicode="M" horiz-adv-x="638" 
d="M-86 80q125 276 249 521q13 26 42 55q40 10 56 10q36 0 46 -10q7 -6 7 -28q0 -19 -10 -115t-14 -170q94 169 199 314q15 22 29 30q69 13 73 13q9 0 27 -11t18 -26q0 -14 -2 -26q-11 -81 -68 -333.5t-57 -295.5q0 -5 -11.5 -13.5t-15.5 -8.5q-40 0 -68 5q-17 4 -17 33
q0 17 3 35q14 68 47.5 221.5t50.5 234.5q-162 -253 -198 -392q-6 -25 -15.5 -34.5t-24.5 -9.5q-45 0 -73 7q-15 3 -15 33q0 82 25 368q-83 -175 -176 -408q-1 -2 -2 -17.5t-8 -19.5q-38 -19 -75 -19q-5 0 -9 0.5t-7.5 4l-4.5 4.5t-5.5 7t-5.5 8q0 11 10 33z" />
    <glyph glyph-name="N" unicode="N" horiz-adv-x="540" 
d="M86 48q-4 -13 -48 -26q-31 -9 -55 -9q-19 0 -28 34q95 325 206 594q3 8 32.5 17t46.5 9q20 0 34 -13.5t15 -43.5q3 -141 30 -343q119 365 143 408q6 12 38 21t56 9q13 0 23.5 -9t10.5 -16q0 -4 -18 -37q-69 -130 -193 -569q-67 -35 -87 -35q-18 0 -31 16t-15 42
q-4 43 -20 182.5t-17 202.5q-52 -171 -123 -434z" />
    <glyph glyph-name="O" unicode="O" horiz-adv-x="476" 
d="M155 592q13 0 62 -15q26 29 61 52.5t58 23.5q15 0 51.5 -20.5t50.5 -33.5q17 -19 17 -73q0 -101 -45 -215.5t-115 -187.5q-43 -43 -79 -57t-106 -14q-58 0 -76 29t-18 82q0 104 21.5 205t53.5 162.5t64 61.5zM169 413q-39 -121 -39 -291q115 63 173 236q22 68 28 100
t6 72q0 20 -4 35q-63 -41 -106 -112q-3 -6 -8 -16.5t-7.5 -14t-7.5 -7t-11 -3.5q-2 0 -10.5 0.5t-13.5 0.5z" />
    <glyph glyph-name="P" unicode="P" horiz-adv-x="553" 
d="M-13 25q-10 0 -16 7t-6 17q2 15 14 54q45 183 156 463q-13 -1 -32 -1q-12 0 -18 7q-5 7 -10 21q6 13 83 30q20 44 23 49q5 8 33.5 14.5t56.5 6.5q14 0 24.5 -7.5t10.5 -20.5q0 -9 -8 -31q126 -3 210 -39t84 -85q0 -39 -64 -88t-165.5 -90t-204.5 -58q-28 -89 -38 -133
q-13 -66 -15 -82t-14 -18q-93 -16 -104 -16zM268 572q-40 -87 -90 -236q135 34 205 84t70 89q0 23 -48 42t-137 21z" />
    <glyph glyph-name="Q" unicode="Q" horiz-adv-x="549" 
d="M59 -54q0 27 28 115q-37 7 -50 13q-10 6 -22 30t-12 36q0 142 82 322q-29 21 -39 31q-8 8 -8 24q63 75 148 113.5t154 38.5q80 0 138.5 -52t58.5 -121q0 -93 -51 -185q-50 -88 -132.5 -167t-159.5 -91q-14 -40 -38 -118q-5 -16 -8 -37t-6 -26q-5 -9 -21 -9q-11 0 -18 5
q-17 11 -30.5 35t-13.5 43zM320 388q4 -2 8 -10.5t4 -14.5q0 -10 -5 -17q-48 -75 -92 -183q70 56 124.5 143.5t54.5 186.5q0 103 -74 103q-51 0 -94 -33q-129 -228 -129 -377q0 -18 5 -28q62 154 102 230q4 7 14 14t18 7q9 0 32.5 -8t31.5 -13z" />
    <glyph glyph-name="R" unicode="R" horiz-adv-x="549" 
d="M573 526q0 -25 -23.5 -51t-81.5 -62q-144 -91 -321 -155q134 -28 271 -67q118 -33 118 -51q0 -9 -4.5 -19.5t-9.5 -10.5q-53 0 -151 28q-132 39 -245 63l-61 -165q-56 -15 -102 -15q-9 0 -15 7.5t-6 14.5q0 4 2 8.5t5.5 9.5t4.5 9l56 153q-8 1 -29 5q-32 6 -32 34
q0 9 93 45q10 28 84 220q-7 -1 -21 -1q-43 0 -54 5t-11 27q35 22 113 38l21 53q9 24 16.5 31.5t21.5 7.5q92 0 92 -31q0 -8 -16 -42q38 3 71 3q32 0 64 -3.5t68.5 -12.5t59 -28.5t22.5 -47.5zM261 552q-6 -14 -74 -188q83 32 173.5 89t90.5 81q0 27 -87 27q-49 0 -103 -9z
" />
    <glyph glyph-name="S" unicode="S" horiz-adv-x="541" 
d="M420 352q50 -20 77 -47t27 -55q0 -33 -35 -57q-93 -65 -239.5 -100.5t-267.5 -35.5q-88 0 -88 27q0 21 39 45.5t66 26.5q3 0 4.5 -6.5t2 -16t1.5 -11.5q80 2 223.5 41t144.5 75q1 9 -25 21t-73 29q-4 1 -65 23t-91 35q-47 19 -74.5 46.5t-27.5 57.5q0 54 85 115
q56 40 133 71t132 31q32 0 65 -17t33 -34q-1 -23 -13.5 -41.5t-38.5 -18.5q-76 0 -80 39q-58 -14 -117 -54.5t-59 -65.5q0 -13 15 -25t56 -28q32 -12 99 -36.5t91 -33.5z" />
    <glyph glyph-name="T" unicode="T" horiz-adv-x="386" 
d="M582 732q-48 0 -201 -55q-51 -111 -122.5 -312.5t-89.5 -281.5q-4 -14 -4 -32q0 -37 -113 -37q-7 0 -14 8.5t-7 15.5q0 34 61.5 215t130.5 358q-71 -32 -144 -67q-34 -17 -39 -36q-20 -12 -90 -12q-5 0 -12.5 6.5t-7.5 12.5q0 40 111 93q95 45 216 91l22 52q1 2 2.5 5.5
t2 5.5t1.5 4t2.5 3.5t3.5 2.5t4.5 1.5t6.5 0.5q14 0 42 -6.5t43 -6.5q12 0 14 -14q113 33 163 33q19 0 44 -9t25 -20q0 -8 -5.5 -14.5t-12.5 -6.5q-5 0 -17.5 1t-15.5 1z" />
    <glyph glyph-name="U" unicode="U" horiz-adv-x="566" 
d="M266 618q0 -9 -20.5 -55t-59.5 -155t-74 -246q61 89 128 187t92.5 135t61.5 87t79 106q3 4 14.5 11.5t15.5 7.5q24 0 52 -20.5t28 -44.5q0 -21 -54 -189t-102 -306q-44 -132 -59 -134q-15 0 -42 -5t-35 -5q-27 0 -27 21q0 25 14 61q100 256 141 389q-108 -143 -260 -390
q-13 -21 -36 -21q-40 0 -85.5 19.5t-45.5 43.5q0 57 49.5 217.5t93.5 270.5q12 30 37 33q8 1 32 7t36 6q10 0 18 -9.5t8 -21.5z" />
    <glyph glyph-name="V" unicode="V" horiz-adv-x="430" 
d="M115 647q40 5 66 5q11 0 18.5 -8t7.5 -18q0 -11 -6.5 -35.5t-8.5 -42.5q-22 -247 -27 -287q233 397 265 409q47 17 91 17q10 0 19 -11t9 -20q0 -4 -5.5 -9.5t-14 -13t-12.5 -13.5q-234 -338 -304 -475q-12 -24 -15 -58q-4 -25 -33 -29q-77 -10 -95 -10q-19 0 -30 26
q-4 11 -4 32q0 23 7.5 108t18 198.5t14.5 174.5q2 28 7 36q18 22 32 24z" />
    <glyph glyph-name="W" unicode="W" horiz-adv-x="679" 
d="M745 618q-69 -101 -138.5 -233t-118.5 -257q-16 -42 -20 -48q-3 -6 -35.5 -14.5t-46.5 -8.5q-25 0 -37 7q-19 13 -19 168q0 89 10 206q-28 -57 -69.5 -149t-55.5 -122q-44 -95 -57 -113q-1 -1 -21 -6q-40 -8 -53 -8q-27 0 -36 13q-11 13 -11 49q0 54 11.5 237t14.5 261
q48 23 84 23q17 0 28.5 -10.5t11.5 -27.5q0 -35 -12.5 -160t-14.5 -186q9 20 35.5 77t42 90t39.5 80.5t45 83.5q20 33 32 36q10 3 32 14t29 11q40 0 40 -38q0 -17 -11 -122q-4 -39 -12 -231q105 234 211 414q18 31 42 31q40 0 83 -20q5 -12 5 -21q0 -5 -12.5 -13t-15.5 -13z
" />
    <glyph glyph-name="X" unicode="X" horiz-adv-x="466" 
d="M42 584q-5 10 -5 12q0 15 22 24q66 26 79 26q21 0 34 -40q30 -95 63 -171q27 30 69 77.5t73 81.5t59 62q38 36 71 36q23 0 54.5 -10t31.5 -19q0 -19 -14 -29q-24 -8 -33 -14q-47 -33 -108.5 -96.5t-163.5 -176.5q68 -145 127 -227q3 -5 6 -9t5 -6t4 -3.5t3 -2.5l1.5 -1.5
t0.5 -1.5q0 -6 -4 -26q-76 -24 -94 -24q-22 0 -43 31q-33 46 -94 171q-51 -57 -71.5 -80.5t-51.5 -59.5t-45 -55.5t-20 -33.5q-26 0 -67 12q-9 2 -17.5 11.5t-8.5 17.5q0 19 31 55q85 101 208 226q-48 107 -102 243z" />
    <glyph glyph-name="Y" unicode="Y" horiz-adv-x="447" 
d="M-3 59q48 60 103 134t83 110q-23 -6 -38 -6q-18 0 -32 41q-43 132 -69 264q0 20 19 31q40 23 74 23q23 0 30 -35q17 -90 67 -251q176 248 252 340q11 14 46 14q13 0 38.5 -6t25.5 -10q0 -26 -15 -36q-25 -15 -64 -70q-44 -59 -138.5 -184.5t-165.5 -223t-127 -181.5
q-4 -6 -39 -10.5t-53 -4.5q-8 0 -14 8.5t-6 17.5t23 35z" />
    <glyph glyph-name="Z" unicode="Z" horiz-adv-x="469" 
d="M-35 470q-6 1 -6 6q0 12 1 23q45 38 370 184q27 13 43 13q10 -2 38.5 -15.5t41.5 -17.5q42 -13 42 -30q0 -12 -2 -22q-3 -19 -31 -55q-155 -206 -333 -408q167 82 288 112q13 0 45 -15.5t32 -21.5q0 -5 -4 -14.5t-8 -10.5q-83 -14 -386 -142q-9 -4 -23 -12t-24 -13.5
t-16 -5.5t-33 6q-8 2 -29.5 5t-28.5 6q-9 4 -9 31q0 16 72 101q202 238 353 440q-132 -55 -218 -110q-68 -44 -88 -44q-52 0 -87 10z" />
    <glyph glyph-name="backslash" unicode="\" horiz-adv-x="405" 
d="M105 751q0 9 8.5 17.5t18.5 8.5q5 0 45 -15q9 -96 58 -359.5t87 -386.5q2 -7 11.5 -24.5t9.5 -21.5q0 -15 -51 -35q-32 14 -36 24q-34 86 -92.5 409.5t-58.5 382.5z" />
    <glyph glyph-name="a" unicode="a" horiz-adv-x="456" 
d="M-100 41q0 11 52 121q-42 6 -42 31q0 6 73 38q62 132 137.5 260.5t131.5 181.5q17 16 52.5 25t68.5 9q12 0 23 -15.5t11 -30.5q-24 -142 -33 -289q24 6 39 6q6 0 13 -8t7 -19q0 -3 -2.5 -5t-8.5 -4.5t-12 -4t-17 -5t-19 -6.5q0 -154 7 -228q0 -4 5 -14t5 -16
q0 -20 -25 -24l-26 -5q-27 -5 -42 -5q-29 0 -36 33t-7 129q0 56 1 84q-125 -50 -168 -69q-13 -33 -29 -79t-18 -52q-10 -26 -16 -34.5t-19 -11.5q-72 -16 -81 -16q-8 0 -16.5 8t-8.5 15zM288 599q-64 -81 -170 -319q19 7 141 53q8 136 29 266z" />
    <glyph glyph-name="b" unicode="b" horiz-adv-x="583" 
d="M49 328q42 114 98 234q-15 1 -32.5 9t-17.5 17q0 17 23 25q28 10 61 17l9.5 19t10 20.5t10.5 20.5q19 7 55 16.5t49 9.5q19 0 19 -17q0 -15 -17 -51q6 0 20 0.5t21 0.5q43 0 86.5 -8t81 -32t37.5 -60q0 -25 -16.5 -49t-38.5 -38q-78 -51 -280 -119q50 8 92 8
q126 0 191 -34q39 -20 39 -54q0 -26 -17 -45.5t-63 -50.5q-85 -57 -228 -102.5t-235 -45.5q-12 0 -23 18q-1 2 -10 8.5t-9 11.5q0 21 54 188q-10 4 -26.5 17.5t-16.5 25.5q30 22 73 40zM286 290q-60 0 -128 -13q-36 -96 -58 -183q301 78 301 150q0 20 -30 33t-85 13z
M339 586q-18 0 -56 -4q-52 -111 -86 -199q167 66 216 110q29 25 29 52q0 17 -31.5 29t-71.5 12z" />
    <glyph glyph-name="c" unicode="c" horiz-adv-x="437" 
d="M-32 78q0 73 83.5 290t141.5 293q13 18 54.5 33.5t76.5 15.5q27 0 45 -16t26 -46.5t10.5 -59t2.5 -68.5q0 -11 -28.5 -22.5t-51.5 -11.5q-13 0 -24.5 10t-11.5 23q0 59 -10 89q-56 -94 -119.5 -268t-64.5 -238q96 65 194 165q50 52 90 59q8 1 23.5 13.5t25.5 12.5
q7 0 14.5 -9.5t7.5 -18.5q-203 -216 -258 -264q-62 -54 -170 -54q-33 0 -45 17.5t-12 54.5z" />
    <glyph glyph-name="d" unicode="d" horiz-adv-x="553" 
d="M174 655q13 4 50.5 9t47.5 5q9 0 16 -6t7 -14q0 -4 -18 -38q99 -22 183 -86t84 -135q0 -72 -62.5 -137t-154.5 -104q-133 -57 -245 -84q-11 -28 -22 -34q-19 -8 -50 -15.5t-44 -7.5q-24 0 -24 26q0 3 2 15q-22 1 -29 5t-7 15q0 6 4 14t8 9q15 2 43 8q155 437 171 479
q-19 0 -39 -0.5t-25 -0.5q-6 0 -13.5 8t-7.5 14q1 12 23 21.5t50 9.5q22 0 34 -1q12 23 18 25zM414 383q0 55 -46 100.5t-114 71.5q-72 -197 -147 -417q135 46 221 112.5t86 132.5z" />
    <glyph glyph-name="e" unicode="e" 
d="M72 20q-54 0 -82 3t-36 8.5t-8 15.5q0 7 5.5 20t6.5 16q20 75 42 141q-32 9 -32 19q0 9 9 14q10 7 49 38q32 89 73 177q45 100 68.5 136t53.5 36q33 0 68 -9q40 16 69 30q39 17 61.5 26t59 17.5t72.5 8.5q40 0 40 -12v-4q-167 -57 -329 -171q-31 -58 -60 -119
q92 41 126 53t59 12q80 0 80 -16q0 -2 -2.5 -4t-5 -3t-5.5 -2l-3 -1q-14 -6 -54 -24t-55 -24.5t-47 -21.5t-50.5 -24.5t-43 -23t-46.5 -26.5q-44 -107 -68 -193q160 86 256 145q10 5 27 5q78 0 78 -22q-128 -97 -289 -186q-65 -35 -87 -35z" />
    <glyph glyph-name="f" unicode="f" horiz-adv-x="490" 
d="M-68 212l85 41q41 106 85 202q-21 3 -35 8q-10 4 -19 14.5t-9 19.5q0 6 16.5 16t51 27t49.5 25q29 56 51 92q2 2 15.5 5t23.5 3q13 0 39 -10.5t29 -21.5q127 44 186 44q28 0 65 -13t37 -22q0 -8 -3 -19.5t-8 -12.5q-19 -9 -76 -9q-21 0 -23 9l-3 18q-130 -42 -218 -87
q-56 -104 -107 -226q111 36 188 63q78 26 100 26t34 -7q7 -5 7 -19q0 -2 -2 -4t-6.5 -4.5t-9.5 -5.5t-13.5 -6.5t-15.5 -6.5t-17.5 -7t-18.5 -7.5t-20.5 -8.5t-20.5 -8q-110 -44 -244 -104q-23 -59 -50 -146q0 -1 -2.5 -13t-7 -16t-14.5 -6t-28.5 -6.5t-31.5 -7.5t-18 -3
q-28 0 -28 35q0 3 3 8t4 8l35 104q-38 4 -47 13q-6 5 -8 26z" />
    <glyph glyph-name="g" unicode="g" horiz-adv-x="525" 
d="M179 -124q0 24 42.5 148.5t92.5 236.5q-146 -181 -205 -220q-30 -20 -77 -20q-23 0 -46.5 12t-23.5 34q0 66 42.5 188t108 241.5t123.5 174.5q10 10 58.5 26t78.5 16q31 0 38 -7q13 -14 26 -52t13 -63q0 -11 -28.5 -19t-49.5 -8q-29 0 -33 14q-6 23 -20 56
q-35 -34 -65 -84t-77 -155q99 36 225.5 67t157.5 31q33 0 46.5 -4t13.5 -15q0 -6 -28 -23.5t-35 -18.5q-41 -6 -73 -13q-7 -22 -71 -198t-85 -244q-8 -25 -16 -57l-7 -32q-3 -9 -27 -18q-60 -17 -77 -17q-6 0 -14 7t-8 16zM139 163q131 139 202 217q-106 -33 -202 -72
q-46 -110 -46 -145q0 -5 7 -9t13 -4q13 0 26 13z" />
    <glyph glyph-name="h" unicode="h" horiz-adv-x="529" 
d="M-39 89q85 268 186 534q1 4 3.5 7t4.5 5t6 4t6.5 2.5t9.5 2.5t11 3q46 14 60 14q11 0 21.5 -9.5t10.5 -21.5q0 -6 -3 -12t-8.5 -14t-8.5 -12l-92 -252q97 46 166 68q48 135 103 260q2 5 13 14.5t18 9.5q6 0 43.5 -8t41.5 -13q6 -9 6 -19t-3 -17q-51 -129 -76 -196
q4 0 12.5 0.5t12.5 0.5q44 0 62 -10q2 -1 2 -31q-60 -7 -112 -20q-64 -167 -111 -301q-10 -28 -23 -36q-8 -5 -51.5 -13t-59.5 -8q-3 0 -8 9t-5 12t4.5 10t5.5 8q32 91 94 261q-108 -47 -178 -99q-46 -138 -46 -153q0 -11 17 -21q-9 -40 -34 -40h-93q-9 0 -12 3q-9 5 -9 21
q0 14 13 57z" />
    <glyph glyph-name="i" unicode="i" horiz-adv-x="257" 
d="M51 33q-5 -1 -23.5 -4.5t-27.5 -3.5q-11 0 -23 10t-12 20q0 36 72.5 254.5t151.5 380.5q7 16 99 16q22 0 29 -6t7 -21q0 -7 -12 -12q-47 -76 -122 -294.5t-95 -298.5q-3 -12 -4.5 -17t-6 -11t-12.5 -9t-21 -4z" />
    <glyph glyph-name="j" unicode="j" horiz-adv-x="484" 
d="M9 509q-8 10 -8 32q0 18 88 52t197 62q1 20 11.5 34t24.5 14q10 0 49 -28q110 20 187 20q19 0 40 -5t33.5 -10t12.5 -8q0 -6 -6 -15t-12 -9q-94 0 -217 -26q-19 -134 -69.5 -292t-114.5 -280q-5 -9 -22.5 -17.5t-26.5 -8.5q-16 0 -42 7t-32 14q-6 8 -17 31
q-16 36 -43 123.5t-27 98.5q0 10 28 17t45 7q10 0 18 -22q22 -62 51 -130q45 99 80 214t45 207q-180 -54 -180 -82q0 -4 3 -10.5t3 -8.5t-6 -6.5t-9 -4.5q-18 0 -48 11t-36 19z" />
    <glyph glyph-name="k" unicode="k" horiz-adv-x="551" 
d="M439 577q68 51 94 51q9 0 31 -8.5t34 -11.5q4 -1 9.5 -10.5t5.5 -15.5t-14 -15.5t-32 -19t-21 -11.5q-211 -148 -286 -205q-6 -5 -18.5 -14t-19.5 -14.5t-17.5 -13.5t-16.5 -13t-12 -11t-8.5 -10.5t-2.5 -7.5q0 -6 23 -11.5t67 -11.5t86 -10.5t103 -11t96 -10.5
q19 -3 19 -20q0 -4 -2 -11.5t-5.5 -14t-7.5 -6.5q-197 11 -436 35q-20 -58 -29 -87q-12 -37 -13 -45q-3 -24 -16 -24q-20 0 -44 -2q-10 0 -30.5 -6.5t-32.5 -6.5q-10 0 -18 21l221 561q17 43 22 66q3 14 15.5 23t24.5 11q63 9 77 9q15 0 24.5 -10.5t9.5 -21.5
q0 -5 -8.5 -21.5t-19.5 -36t-14 -25.5q-54 -118 -90 -203q124 105 252 200z" />
    <glyph glyph-name="l" unicode="l" horiz-adv-x="407" 
d="M-52 65q191 490 191 506q0 4 -8 8t-8 8q0 3 7 17.5t15 31t10 21.5q13 5 35 5q9 0 32.5 6.5t33.5 6.5q29 0 29 -23q0 -25 -10 -54q-78 -238 -184 -483q136 71 275 136q8 3 13 3q6 0 18.5 -3t18.5 -3q13 0 13 -18q0 -6 -5.5 -10t-14.5 -7.5t-11 -5.5q-37 -22 -98 -59.5
t-115.5 -70t-109.5 -61.5q-11 -6 -28 -6q-5 0 -15 0.5t-16 0.5q-43 0 -63 -2q-1 2 -9.5 12t-8.5 16q0 5 6 15.5t7 12.5z" />
    <glyph glyph-name="m" unicode="m" horiz-adv-x="638" 
d="M-86 80q125 276 249 521q13 26 42 55q40 10 56 10q36 0 46 -10q7 -6 7 -28q0 -19 -10 -115t-14 -170q94 169 199 314q15 22 29 30q69 13 73 13q9 0 27 -11t18 -26q0 -14 -2 -26q-11 -81 -68 -333.5t-57 -295.5q0 -5 -11.5 -13.5t-15.5 -8.5q-40 0 -68 5q-17 4 -17 33
q0 17 3 35q14 68 47.5 221.5t50.5 234.5q-162 -253 -198 -392q-6 -25 -15.5 -34.5t-24.5 -9.5q-45 0 -73 7q-15 3 -15 33q0 82 25 368q-83 -175 -176 -408q-1 -2 -2 -17.5t-8 -19.5q-38 -19 -75 -19q-5 0 -9 0.5t-7.5 4l-4.5 4.5t-5.5 7t-5.5 8q0 11 10 33z" />
    <glyph glyph-name="n" unicode="n" horiz-adv-x="540" 
d="M86 48q-4 -13 -48 -26q-31 -9 -55 -9q-19 0 -28 34q95 325 206 594q3 8 32.5 17t46.5 9q20 0 34 -13.5t15 -43.5q3 -141 30 -343q119 365 143 408q6 12 38 21t56 9q13 0 23.5 -9t10.5 -16q0 -4 -18 -37q-69 -130 -193 -569q-67 -35 -87 -35q-18 0 -31 16t-15 42
q-4 43 -20 182.5t-17 202.5q-52 -171 -123 -434z" />
    <glyph glyph-name="o" unicode="o" horiz-adv-x="476" 
d="M155 592q13 0 62 -15q26 29 61 52.5t58 23.5q15 0 51.5 -20.5t50.5 -33.5q17 -19 17 -73q0 -101 -45 -215.5t-115 -187.5q-43 -43 -79 -57t-106 -14q-58 0 -76 29t-18 82q0 104 21.5 205t53.5 162.5t64 61.5zM169 413q-39 -121 -39 -291q115 63 173 236q22 68 28 100
t6 72q0 20 -4 35q-63 -41 -106 -112q-3 -6 -8 -16.5t-7.5 -14t-7.5 -7t-11 -3.5q-2 0 -10.5 0.5t-13.5 0.5z" />
    <glyph glyph-name="p" unicode="p" horiz-adv-x="553" 
d="M-13 25q-10 0 -16 7t-6 17q2 15 14 54q45 183 156 463q-13 -1 -32 -1q-12 0 -18 7q-5 7 -10 21q6 13 83 30q20 44 23 49q5 8 33.5 14.5t56.5 6.5q14 0 24.5 -7.5t10.5 -20.5q0 -9 -8 -31q126 -3 210 -39t84 -85q0 -39 -64 -88t-165.5 -90t-204.5 -58q-28 -89 -38 -133
q-13 -66 -15 -82t-14 -18q-93 -16 -104 -16zM268 572q-40 -87 -90 -236q135 34 205 84t70 89q0 23 -48 42t-137 21z" />
    <glyph glyph-name="q" unicode="q" horiz-adv-x="549" 
d="M59 -54q0 27 28 115q-37 7 -50 13q-10 6 -22 30t-12 36q0 142 82 322q-29 21 -39 31q-8 8 -8 24q63 75 148 113.5t154 38.5q80 0 138.5 -52t58.5 -121q0 -93 -51 -185q-50 -88 -132.5 -167t-159.5 -91q-14 -40 -38 -118q-5 -16 -8 -37t-6 -26q-5 -9 -21 -9q-11 0 -18 5
q-17 11 -30.5 35t-13.5 43zM320 388q4 -2 8 -10.5t4 -14.5q0 -10 -5 -17q-48 -75 -92 -183q70 56 124.5 143.5t54.5 186.5q0 103 -74 103q-51 0 -94 -33q-129 -228 -129 -377q0 -18 5 -28q62 154 102 230q4 7 14 14t18 7q9 0 32.5 -8t31.5 -13z" />
    <glyph glyph-name="r" unicode="r" horiz-adv-x="549" 
d="M573 526q0 -25 -23.5 -51t-81.5 -62q-144 -91 -321 -155q134 -28 271 -67q118 -33 118 -51q0 -9 -4.5 -19.5t-9.5 -10.5q-53 0 -151 28q-132 39 -245 63l-61 -165q-56 -15 -102 -15q-9 0 -15 7.5t-6 14.5q0 4 2 8.5t5.5 9.5t4.5 9l56 153q-8 1 -29 5q-32 6 -32 34
q0 9 93 45q10 28 84 220q-7 -1 -21 -1q-43 0 -54 5t-11 27q35 22 113 38l21 53q9 24 16.5 31.5t21.5 7.5q92 0 92 -31q0 -8 -16 -42q38 3 71 3q32 0 64 -3.5t68.5 -12.5t59 -28.5t22.5 -47.5zM261 552q-6 -14 -74 -188q83 32 173.5 89t90.5 81q0 27 -87 27q-49 0 -103 -9z
" />
    <glyph glyph-name="s" unicode="s" horiz-adv-x="541" 
d="M420 352q50 -20 77 -47t27 -55q0 -33 -35 -57q-93 -65 -239.5 -100.5t-267.5 -35.5q-88 0 -88 27q0 21 39 45.5t66 26.5q3 0 4.5 -6.5t2 -16t1.5 -11.5q80 2 223.5 41t144.5 75q1 9 -25 21t-73 29q-4 1 -65 23t-91 35q-47 19 -74.5 46.5t-27.5 57.5q0 54 85 115
q56 40 133 71t132 31q32 0 65 -17t33 -34q-1 -23 -13.5 -41.5t-38.5 -18.5q-76 0 -80 39q-58 -14 -117 -54.5t-59 -65.5q0 -13 15 -25t56 -28q32 -12 99 -36.5t91 -33.5z" />
    <glyph glyph-name="t" unicode="t" horiz-adv-x="386" 
d="M582 732q-48 0 -201 -55q-51 -111 -122.5 -312.5t-89.5 -281.5q-4 -14 -4 -32q0 -37 -113 -37q-7 0 -14 8.5t-7 15.5q0 34 61.5 215t130.5 358q-71 -32 -144 -67q-34 -17 -39 -36q-20 -12 -90 -12q-5 0 -12.5 6.5t-7.5 12.5q0 40 111 93q95 45 216 91l22 52q1 2 2.5 5.5
t2 5.5t1.5 4t2.5 3.5t3.5 2.5t4.5 1.5t6.5 0.5q14 0 42 -6.5t43 -6.5q12 0 14 -14q113 33 163 33q19 0 44 -9t25 -20q0 -8 -5.5 -14.5t-12.5 -6.5q-5 0 -17.5 1t-15.5 1z" />
    <glyph glyph-name="u" unicode="u" horiz-adv-x="566" 
d="M266 618q0 -9 -20.5 -55t-59.5 -155t-74 -246q61 89 128 187t92.5 135t61.5 87t79 106q3 4 14.5 11.5t15.5 7.5q24 0 52 -20.5t28 -44.5q0 -21 -54 -189t-102 -306q-44 -132 -59 -134q-15 0 -42 -5t-35 -5q-27 0 -27 21q0 25 14 61q100 256 141 389q-108 -143 -260 -390
q-13 -21 -36 -21q-40 0 -85.5 19.5t-45.5 43.5q0 57 49.5 217.5t93.5 270.5q12 30 37 33q8 1 32 7t36 6q10 0 18 -9.5t8 -21.5z" />
    <glyph glyph-name="v" unicode="v" horiz-adv-x="430" 
d="M115 647q40 5 66 5q11 0 18.5 -8t7.5 -18q0 -11 -6.5 -35.5t-8.5 -42.5q-22 -247 -27 -287q233 397 265 409q47 17 91 17q10 0 19 -11t9 -20q0 -4 -5.5 -9.5t-14 -13t-12.5 -13.5q-234 -338 -304 -475q-12 -24 -15 -58q-4 -25 -33 -29q-77 -10 -95 -10q-19 0 -30 26
q-4 11 -4 32q0 23 7.5 108t18 198.5t14.5 174.5q2 28 7 36q18 22 32 24z" />
    <glyph glyph-name="w" unicode="w" horiz-adv-x="679" 
d="M745 618q-69 -101 -138.5 -233t-118.5 -257q-16 -42 -20 -48q-3 -6 -35.5 -14.5t-46.5 -8.5q-25 0 -37 7q-19 13 -19 168q0 89 10 206q-28 -57 -69.5 -149t-55.5 -122q-44 -95 -57 -113q-1 -1 -21 -6q-40 -8 -53 -8q-27 0 -36 13q-11 13 -11 49q0 54 11.5 237t14.5 261
q48 23 84 23q17 0 28.5 -10.5t11.5 -27.5q0 -35 -12.5 -160t-14.5 -186q9 20 35.5 77t42 90t39.5 80.5t45 83.5q20 33 32 36q10 3 32 14t29 11q40 0 40 -38q0 -17 -11 -122q-4 -39 -12 -231q105 234 211 414q18 31 42 31q40 0 83 -20q5 -12 5 -21q0 -5 -12.5 -13t-15.5 -13z
" />
    <glyph glyph-name="x" unicode="x" horiz-adv-x="466" 
d="M42 584q-5 10 -5 12q0 15 22 24q66 26 79 26q21 0 34 -40q30 -95 63 -171q27 30 69 77.5t73 81.5t59 62q38 36 71 36q23 0 54.5 -10t31.5 -19q0 -19 -14 -29q-24 -8 -33 -14q-47 -33 -108.5 -96.5t-163.5 -176.5q68 -145 127 -227q3 -5 6 -9t5 -6t4 -3.5t3 -2.5l1.5 -1.5
t0.5 -1.5q0 -6 -4 -26q-76 -24 -94 -24q-22 0 -43 31q-33 46 -94 171q-51 -57 -71.5 -80.5t-51.5 -59.5t-45 -55.5t-20 -33.5q-26 0 -67 12q-9 2 -17.5 11.5t-8.5 17.5q0 19 31 55q85 101 208 226q-48 107 -102 243z" />
    <glyph glyph-name="y" unicode="y" horiz-adv-x="447" 
d="M-3 59q48 60 103 134t83 110q-23 -6 -38 -6q-18 0 -32 41q-43 132 -69 264q0 20 19 31q40 23 74 23q23 0 30 -35q17 -90 67 -251q176 248 252 340q11 14 46 14q13 0 38.5 -6t25.5 -10q0 -26 -15 -36q-25 -15 -64 -70q-44 -59 -138.5 -184.5t-165.5 -223t-127 -181.5
q-4 -6 -39 -10.5t-53 -4.5q-8 0 -14 8.5t-6 17.5t23 35z" />
    <glyph glyph-name="z" unicode="z" horiz-adv-x="469" 
d="M-35 470q-6 1 -6 6q0 12 1 23q45 38 370 184q27 13 43 13q10 -2 38.5 -15.5t41.5 -17.5q42 -13 42 -30q0 -12 -2 -22q-3 -19 -31 -55q-155 -206 -333 -408q167 82 288 112q13 0 45 -15.5t32 -21.5q0 -5 -4 -14.5t-8 -10.5q-83 -14 -386 -142q-9 -4 -23 -12t-24 -13.5
t-16 -5.5t-33 6q-8 2 -29.5 5t-28.5 6q-9 4 -9 31q0 16 72 101q202 238 353 440q-132 -55 -218 -110q-68 -44 -88 -44q-52 0 -87 10z" />
    <glyph glyph-name="uni00A0" unicode="&#xa0;" horiz-adv-x="245" 
 />
    <glyph glyph-name="exclamdown" unicode="&#xa1;" horiz-adv-x="296" 
d="M73 20q-43 -11 -86 -11q-5 0 -14 6t-9 12t1 11t7 21.5t12 37.5q42 142 131 384q11 29 48 35q23 4 70 4q4 0 10.5 -9.5t6.5 -15.5q0 -4 -3.5 -13.5t-10 -24t-9.5 -24.5q-68 -191 -114 -362q-12 -44 -40 -51zM301 617q-13 -18 -97 -18q-14 0 -27 11.5t-13 22.5
q0 21 11.5 40.5t25.5 21.5q33 6 93 6q7 0 14.5 -7t7.5 -14q0 -44 -15 -63z" />
    <glyph glyph-name="cent" unicode="&#xa2;" horiz-adv-x="508" 
d="M489 530q0 -9 -23 -25.5t-42 -16.5q-10 0 -33 15q-25 14 -42 14q-68 -213 -106 -347q40 3 98 22q16 5 34.5 12.5t30.5 12t15 4.5q8 0 16 -14.5t8 -23.5q0 -8 -24 -24.5t-61 -31.5q-74 -30 -138 -35q-30 -108 -30 -141q-6 -2 -19 -8t-21.5 -9t-16.5 -3q-7 0 -14 8t-7 16
q0 32 30 136q-72 6 -110 45.5t-38 101.5q0 113 91.5 218.5t210.5 126.5l46 147q7 19 30 19q14 0 28 -7q13 -7 19 -27q-16 -31 -49 -128q68 -7 102 -24q5 -2 10 -13.5t5 -19.5zM170 178q12 38 46 143.5t54 168.5q-60 -38 -106.5 -108t-46.5 -125q0 -59 53 -79z" />
    <glyph glyph-name="sterling" unicode="&#xa3;" horiz-adv-x="631" 
d="M-70 219q44 17 178 52l32 73q-55 -16 -90 -30q-11 0 -43 12t-32 21q0 21 74 41q86 24 125 34q51 117 51 132q0 4 -7.5 12t-7.5 17q0 10 24 58.5t34 61.5q9 12 46.5 24.5t65.5 12.5q18 0 30.5 -9.5t12.5 -23.5q0 -8 -104 -246l149 39q58 15 72 15q8 0 23.5 -6t20.5 -11
q7 -7 7 -24q-160 -49 -305 -90l-32 -73q209 56 230 56q8 0 29.5 -7t21.5 -14q0 -11 -17.5 -20.5t-64.5 -23.5q-127 -39 -233 -69l-60 -140q312 107 333 107q14 0 45.5 -10t32.5 -19q0 -25 -13 -25q-26 0 -134 -43q-296 -118 -337 -118q-17 0 -42.5 9t-29.5 17q-5 10 -5 33
l65 149q-5 -2 -18.5 -8t-25.5 -10t-19 -4q-12 3 -37 8.5t-33 8.5q-9 4 -12 31z" />
    <glyph glyph-name="yen" unicode="&#xa5;" horiz-adv-x="538" 
d="M-21 301q0 10 5 12q22 9 196 34q-62 288 -62 314q0 11 8 16q14 8 49.5 20t46.5 12q7 0 16 -7t10 -18q23 -177 34 -247q81 102 183 219q33 37 65.5 55t83.5 18q5 0 14 -10.5t9 -15.5q0 -3 -4.5 -8t-9.5 -9t-12 -10t-8 -7q-124 -124 -268 -299q115 15 172 15q8 0 16 -5
t8 -13q0 -7 -13 -17.5t-32 -13.5q-71 -9 -180 -27q-7 -22 -19 -66q125 17 178 17q8 0 18.5 -9t10.5 -17q0 -4 -10 -11t-19 -7q-29 0 -194 -29q-31 -111 -44 -155q-14 -9 -57.5 -17.5t-55.5 -8.5q-9 0 -15 5t-6 11q0 14 41 139l-155 -31q-3 0 -18.5 15.5t-17.5 20.5
q0 12 5 14q4 3 205 39q3 11 22 67q-31 -5 -81 -13t-72 -12q-6 0 -24.5 18t-18.5 22z" />
    <glyph glyph-name="guillemotleft" unicode="&#xab;" horiz-adv-x="643" 
d="M552 147q0 -28 -11 -37q-46 -38 -64 -38q-20 0 -26 8q-49 63 -89.5 107.5t-119.5 122.5q2 15 12 34.5t21 27.5q144 94 290 210q21 17 37 17q7 0 29 -13t22 -32q0 -8 -10 -24.5t-18 -22.5q-112 -81 -258 -170q119 -106 185 -190zM303 133q-11 -16 -37 -28q-24 -33 -39 -33
q-20 0 -26 8q-56 78 -91.5 120t-107.5 115q2 10 13.5 33.5t18.5 28.5q142 96 281 215q20 17 37 17q7 0 29 -13t22 -32q0 -15 -42 -47q-100 -80 -243 -179q135 -135 185 -205z" />
    <glyph glyph-name="uni00AD" unicode="&#xad;" horiz-adv-x="487" 
d="M367 317q-53 -6 -130.5 -18t-133 -21t-66.5 -9t-21 8.5t-10 17.5q0 20 12 37q33 11 178.5 32.5t213.5 21.5q5 0 14 -10t9 -17q0 -22 -12 -31q-11 -7 -54 -11z" />
    <glyph glyph-name="degree" unicode="&#xb0;" horiz-adv-x="366" 
d="M272 691q46 0 72.5 -28t26.5 -76q0 -87 -56 -146.5t-131 -59.5q-49 0 -77 28.5t-28 76.5q0 83 59.5 144t133.5 61zM199 451q35 0 61.5 34t26.5 84t-38 50q-34 0 -60 -34t-26 -85q0 -22 9.5 -35.5t26.5 -13.5z" />
    <glyph glyph-name="periodcentered" unicode="&#xb7;" horiz-adv-x="260" 
d="M67 376q19 19 75 19q33 0 39 -24q-2 -71 -31 -78q-31 -10 -68 -10q-22 0 -36 23q0 17 6 39.5t15 30.5z" />
    <glyph glyph-name="guillemotright" unicode="&#xbb;" horiz-adv-x="643" 
d="M77 558q7 14 35.5 37.5t40.5 23.5q20 0 26 -8q50 -68 86 -109t113 -121q-2 -10 -13.5 -33.5t-18.5 -28.5q-80 -52 -132.5 -93.5t-138.5 -116.5q-20 -17 -37 -17t-39 13q-19 11 -19 42q0 3 2.5 7t8.5 9.5t10 9t14 11l14 10.5q108 85 230 163q-47 36 -100.5 95t-81.5 106z
M338 544q0 28 11 37q46 38 64 38q20 0 26 -8q65 -99 169 -225q5 -18 5 -35q0 -6 -6.5 -19.5t-11.5 -17.5q-163 -116 -276 -215q-18 -17 -41 -17q-18 0 -37.5 14t-25.5 36q153 125 296 221q-116 114 -173 191z" />
    <glyph glyph-name="questiondown" unicode="&#xbf;" horiz-adv-x="531" 
d="M432 149q-53 -59 -149 -95.5t-192 -36.5q-75 0 -117 21.5t-42 63.5t44.5 91t151.5 129q85 64 126 142q9 18 26 20q72 12 75 12q11 0 20 -9.5t9 -19.5q-19 -91 -164 -207q-145 -114 -145 -149q0 -12 15.5 -21t45.5 -9q88 0 197 109q13 13 42.5 26.5t44.5 13.5
q16 0 25.5 -13t9.5 -28q0 -17 -23 -40zM411 653q7 -17 7 -45q0 -13 -41 -26t-74 -13q-14 0 -22.5 22.5t-8.5 45.5q0 13 36.5 24t71.5 11q9 0 19.5 -6t11.5 -13z" />
    <glyph glyph-name="Agrave" unicode="&#xc0;" horiz-adv-x="456" 
d="M-100 41q0 11 52 121q-42 6 -42 31q0 6 73 38q62 132 137.5 260.5t131.5 181.5q17 16 52.5 25t68.5 9q12 0 23 -15.5t11 -30.5q-24 -142 -33 -289q24 6 39 6q6 0 13 -8t7 -19q0 -3 -2.5 -5t-8.5 -4.5t-12 -4t-17 -5t-19 -6.5q0 -154 7 -228q0 -4 5 -14t5 -16
q0 -20 -25 -24l-26 -5q-27 -5 -42 -5q-29 0 -36 33t-7 129q0 56 1 84q-125 -50 -168 -69q-13 -33 -29 -79t-18 -52q-10 -26 -16 -34.5t-19 -11.5q-72 -16 -81 -16q-8 0 -16.5 8t-8.5 15zM288 599q-64 -81 -170 -319q19 7 141 53q8 136 29 266zM176 899q0 17 3 23
q2 7 35.5 20t45.5 13q7 0 15 -11q106 -137 106 -140q0 -6 -4 -15.5t-10 -10.5q-29 -7 -52 -7q-20 0 -40 20q-85 85 -99 108z" />
    <glyph glyph-name="Aacute" unicode="&#xc1;" horiz-adv-x="456" 
d="M-100 41q0 11 52 121q-42 6 -42 31q0 6 73 38q62 132 137.5 260.5t131.5 181.5q17 16 52.5 25t68.5 9q12 0 23 -15.5t11 -30.5q-24 -142 -33 -289q24 6 39 6q6 0 13 -8t7 -19q0 -3 -2.5 -5t-8.5 -4.5t-12 -4t-17 -5t-19 -6.5q0 -154 7 -228q0 -4 5 -14t5 -16
q0 -20 -25 -24l-26 -5q-27 -5 -42 -5q-29 0 -36 33t-7 129q0 56 1 84q-125 -50 -168 -69q-13 -33 -29 -79t-18 -52q-10 -26 -16 -34.5t-19 -11.5q-72 -16 -81 -16q-8 0 -16.5 8t-8.5 15zM288 599q-64 -81 -170 -319q19 7 141 53q8 136 29 266zM268 793q0 16 9 24
q107 83 163 118q12 7 20 7q11 0 44 -7.5t47 -12.5q4 -2 4 -27q0 -5 -23 -18q-60 -39 -171 -101q-7 -4 -20 -4q-2 0 -17.5 0.5t-36.5 0.5q-5 0 -12 6.5t-7 13.5z" />
    <glyph glyph-name="Acircumflex" unicode="&#xc2;" horiz-adv-x="456" 
d="M-100 41q0 11 52 121q-42 6 -42 31q0 6 73 38q62 132 137.5 260.5t131.5 181.5q17 16 52.5 25t68.5 9q12 0 23 -15.5t11 -30.5q-24 -142 -33 -289q24 6 39 6q6 0 13 -8t7 -19q0 -3 -2.5 -5t-8.5 -4.5t-12 -4t-17 -5t-19 -6.5q0 -154 7 -228q0 -4 5 -14t5 -16
q0 -20 -25 -24l-26 -5q-27 -5 -42 -5q-29 0 -36 33t-7 129q0 56 1 84q-125 -50 -168 -69q-13 -33 -29 -79t-18 -52q-10 -26 -16 -34.5t-19 -11.5q-72 -16 -81 -16q-8 0 -16.5 8t-8.5 15zM288 599q-64 -81 -170 -319q19 7 141 53q8 136 29 266zM173 783q0 7 5 11
q18 17 126 125q23 23 46 30q30 9 54 9q10 0 20.5 -9t14.5 -18q6 -13 20 -49.5t21 -50.5q2 -3 2 -11q0 -21 -16 -27q-42 -10 -55 -10q-6 0 -14 5.5t-10 11.5q-9 19 -27 79q-2 -2 -26 -29.5t-35 -38.5q-7 -7 -13 -18t-9 -13q-10 -7 -38 -11.5t-46 -4.5q-5 0 -12.5 6.5
t-7.5 12.5z" />
    <glyph glyph-name="Atilde" unicode="&#xc3;" horiz-adv-x="456" 
d="M-100 41q0 11 52 121q-42 6 -42 31q0 6 73 38q62 132 137.5 260.5t131.5 181.5q17 16 52.5 25t68.5 9q12 0 23 -15.5t11 -30.5q-24 -142 -33 -289q24 6 39 6q6 0 13 -8t7 -19q0 -3 -2.5 -5t-8.5 -4.5t-12 -4t-17 -5t-19 -6.5q0 -154 7 -228q0 -4 5 -14t5 -16
q0 -20 -25 -24l-26 -5q-27 -5 -42 -5q-29 0 -36 33t-7 129q0 56 1 84q-125 -50 -168 -69q-13 -33 -29 -79t-18 -52q-10 -26 -16 -34.5t-19 -11.5q-72 -16 -81 -16q-8 0 -16.5 8t-8.5 15zM288 599q-64 -81 -170 -319q19 7 141 53q8 136 29 266zM555 933q0 -13 -39 -61.5
t-64 -67.5q-15 -11 -84 -11q-8 0 -17 7q-10 9 -26.5 37t-24.5 36q-20 -28 -40 -75q-6 -12 -37 -23.5t-49 -11.5q-6 0 -10.5 4t-4.5 9q0 23 35 75t65 68q34 18 69 18q17 0 32 -10q6 -4 14 -15t19 -28.5t19 -27.5q10 13 21.5 30t18 26.5t9.5 11.5q11 7 38 16t40 9q6 0 11 -5.5
t5 -10.5z" />
    <glyph glyph-name="Adieresis" unicode="&#xc4;" horiz-adv-x="456" 
d="M-100 41q0 11 52 121q-42 6 -42 31q0 6 73 38q62 132 137.5 260.5t131.5 181.5q17 16 52.5 25t68.5 9q12 0 23 -15.5t11 -30.5q-24 -142 -33 -289q24 6 39 6q6 0 13 -8t7 -19q0 -3 -2.5 -5t-8.5 -4.5t-12 -4t-17 -5t-19 -6.5q0 -154 7 -228q0 -4 5 -14t5 -16
q0 -20 -25 -24l-26 -5q-27 -5 -42 -5q-29 0 -36 33t-7 129q0 56 1 84q-125 -50 -168 -69q-13 -33 -29 -79t-18 -52q-10 -26 -16 -34.5t-19 -11.5q-72 -16 -81 -16q-8 0 -16.5 8t-8.5 15zM288 599q-64 -81 -170 -319q19 7 141 53q8 136 29 266zM313 851q0 -24 -10 -44
t-21 -23q-38 -10 -62 -10q-16 0 -26.5 8.5t-10.5 23.5q0 16 10 40t20 27q38 10 71 10q11 0 20 -10t9 -22zM473 807q-18 -15 -73 -15q-13 0 -24.5 11.5t-11.5 23.5q0 15 7 35.5t16 23.5q27 11 65 11q15 0 27 -6.5t12 -18.5q0 -17 -5.5 -37.5t-12.5 -27.5z" />
    <glyph glyph-name="Aring" unicode="&#xc5;" horiz-adv-x="456" 
d="M-100 41q0 11 52 121q-42 6 -42 31q0 6 73 38q62 132 137.5 260.5t131.5 181.5q17 16 52.5 25t68.5 9q12 0 23 -15.5t11 -30.5q-24 -142 -33 -289q24 6 39 6q6 0 13 -8t7 -19q0 -3 -2.5 -5t-8.5 -4.5t-12 -4t-17 -5t-19 -6.5q0 -154 7 -228q0 -4 5 -14t5 -16
q0 -20 -25 -24l-26 -5q-27 -5 -42 -5q-29 0 -36 33t-7 129q0 56 1 84q-125 -50 -168 -69q-13 -33 -29 -79t-18 -52q-10 -26 -16 -34.5t-19 -11.5q-72 -16 -81 -16q-8 0 -16.5 8t-8.5 15zM288 599q-64 -81 -170 -319q19 7 141 53q8 136 29 266zM372 981q45 0 72 -24.5
t27 -64.5q0 -55 -49.5 -96t-109.5 -41q-47 0 -70.5 23t-23.5 63q0 53 45.5 96.5t108.5 43.5zM325 807q27 0 48.5 25.5t21.5 57.5q0 16 -9.5 28.5t-25.5 12.5q-24 0 -46 -29.5t-22 -55.5q0 -39 33 -39z" />
    <glyph glyph-name="AE" unicode="&#xc6;" horiz-adv-x="740" 
d="M-46 37q-21 -7 -63 -7q-5 0 -14 8t-9 15q-1 6 23.5 49.5t52.5 84.5q125 183 226 294t203 173q36 21 98 21q19 0 35.5 -14t20.5 -26q148 58 208 58q13 0 44 -14.5t31 -24.5q0 -6 -7 -14t-13 -8q-5 0 -21.5 0.5t-22.5 0.5q-54 0 -251 -84q-24 -69 -55 -176q180 64 206 64
q27 0 64 -13q-10 -28 -17 -30q-102 -33 -276 -96l-54 -183q99 44 221 89q55 20 78 20q18 0 38 -8q28 -11 28 -19q0 -3 -4 -10.5t-7 -8.5q-40 -6 -58 -13q-164 -64 -254 -107q-82 -41 -114 -41q-8 0 -17 1.5t-20 5t-17 4.5q-17 3 -17 20q0 3 7 26q23 76 53 182
q-47 -15 -128.5 -43t-95.5 -33q-36 -58 -50 -92q-16 -40 -52 -51zM370 557q-151 -146 -254 -289q142 45 186 60q1 2 29 94t42 134z" />
    <glyph glyph-name="Ccedilla" unicode="&#xc7;" horiz-adv-x="437" 
d="M-32 78q0 73 83.5 290t141.5 293q13 18 54.5 33.5t76.5 15.5q27 0 45 -16t26 -46.5t10.5 -59t2.5 -68.5q0 -11 -28.5 -22.5t-51.5 -11.5q-13 0 -24.5 10t-11.5 23q0 59 -10 89q-56 -94 -119.5 -268t-64.5 -238q96 65 194 165q50 52 90 59q8 1 23.5 13.5t25.5 12.5
q7 0 14.5 -9.5t7.5 -18.5q-53 -60 -129 -138t-126 -123l-31 -88q77 -13 96 -29q5 -3 9.5 -25.5t4.5 -34.5q0 -37 -65 -74.5t-146 -37.5q-56 0 -75 19q0 10 6 18.5t12 10.5q62 6 114.5 26t74.5 46q-16 3 -38.5 7t-29.5 5q-10 1 -21 18.5t-11 31.5q0 20 18 60q-35 -10 -91 -10
q-33 0 -45 17.5t-12 54.5z" />
    <glyph glyph-name="Egrave" unicode="&#xc8;" 
d="M72 20q-54 0 -82 3t-36 8.5t-8 15.5q0 7 5.5 20t6.5 16q20 75 42 141q-32 9 -32 19q0 9 9 14q10 7 49 38q32 89 73 177q45 100 68.5 136t53.5 36q33 0 68 -9q40 16 69 30q39 17 61.5 26t59 17.5t72.5 8.5q40 0 40 -12v-4q-167 -57 -329 -171q-31 -58 -60 -119
q92 41 126 53t59 12q80 0 80 -16q0 -2 -2.5 -4t-5 -3t-5.5 -2l-3 -1q-14 -6 -54 -24t-55 -24.5t-47 -21.5t-50.5 -24.5t-43 -23t-46.5 -26.5q-44 -107 -68 -193q160 86 256 145q10 5 27 5q78 0 78 -22q-128 -97 -289 -186q-65 -35 -87 -35zM200 899q0 17 3 23q2 7 35.5 20
t45.5 13q7 0 15 -11q106 -137 106 -140q0 -6 -4 -15.5t-10 -10.5q-29 -7 -52 -7q-20 0 -40 20q-85 85 -99 108z" />
    <glyph glyph-name="Eacute" unicode="&#xc9;" 
d="M72 20q-54 0 -82 3t-36 8.5t-8 15.5q0 7 5.5 20t6.5 16q20 75 42 141q-32 9 -32 19q0 9 9 14q10 7 49 38q32 89 73 177q45 100 68.5 136t53.5 36q33 0 68 -9q40 16 69 30q39 17 61.5 26t59 17.5t72.5 8.5q40 0 40 -12v-4q-167 -57 -329 -171q-31 -58 -60 -119
q92 41 126 53t59 12q80 0 80 -16q0 -2 -2.5 -4t-5 -3t-5.5 -2l-3 -1q-14 -6 -54 -24t-55 -24.5t-47 -21.5t-50.5 -24.5t-43 -23t-46.5 -26.5q-44 -107 -68 -193q160 86 256 145q10 5 27 5q78 0 78 -22q-128 -97 -289 -186q-65 -35 -87 -35zM292 793q0 16 9 24
q107 83 163 118q12 7 20 7q11 0 44 -7.5t47 -12.5q4 -2 4 -27q0 -5 -23 -18q-60 -39 -171 -101q-7 -4 -20 -4q-2 0 -17.5 0.5t-36.5 0.5q-5 0 -12 6.5t-7 13.5z" />
    <glyph glyph-name="Ecircumflex" unicode="&#xca;" 
d="M72 20q-54 0 -82 3t-36 8.5t-8 15.5q0 7 5.5 20t6.5 16q20 75 42 141q-32 9 -32 19q0 9 9 14q10 7 49 38q32 89 73 177q45 100 68.5 136t53.5 36q33 0 68 -9q40 16 69 30q39 17 61.5 26t59 17.5t72.5 8.5q40 0 40 -12v-4q-167 -57 -329 -171q-31 -58 -60 -119
q92 41 126 53t59 12q80 0 80 -16q0 -2 -2.5 -4t-5 -3t-5.5 -2l-3 -1q-14 -6 -54 -24t-55 -24.5t-47 -21.5t-50.5 -24.5t-43 -23t-46.5 -26.5q-44 -107 -68 -193q160 86 256 145q10 5 27 5q78 0 78 -22q-128 -97 -289 -186q-65 -35 -87 -35zM197 783q0 7 5 11q18 17 126 125
q23 23 46 30q30 9 54 9q10 0 20.5 -9t14.5 -18q6 -13 20 -49.5t21 -50.5q2 -3 2 -11q0 -21 -16 -27q-42 -10 -55 -10q-6 0 -14 5.5t-10 11.5q-9 19 -27 79q-2 -2 -26 -29.5t-35 -38.5q-7 -7 -13 -18t-9 -13q-10 -7 -38 -11.5t-46 -4.5q-5 0 -12.5 6.5t-7.5 12.5z" />
    <glyph glyph-name="Edieresis" unicode="&#xcb;" 
d="M72 20q-54 0 -82 3t-36 8.5t-8 15.5q0 7 5.5 20t6.5 16q20 75 42 141q-32 9 -32 19q0 9 9 14q10 7 49 38q32 89 73 177q45 100 68.5 136t53.5 36q33 0 68 -9q40 16 69 30q39 17 61.5 26t59 17.5t72.5 8.5q40 0 40 -12v-4q-167 -57 -329 -171q-31 -58 -60 -119
q92 41 126 53t59 12q80 0 80 -16q0 -2 -2.5 -4t-5 -3t-5.5 -2l-3 -1q-14 -6 -54 -24t-55 -24.5t-47 -21.5t-50.5 -24.5t-43 -23t-46.5 -26.5q-44 -107 -68 -193q160 86 256 145q10 5 27 5q78 0 78 -22q-128 -97 -289 -186q-65 -35 -87 -35zM337 851q0 -24 -10 -44t-21 -23
q-38 -10 -62 -10q-16 0 -26.5 8.5t-10.5 23.5q0 16 10 40t20 27q38 10 71 10q11 0 20 -10t9 -22zM497 807q-18 -15 -73 -15q-13 0 -24.5 11.5t-11.5 23.5q0 15 7 35.5t16 23.5q27 11 65 11q15 0 27 -6.5t12 -18.5q0 -17 -5.5 -37.5t-12.5 -27.5z" />
    <glyph glyph-name="Igrave" unicode="&#xcc;" horiz-adv-x="257" 
d="M51 33q-5 -1 -23.5 -4.5t-27.5 -3.5q-11 0 -23 10t-12 20q0 36 72.5 254.5t151.5 380.5q7 16 99 16q22 0 29 -6t7 -21q0 -7 -12 -12q-47 -76 -122 -294.5t-95 -298.5q-3 -12 -4.5 -17t-6 -11t-12.5 -9t-21 -4zM131 899q0 17 3 23q2 7 35.5 20t45.5 13q7 0 15 -11
q106 -137 106 -140q0 -6 -4 -15.5t-10 -10.5q-29 -7 -52 -7q-20 0 -40 20q-85 85 -99 108z" />
    <glyph glyph-name="Iacute" unicode="&#xcd;" horiz-adv-x="257" 
d="M51 33q-5 -1 -23.5 -4.5t-27.5 -3.5q-11 0 -23 10t-12 20q0 36 72.5 254.5t151.5 380.5q7 16 99 16q22 0 29 -6t7 -21q0 -7 -12 -12q-47 -76 -122 -294.5t-95 -298.5q-3 -12 -4.5 -17t-6 -11t-12.5 -9t-21 -4zM223 793q0 16 9 24q107 83 163 118q12 7 20 7q11 0 44 -7.5
t47 -12.5q4 -2 4 -27q0 -5 -23 -18q-60 -39 -171 -101q-7 -4 -20 -4q-2 0 -17.5 0.5t-36.5 0.5q-6 0 -12.5 6.5t-6.5 13.5z" />
    <glyph glyph-name="Icircumflex" unicode="&#xce;" horiz-adv-x="257" 
d="M51 33q-5 -1 -23.5 -4.5t-27.5 -3.5q-11 0 -23 10t-12 20q0 36 72.5 254.5t151.5 380.5q7 16 99 16q22 0 29 -6t7 -21q0 -7 -12 -12q-47 -76 -122 -294.5t-95 -298.5q-3 -12 -4.5 -17t-6 -11t-12.5 -9t-21 -4zM128 783q0 7 5 11q18 17 126 125q23 23 46 30q30 9 54 9
q10 0 20.5 -9t14.5 -18q6 -13 20 -49.5t21 -50.5q2 -3 2 -11q0 -21 -16 -27q-43 -10 -55 -10q-6 0 -14 5.5t-10 11.5q-9 19 -27 79q-2 -2 -26 -29.5t-35 -38.5q-7 -7 -13 -18t-9 -13q-10 -7 -38 -11.5t-46 -4.5q-5 0 -12.5 6.5t-7.5 12.5z" />
    <glyph glyph-name="Idieresis" unicode="&#xcf;" horiz-adv-x="257" 
d="M51 33q-5 -1 -23.5 -4.5t-27.5 -3.5q-11 0 -23 10t-12 20q0 36 72.5 254.5t151.5 380.5q7 16 99 16q22 0 29 -6t7 -21q0 -7 -12 -12q-47 -76 -122 -294.5t-95 -298.5q-3 -12 -4.5 -17t-6 -11t-12.5 -9t-21 -4zM268 851q0 -24 -10 -44t-21 -23q-38 -10 -62 -10
q-16 0 -26.5 8.5t-10.5 23.5q0 16 10 40t20 27q38 10 71 10q11 0 20 -10t9 -22zM428 807q-18 -15 -73 -15q-13 0 -24.5 11.5t-11.5 23.5q0 15 7 35.5t16 23.5q28 11 65 11q15 0 27 -6.5t12 -18.5q0 -17 -5.5 -37.5t-12.5 -27.5z" />
    <glyph glyph-name="Eth" unicode="&#xd0;" horiz-adv-x="600" 
d="M221 655q13 4 50.5 9t47.5 5q9 0 16 -6t7 -14q0 -4 -18 -38q59 -14 105 -37q63 -32 112.5 -80t49.5 -104q0 -63 -46 -119t-121 -95.5t-147 -65.5t-147 -43q-12 -30 -23 -36q-19 -8 -50 -15.5t-44 -7.5q-24 0 -24 26q0 3 2 15q-22 1 -29 5t-7 15q0 6 4 14t8 9q15 2 43 8
l70 199q-58 -11 -75 -11q-11 0 -21 8.5t-10 17.5q0 20 12 37q19 7 121 24q44 124 74 204q-19 0 -39 -0.5t-25 -0.5t-13 8t-8 14q1 12 23 21.5t50 9.5q5 0 17 -0.5t17 -0.5q12 23 18 25zM461 383q0 55 -46 100.5t-114 71.5l-58 -162q63 7 96 7q5 0 14 -10t9 -17
q0 -22 -12 -31q-11 -7 -54 -11q-50 -6 -79 -10q-13 -37 -37 -107.5t-26 -75.5q135 46 221 112.5t86 132.5z" />
    <glyph glyph-name="Ntilde" unicode="&#xd1;" horiz-adv-x="540" 
d="M86 48q-4 -13 -48 -26q-31 -9 -55 -9q-19 0 -28 34q95 325 206 594q3 8 32.5 17t46.5 9q20 0 34 -13.5t15 -43.5q3 -141 30 -343q119 365 143 408q6 12 38 21t56 9q13 0 23.5 -9t10.5 -16q0 -4 -18 -37q-69 -130 -193 -569q-67 -35 -87 -35q-18 0 -31 16t-15 42
q-4 43 -20 182.5t-17 202.5q-52 -171 -123 -434zM602 913q0 -13 -39 -61.5t-64 -67.5q-15 -11 -84 -11q-8 0 -17 7q-10 9 -26.5 37t-24.5 36q-20 -28 -40 -75q-6 -12 -37 -23.5t-49 -11.5q-6 0 -10.5 4t-4.5 9q0 23 35 75t65 68q34 18 69 18q17 0 32 -10q6 -4 14 -15
t19 -28.5t19 -27.5q10 13 21.5 30t18 26.5t9.5 11.5q11 7 37.5 16t40.5 9q6 0 11 -5.5t5 -10.5z" />
    <glyph glyph-name="Ograve" unicode="&#xd2;" horiz-adv-x="476" 
d="M155 592q13 0 62 -15q26 29 61 52.5t58 23.5q15 0 51.5 -20.5t50.5 -33.5q17 -19 17 -73q0 -101 -45 -215.5t-115 -187.5q-43 -43 -79 -57t-106 -14q-58 0 -76 29t-18 82q0 104 21.5 205t53.5 162.5t64 61.5zM169 413q-39 -121 -39 -291q115 63 173 236q22 68 28 100
t6 72q0 20 -4 35q-63 -41 -106 -112q-3 -6 -8 -16.5t-7.5 -14t-7.5 -7t-11 -3.5q-2 0 -10.5 0.5t-13.5 0.5zM135 839q0 17 3 23q2 7 35.5 20t45.5 13q7 0 15 -11q106 -137 106 -140q0 -6 -4 -15.5t-10 -10.5q-29 -7 -52 -7q-20 0 -40 20q-85 85 -99 108z" />
    <glyph glyph-name="Oacute" unicode="&#xd3;" horiz-adv-x="476" 
d="M155 592q13 0 62 -15q26 29 61 52.5t58 23.5q15 0 51.5 -20.5t50.5 -33.5q17 -19 17 -73q0 -101 -45 -215.5t-115 -187.5q-43 -43 -79 -57t-106 -14q-58 0 -76 29t-18 82q0 104 21.5 205t53.5 162.5t64 61.5zM169 413q-39 -121 -39 -291q115 63 173 236q22 68 28 100
t6 72q0 20 -4 35q-63 -41 -106 -112q-3 -6 -8 -16.5t-7.5 -14t-7.5 -7t-11 -3.5q-2 0 -10.5 0.5t-13.5 0.5zM227 733q0 16 9 24q107 83 163 118q12 7 20 7q11 0 44 -7.5t47 -12.5q4 -2 4 -27q0 -5 -23 -18q-60 -39 -171 -101q-7 -4 -20 -4q-2 0 -17.5 0.5t-36.5 0.5
q-6 0 -12.5 6.5t-6.5 13.5z" />
    <glyph glyph-name="Ocircumflex" unicode="&#xd4;" horiz-adv-x="476" 
d="M155 592q13 0 62 -15q26 29 61 52.5t58 23.5q15 0 51.5 -20.5t50.5 -33.5q17 -19 17 -73q0 -101 -45 -215.5t-115 -187.5q-43 -43 -79 -57t-106 -14q-58 0 -76 29t-18 82q0 104 21.5 205t53.5 162.5t64 61.5zM169 413q-39 -121 -39 -291q115 63 173 236q22 68 28 100
t6 72q0 20 -4 35q-63 -41 -106 -112q-3 -6 -8 -16.5t-7.5 -14t-7.5 -7t-11 -3.5q-2 0 -10.5 0.5t-13.5 0.5zM132 723q0 7 5 11q18 17 126 125q23 23 46 30q30 9 54 9q10 0 20.5 -9t14.5 -18q6 -13 20 -49.5t21 -50.5q2 -3 2 -11q0 -21 -16 -27q-43 -10 -55 -10q-6 0 -14 5.5
t-10 11.5q-9 19 -27 79q-2 -2 -26 -29.5t-35 -38.5q-7 -7 -13 -18t-9 -13q-10 -7 -38 -11.5t-46 -4.5q-5 0 -12.5 6.5t-7.5 12.5z" />
    <glyph glyph-name="Otilde" unicode="&#xd5;" horiz-adv-x="476" 
d="M155 592q13 0 62 -15q26 29 61 52.5t58 23.5q15 0 51.5 -20.5t50.5 -33.5q17 -19 17 -73q0 -101 -45 -215.5t-115 -187.5q-43 -43 -79 -57t-106 -14q-58 0 -76 29t-18 82q0 104 21.5 205t53.5 162.5t64 61.5zM169 413q-39 -121 -39 -291q115 63 173 236q22 68 28 100
t6 72q0 20 -4 35q-63 -41 -106 -112q-3 -6 -8 -16.5t-7.5 -14t-7.5 -7t-11 -3.5q-2 0 -10.5 0.5t-13.5 0.5zM514 873q0 -13 -39 -61.5t-64 -67.5q-15 -11 -84 -11q-8 0 -17 7q-10 9 -26.5 37t-24.5 36q-20 -28 -40 -75q-6 -12 -37 -23.5t-49 -11.5q-6 0 -10.5 4t-4.5 9
q0 23 35 75t65 68q34 18 69 18q17 0 32 -10q6 -4 14 -15t19 -28.5t19 -27.5q10 13 21.5 30t18 26.5t9.5 11.5q11 7 37.5 16t40.5 9q6 0 11 -5.5t5 -10.5z" />
    <glyph glyph-name="Odieresis" unicode="&#xd6;" horiz-adv-x="476" 
d="M155 592q13 0 62 -15q26 29 61 52.5t58 23.5q15 0 51.5 -20.5t50.5 -33.5q17 -19 17 -73q0 -101 -45 -215.5t-115 -187.5q-43 -43 -79 -57t-106 -14q-58 0 -76 29t-18 82q0 104 21.5 205t53.5 162.5t64 61.5zM169 413q-39 -121 -39 -291q115 63 173 236q22 68 28 100
t6 72q0 20 -4 35q-63 -41 -106 -112q-3 -6 -8 -16.5t-7.5 -14t-7.5 -7t-11 -3.5q-2 0 -10.5 0.5t-13.5 0.5zM272 791q0 -24 -10 -44t-21 -23q-38 -10 -62 -10q-16 0 -26.5 8.5t-10.5 23.5q0 16 10 40t20 27q38 10 71 10q11 0 20 -10t9 -22zM432 747q-18 -15 -73 -15
q-13 0 -24.5 11.5t-11.5 23.5q0 15 7 35.5t16 23.5q28 11 65 11q15 0 27 -6.5t12 -18.5q0 -17 -5.5 -37.5t-12.5 -27.5z" />
    <glyph glyph-name="Oslash" unicode="&#xd8;" horiz-adv-x="502" 
d="M397 750q2 9 24.5 23.5t37.5 14.5q5 0 10.5 -5.5t6.5 -9.5q0 -16 -74 -161q32 -22 56 -49.5t24 -45.5q0 -97 -41 -206t-103 -177q-46 -41 -85.5 -54t-118.5 -13l-27 -55.5t-27 -50t-33.5 -46t-29.5 -14.5q-4 0 -9 10.5t-5 17.5q0 22 64 147q-52 21 -52 96q0 147 40 277.5
t85 130.5q9 0 36 -9q68 66 164 67q41 84 57 112zM376 495q0 29 -7 49q-124 -256 -204 -416q100 53 155.5 164.5t55.5 202.5zM109 205q0 -23 3 -39q33 67 103 213t91 190q-46 -25 -74.5 -52.5t-53.5 -68.5q-19 -32 -32 -38q-37 -104 -37 -205z" />
    <glyph glyph-name="Ugrave" unicode="&#xd9;" horiz-adv-x="566" 
d="M266 618q0 -9 -20.5 -55t-59.5 -155t-74 -246q61 89 128 187t92.5 135t61.5 87t79 106q3 4 14.5 11.5t15.5 7.5q24 0 52 -20.5t28 -44.5q0 -21 -54 -189t-102 -306q-44 -132 -59 -134q-15 0 -42 -5t-35 -5q-27 0 -27 21q0 25 14 61q100 256 141 389q-108 -143 -260 -390
q-13 -21 -36 -21q-40 0 -85.5 19.5t-45.5 43.5q0 57 49.5 217.5t93.5 270.5q12 30 37 33q8 1 32 7t36 6q10 0 18 -9.5t8 -21.5zM206 864q0 17 3 23q2 7 35.5 20t45.5 13q7 0 15 -11q106 -137 106 -140q0 -6 -4 -15.5t-10 -10.5q-29 -7 -52 -7q-20 0 -40 20q-85 85 -99 108z
" />
    <glyph glyph-name="Uacute" unicode="&#xda;" horiz-adv-x="566" 
d="M266 618q0 -9 -20.5 -55t-59.5 -155t-74 -246q61 89 128 187t92.5 135t61.5 87t79 106q3 4 14.5 11.5t15.5 7.5q24 0 52 -20.5t28 -44.5q0 -21 -54 -189t-102 -306q-44 -132 -59 -134q-15 0 -42 -5t-35 -5q-27 0 -27 21q0 25 14 61q100 256 141 389q-108 -143 -260 -390
q-13 -21 -36 -21q-40 0 -85.5 19.5t-45.5 43.5q0 57 49.5 217.5t93.5 270.5q12 30 37 33q8 1 32 7t36 6q10 0 18 -9.5t8 -21.5zM298 758q0 16 9 24q107 83 163 118q12 7 20 7q11 0 44 -7.5t47 -12.5q4 -2 4 -27q0 -5 -23 -18q-60 -39 -171 -101q-7 -4 -20 -4q-2 0 -17.5 0.5
t-36.5 0.5q-5 0 -12 7t-7 13z" />
    <glyph glyph-name="Ucircumflex" unicode="&#xdb;" horiz-adv-x="566" 
d="M266 618q0 -9 -20.5 -55t-59.5 -155t-74 -246q61 89 128 187t92.5 135t61.5 87t79 106q3 4 14.5 11.5t15.5 7.5q24 0 52 -20.5t28 -44.5q0 -21 -54 -189t-102 -306q-44 -132 -59 -134q-15 0 -42 -5t-35 -5q-27 0 -27 21q0 25 14 61q100 256 141 389q-108 -143 -260 -390
q-13 -21 -36 -21q-40 0 -85.5 19.5t-45.5 43.5q0 57 49.5 217.5t93.5 270.5q12 30 37 33q8 1 32 7t36 6q10 0 18 -9.5t8 -21.5zM203 748q0 7 5 11q18 17 126 125q23 23 46 30q30 9 54 9q10 0 20.5 -9t14.5 -18q6 -13 20 -49.5t21 -50.5q2 -3 2 -11q0 -21 -16 -27
q-42 -10 -55 -10q-6 0 -14 5.5t-10 11.5q-9 19 -27 79q-2 -2 -26 -29.5t-35 -38.5q-7 -7 -13 -18t-9 -13q-10 -7 -38 -11.5t-46 -4.5q-5 0 -12.5 6.5t-7.5 12.5z" />
    <glyph glyph-name="Udieresis" unicode="&#xdc;" horiz-adv-x="566" 
d="M266 618q0 -9 -20.5 -55t-59.5 -155t-74 -246q61 89 128 187t92.5 135t61.5 87t79 106q3 4 14.5 11.5t15.5 7.5q24 0 52 -20.5t28 -44.5q0 -21 -54 -189t-102 -306q-44 -132 -59 -134q-15 0 -42 -5t-35 -5q-27 0 -27 21q0 25 14 61q100 256 141 389q-108 -143 -260 -390
q-13 -21 -36 -21q-40 0 -85.5 19.5t-45.5 43.5q0 57 49.5 217.5t93.5 270.5q12 30 37 33q8 1 32 7t36 6q10 0 18 -9.5t8 -21.5zM343 816q0 -24 -10 -44t-21 -23q-38 -10 -62 -10q-16 0 -26.5 8.5t-10.5 23.5q0 16 10 40t20 27q38 10 71 10q11 0 20 -10t9 -22zM503 772
q-18 -15 -73 -15q-13 0 -24.5 11.5t-11.5 23.5q0 15 7 35.5t16 23.5q27 11 65 11q15 0 27 -6.5t12 -18.5q0 -17 -5.5 -37.5t-12.5 -27.5z" />
    <glyph glyph-name="Yacute" unicode="&#xdd;" horiz-adv-x="447" 
d="M-3 59q48 60 103 134t83 110q-23 -6 -38 -6q-18 0 -32 41q-43 132 -69 264q0 20 19 31q40 23 74 23q23 0 30 -35q17 -90 67 -251q176 248 252 340q11 14 46 14q13 0 38.5 -6t25.5 -10q0 -26 -15 -36q-25 -15 -64 -70q-44 -59 -138.5 -184.5t-165.5 -223t-127 -181.5
q-4 -6 -39 -10.5t-53 -4.5q-8 0 -14 8.5t-6 17.5t23 35zM255 758q0 16 9 24q107 83 163 118q12 7 20 7q11 0 44 -7.5t47 -12.5q4 -2 4 -27q0 -5 -23 -18q-60 -39 -171 -101q-7 -4 -20 -4q-2 0 -17.5 0.5t-36.5 0.5q-6 0 -12.5 7t-6.5 13z" />
    <glyph glyph-name="Thorn" unicode="&#xde;" horiz-adv-x="553" 
d="M-21 103q50 192 115 360q-14 -1 -34 -1q-12 0 -18 7q0 1 -4 10t-6 11q3 6 29.5 15.5t55.5 14.5q56 141 66 155q6 10 37.5 20t55.5 10q31 0 31 -28q0 -5 -28 -72l-31 -74q125 -1 213 -37.5t88 -86.5q0 -41 -65.5 -90t-163.5 -88t-195 -56q-12 -60 -20 -114q-2 -16 -14 -18
q-93 -16 -104 -16q-10 0 -16 7t-6 17q2 15 14 54zM224 469q-54 -142 -82 -235q115 30 191.5 77.5t76.5 94.5q0 23 -48 42t-138 21z" />
    <glyph glyph-name="germandbls" unicode="&#xdf;" horiz-adv-x="1000" 
d="M420 352q50 -20 77 -47t27 -55q0 -33 -35 -57q-93 -65 -239.5 -100.5t-267.5 -35.5q-88 0 -88 27q0 21 39 45.5t66 26.5q3 0 4.5 -6.5t2 -16t1.5 -11.5q80 2 223.5 41t144.5 75q1 9 -25 21t-73 29q-4 1 -65 23t-91 35q-47 19 -74.5 46.5t-27.5 57.5q0 54 85 115
q56 40 133 71t132 31q32 0 65 -17t33 -34q-1 -23 -13.5 -41.5t-38.5 -18.5q-76 0 -80 39q-58 -14 -117 -54.5t-59 -65.5q0 -13 15 -25t56 -28q32 -12 99 -36.5t91 -33.5zM562 441q0 81 162 170q47 26 104.5 44t98.5 18q32 0 49.5 -11.5t17.5 -43.5q0 -24 -19 -40.5
t-39 -16.5q-26 0 -47 44q-66 -22 -131 -65.5t-65 -69.5q0 -34 48 -61q31 -18 133 -72q50 -26 72.5 -50.5t22.5 -60.5q0 -47 -69.5 -84.5t-159 -55t-170.5 -17.5q-57 0 -98.5 7.5t-41.5 19.5q0 11 27 36.5t49 25.5q11 0 33.5 -9.5t37.5 -9.5q61 0 122.5 12.5t97.5 28.5t36 28
q0 18 -79 61q-20 11 -47.5 25.5t-47 25.5t-38.5 23q-59 39 -59 98z" />
    <glyph glyph-name="agrave" unicode="&#xe0;" horiz-adv-x="456" 
d="M-100 41q0 11 52 121q-42 6 -42 31q0 6 73 38q62 132 137.5 260.5t131.5 181.5q17 16 52.5 25t68.5 9q12 0 23 -15.5t11 -30.5q-24 -142 -33 -289q24 6 39 6q6 0 13 -8t7 -19q0 -3 -2.5 -5t-8.5 -4.5t-12 -4t-17 -5t-19 -6.5q0 -154 7 -228q0 -4 5 -14t5 -16
q0 -20 -25 -24l-26 -5q-27 -5 -42 -5q-29 0 -36 33t-7 129q0 56 1 84q-125 -50 -168 -69q-13 -33 -29 -79t-18 -52q-10 -26 -16 -34.5t-19 -11.5q-72 -16 -81 -16q-8 0 -16.5 8t-8.5 15zM288 599q-64 -81 -170 -319q19 7 141 53q8 136 29 266zM176 899q0 17 3 23
q2 7 35.5 20t45.5 13q7 0 15 -11q106 -137 106 -140q0 -6 -4 -15.5t-10 -10.5q-29 -7 -52 -7q-20 0 -40 20q-85 85 -99 108z" />
    <glyph glyph-name="aacute" unicode="&#xe1;" horiz-adv-x="456" 
d="M-100 41q0 11 52 121q-42 6 -42 31q0 6 73 38q62 132 137.5 260.5t131.5 181.5q17 16 52.5 25t68.5 9q12 0 23 -15.5t11 -30.5q-24 -142 -33 -289q24 6 39 6q6 0 13 -8t7 -19q0 -3 -2.5 -5t-8.5 -4.5t-12 -4t-17 -5t-19 -6.5q0 -154 7 -228q0 -4 5 -14t5 -16
q0 -20 -25 -24l-26 -5q-27 -5 -42 -5q-29 0 -36 33t-7 129q0 56 1 84q-125 -50 -168 -69q-13 -33 -29 -79t-18 -52q-10 -26 -16 -34.5t-19 -11.5q-72 -16 -81 -16q-8 0 -16.5 8t-8.5 15zM288 599q-64 -81 -170 -319q19 7 141 53q8 136 29 266zM268 793q0 16 9 24
q107 83 163 118q12 7 20 7q11 0 44 -7.5t47 -12.5q4 -2 4 -27q0 -5 -23 -18q-60 -39 -171 -101q-7 -4 -20 -4q-2 0 -17.5 0.5t-36.5 0.5q-5 0 -12 6.5t-7 13.5z" />
    <glyph glyph-name="acircumflex" unicode="&#xe2;" horiz-adv-x="456" 
d="M-100 41q0 11 52 121q-42 6 -42 31q0 6 73 38q62 132 137.5 260.5t131.5 181.5q17 16 52.5 25t68.5 9q12 0 23 -15.5t11 -30.5q-24 -142 -33 -289q24 6 39 6q6 0 13 -8t7 -19q0 -3 -2.5 -5t-8.5 -4.5t-12 -4t-17 -5t-19 -6.5q0 -154 7 -228q0 -4 5 -14t5 -16
q0 -20 -25 -24l-26 -5q-27 -5 -42 -5q-29 0 -36 33t-7 129q0 56 1 84q-125 -50 -168 -69q-13 -33 -29 -79t-18 -52q-10 -26 -16 -34.5t-19 -11.5q-72 -16 -81 -16q-8 0 -16.5 8t-8.5 15zM288 599q-64 -81 -170 -319q19 7 141 53q8 136 29 266zM173 783q0 7 5 11
q18 17 126 125q23 23 46 30q30 9 54 9q10 0 20.5 -9t14.5 -18q6 -13 20 -49.5t21 -50.5q2 -3 2 -11q0 -21 -16 -27q-42 -10 -55 -10q-6 0 -14 5.5t-10 11.5q-9 19 -27 79q-2 -2 -26 -29.5t-35 -38.5q-7 -7 -13 -18t-9 -13q-10 -7 -38 -11.5t-46 -4.5q-5 0 -12.5 6.5
t-7.5 12.5z" />
    <glyph glyph-name="atilde" unicode="&#xe3;" horiz-adv-x="456" 
d="M-100 41q0 11 52 121q-42 6 -42 31q0 6 73 38q62 132 137.5 260.5t131.5 181.5q17 16 52.5 25t68.5 9q12 0 23 -15.5t11 -30.5q-24 -142 -33 -289q24 6 39 6q6 0 13 -8t7 -19q0 -3 -2.5 -5t-8.5 -4.5t-12 -4t-17 -5t-19 -6.5q0 -154 7 -228q0 -4 5 -14t5 -16
q0 -20 -25 -24l-26 -5q-27 -5 -42 -5q-29 0 -36 33t-7 129q0 56 1 84q-125 -50 -168 -69q-13 -33 -29 -79t-18 -52q-10 -26 -16 -34.5t-19 -11.5q-72 -16 -81 -16q-8 0 -16.5 8t-8.5 15zM288 599q-64 -81 -170 -319q19 7 141 53q8 136 29 266zM555 933q0 -13 -39 -61.5
t-64 -67.5q-15 -11 -84 -11q-8 0 -17 7q-10 9 -26.5 37t-24.5 36q-20 -28 -40 -75q-6 -12 -37 -23.5t-49 -11.5q-6 0 -10.5 4t-4.5 9q0 23 35 75t65 68q34 18 69 18q17 0 32 -10q6 -4 14 -15t19 -28.5t19 -27.5q10 13 21.5 30t18 26.5t9.5 11.5q11 7 38 16t40 9q6 0 11 -5.5
t5 -10.5z" />
    <glyph glyph-name="adieresis" unicode="&#xe4;" horiz-adv-x="456" 
d="M-100 41q0 11 52 121q-42 6 -42 31q0 6 73 38q62 132 137.5 260.5t131.5 181.5q17 16 52.5 25t68.5 9q12 0 23 -15.5t11 -30.5q-24 -142 -33 -289q24 6 39 6q6 0 13 -8t7 -19q0 -3 -2.5 -5t-8.5 -4.5t-12 -4t-17 -5t-19 -6.5q0 -154 7 -228q0 -4 5 -14t5 -16
q0 -20 -25 -24l-26 -5q-27 -5 -42 -5q-29 0 -36 33t-7 129q0 56 1 84q-125 -50 -168 -69q-13 -33 -29 -79t-18 -52q-10 -26 -16 -34.5t-19 -11.5q-72 -16 -81 -16q-8 0 -16.5 8t-8.5 15zM288 599q-64 -81 -170 -319q19 7 141 53q8 136 29 266zM313 851q0 -24 -10 -44
t-21 -23q-38 -10 -62 -10q-16 0 -26.5 8.5t-10.5 23.5q0 16 10 40t20 27q38 10 71 10q11 0 20 -10t9 -22zM473 807q-18 -15 -73 -15q-13 0 -24.5 11.5t-11.5 23.5q0 15 7 35.5t16 23.5q27 11 65 11q15 0 27 -6.5t12 -18.5q0 -17 -5.5 -37.5t-12.5 -27.5z" />
    <glyph glyph-name="aring" unicode="&#xe5;" horiz-adv-x="456" 
d="M-100 41q0 11 52 121q-42 6 -42 31q0 6 73 38q62 132 137.5 260.5t131.5 181.5q17 16 52.5 25t68.5 9q12 0 23 -15.5t11 -30.5q-24 -142 -33 -289q24 6 39 6q6 0 13 -8t7 -19q0 -3 -2.5 -5t-8.5 -4.5t-12 -4t-17 -5t-19 -6.5q0 -154 7 -228q0 -4 5 -14t5 -16
q0 -20 -25 -24l-26 -5q-27 -5 -42 -5q-29 0 -36 33t-7 129q0 56 1 84q-125 -50 -168 -69q-13 -33 -29 -79t-18 -52q-10 -26 -16 -34.5t-19 -11.5q-72 -16 -81 -16q-8 0 -16.5 8t-8.5 15zM288 599q-64 -81 -170 -319q19 7 141 53q8 136 29 266zM372 981q45 0 72 -24.5
t27 -64.5q0 -55 -49.5 -96t-109.5 -41q-47 0 -70.5 23t-23.5 63q0 53 45.5 96.5t108.5 43.5zM325 807q27 0 48.5 25.5t21.5 57.5q0 16 -9.5 28.5t-25.5 12.5q-24 0 -46 -29.5t-22 -55.5q0 -39 33 -39z" />
    <glyph glyph-name="ae" unicode="&#xe6;" horiz-adv-x="740" 
d="M-46 37q-21 -7 -63 -7q-5 0 -14 8t-9 15q-1 6 23.5 49.5t52.5 84.5q125 183 226 294t203 173q36 21 98 21q19 0 35.5 -14t20.5 -26q148 58 208 58q13 0 44 -14.5t31 -24.5q0 -6 -7 -14t-13 -8q-5 0 -21.5 0.5t-22.5 0.5q-54 0 -251 -84q-24 -69 -55 -176q180 64 206 64
q27 0 64 -13q-10 -28 -17 -30q-102 -33 -276 -96l-54 -183q99 44 221 89q55 20 78 20q18 0 38 -8q28 -11 28 -19q0 -3 -4 -10.5t-7 -8.5q-40 -6 -58 -13q-164 -64 -254 -107q-82 -41 -114 -41q-8 0 -17 1.5t-20 5t-17 4.5q-17 3 -17 20q0 3 7 26q23 76 53 182
q-47 -15 -128.5 -43t-95.5 -33q-36 -58 -50 -92q-16 -40 -52 -51zM370 557q-151 -146 -254 -289q142 45 186 60q1 2 29 94t42 134z" />
    <glyph glyph-name="ccedilla" unicode="&#xe7;" horiz-adv-x="437" 
d="M-32 78q0 73 83.5 290t141.5 293q13 18 54.5 33.5t76.5 15.5q27 0 45 -16t26 -46.5t10.5 -59t2.5 -68.5q0 -11 -28.5 -22.5t-51.5 -11.5q-13 0 -24.5 10t-11.5 23q0 59 -10 89q-56 -94 -119.5 -268t-64.5 -238q96 65 194 165q50 52 90 59q8 1 23.5 13.5t25.5 12.5
q7 0 14.5 -9.5t7.5 -18.5q-53 -60 -129 -138t-126 -123l-31 -88q77 -13 96 -29q5 -3 9.5 -25.5t4.5 -34.5q0 -37 -65 -74.5t-146 -37.5q-56 0 -75 19q0 10 6 18.5t12 10.5q62 6 114.5 26t74.5 46q-16 3 -38.5 7t-29.5 5q-10 1 -21 18.5t-11 31.5q0 20 18 60q-35 -10 -91 -10
q-33 0 -45 17.5t-12 54.5z" />
    <glyph glyph-name="egrave" unicode="&#xe8;" 
d="M72 20q-54 0 -82 3t-36 8.5t-8 15.5q0 7 5.5 20t6.5 16q20 75 42 141q-32 9 -32 19q0 9 9 14q10 7 49 38q32 89 73 177q45 100 68.5 136t53.5 36q33 0 68 -9q40 16 69 30q39 17 61.5 26t59 17.5t72.5 8.5q40 0 40 -12v-4q-167 -57 -329 -171q-31 -58 -60 -119
q92 41 126 53t59 12q80 0 80 -16q0 -2 -2.5 -4t-5 -3t-5.5 -2l-3 -1q-14 -6 -54 -24t-55 -24.5t-47 -21.5t-50.5 -24.5t-43 -23t-46.5 -26.5q-44 -107 -68 -193q160 86 256 145q10 5 27 5q78 0 78 -22q-128 -97 -289 -186q-65 -35 -87 -35zM200 899q0 17 3 23q2 7 35.5 20
t45.5 13q7 0 15 -11q106 -137 106 -140q0 -6 -4 -15.5t-10 -10.5q-29 -7 -52 -7q-20 0 -40 20q-85 85 -99 108z" />
    <glyph glyph-name="eacute" unicode="&#xe9;" 
d="M72 20q-54 0 -82 3t-36 8.5t-8 15.5q0 7 5.5 20t6.5 16q20 75 42 141q-32 9 -32 19q0 9 9 14q10 7 49 38q32 89 73 177q45 100 68.5 136t53.5 36q33 0 68 -9q40 16 69 30q39 17 61.5 26t59 17.5t72.5 8.5q40 0 40 -12v-4q-167 -57 -329 -171q-31 -58 -60 -119
q92 41 126 53t59 12q80 0 80 -16q0 -2 -2.5 -4t-5 -3t-5.5 -2l-3 -1q-14 -6 -54 -24t-55 -24.5t-47 -21.5t-50.5 -24.5t-43 -23t-46.5 -26.5q-44 -107 -68 -193q160 86 256 145q10 5 27 5q78 0 78 -22q-128 -97 -289 -186q-65 -35 -87 -35zM292 793q0 16 9 24
q107 83 163 118q12 7 20 7q11 0 44 -7.5t47 -12.5q4 -2 4 -27q0 -5 -23 -18q-60 -39 -171 -101q-7 -4 -20 -4q-2 0 -17.5 0.5t-36.5 0.5q-5 0 -12 6.5t-7 13.5z" />
    <glyph glyph-name="ecircumflex" unicode="&#xea;" 
d="M72 20q-54 0 -82 3t-36 8.5t-8 15.5q0 7 5.5 20t6.5 16q20 75 42 141q-32 9 -32 19q0 9 9 14q10 7 49 38q32 89 73 177q45 100 68.5 136t53.5 36q33 0 68 -9q40 16 69 30q39 17 61.5 26t59 17.5t72.5 8.5q40 0 40 -12v-4q-167 -57 -329 -171q-31 -58 -60 -119
q92 41 126 53t59 12q80 0 80 -16q0 -2 -2.5 -4t-5 -3t-5.5 -2l-3 -1q-14 -6 -54 -24t-55 -24.5t-47 -21.5t-50.5 -24.5t-43 -23t-46.5 -26.5q-44 -107 -68 -193q160 86 256 145q10 5 27 5q78 0 78 -22q-128 -97 -289 -186q-65 -35 -87 -35zM197 783q0 7 5 11q18 17 126 125
q23 23 46 30q30 9 54 9q10 0 20.5 -9t14.5 -18q6 -13 20 -49.5t21 -50.5q2 -3 2 -11q0 -21 -16 -27q-42 -10 -55 -10q-6 0 -14 5.5t-10 11.5q-9 19 -27 79q-2 -2 -26 -29.5t-35 -38.5q-7 -7 -13 -18t-9 -13q-10 -7 -38 -11.5t-46 -4.5q-5 0 -12.5 6.5t-7.5 12.5z" />
    <glyph glyph-name="edieresis" unicode="&#xeb;" 
d="M72 20q-54 0 -82 3t-36 8.5t-8 15.5q0 7 5.5 20t6.5 16q20 75 42 141q-32 9 -32 19q0 9 9 14q10 7 49 38q32 89 73 177q45 100 68.5 136t53.5 36q33 0 68 -9q40 16 69 30q39 17 61.5 26t59 17.5t72.5 8.5q40 0 40 -12v-4q-167 -57 -329 -171q-31 -58 -60 -119
q92 41 126 53t59 12q80 0 80 -16q0 -2 -2.5 -4t-5 -3t-5.5 -2l-3 -1q-14 -6 -54 -24t-55 -24.5t-47 -21.5t-50.5 -24.5t-43 -23t-46.5 -26.5q-44 -107 -68 -193q160 86 256 145q10 5 27 5q78 0 78 -22q-128 -97 -289 -186q-65 -35 -87 -35zM337 851q0 -24 -10 -44t-21 -23
q-38 -10 -62 -10q-16 0 -26.5 8.5t-10.5 23.5q0 16 10 40t20 27q38 10 71 10q11 0 20 -10t9 -22zM497 807q-18 -15 -73 -15q-13 0 -24.5 11.5t-11.5 23.5q0 15 7 35.5t16 23.5q27 11 65 11q15 0 27 -6.5t12 -18.5q0 -17 -5.5 -37.5t-12.5 -27.5z" />
    <glyph glyph-name="igrave" unicode="&#xec;" horiz-adv-x="257" 
d="M51 33q-5 -1 -23.5 -4.5t-27.5 -3.5q-11 0 -23 10t-12 20q0 36 72.5 254.5t151.5 380.5q7 16 99 16q22 0 29 -6t7 -21q0 -7 -12 -12q-47 -76 -122 -294.5t-95 -298.5q-3 -12 -4.5 -17t-6 -11t-12.5 -9t-21 -4zM131 899q0 17 3 23q2 7 35.5 20t45.5 13q7 0 15 -11
q106 -137 106 -140q0 -6 -4 -15.5t-10 -10.5q-29 -7 -52 -7q-20 0 -40 20q-85 85 -99 108z" />
    <glyph glyph-name="iacute" unicode="&#xed;" horiz-adv-x="257" 
d="M51 33q-5 -1 -23.5 -4.5t-27.5 -3.5q-11 0 -23 10t-12 20q0 36 72.5 254.5t151.5 380.5q7 16 99 16q22 0 29 -6t7 -21q0 -7 -12 -12q-47 -76 -122 -294.5t-95 -298.5q-3 -12 -4.5 -17t-6 -11t-12.5 -9t-21 -4zM223 793q0 16 9 24q107 83 163 118q12 7 20 7q11 0 44 -7.5
t47 -12.5q4 -2 4 -27q0 -5 -23 -18q-60 -39 -171 -101q-7 -4 -20 -4q-2 0 -17.5 0.5t-36.5 0.5q-6 0 -12.5 6.5t-6.5 13.5z" />
    <glyph glyph-name="icircumflex" unicode="&#xee;" horiz-adv-x="257" 
d="M51 33q-5 -1 -23.5 -4.5t-27.5 -3.5q-11 0 -23 10t-12 20q0 36 72.5 254.5t151.5 380.5q7 16 99 16q22 0 29 -6t7 -21q0 -7 -12 -12q-47 -76 -122 -294.5t-95 -298.5q-3 -12 -4.5 -17t-6 -11t-12.5 -9t-21 -4zM128 783q0 7 5 11q18 17 126 125q23 23 46 30q30 9 54 9
q10 0 20.5 -9t14.5 -18q6 -13 20 -49.5t21 -50.5q2 -3 2 -11q0 -21 -16 -27q-43 -10 -55 -10q-6 0 -14 5.5t-10 11.5q-9 19 -27 79q-2 -2 -26 -29.5t-35 -38.5q-7 -7 -13 -18t-9 -13q-10 -7 -38 -11.5t-46 -4.5q-5 0 -12.5 6.5t-7.5 12.5z" />
    <glyph glyph-name="idieresis" unicode="&#xef;" horiz-adv-x="257" 
d="M51 33q-5 -1 -23.5 -4.5t-27.5 -3.5q-11 0 -23 10t-12 20q0 36 72.5 254.5t151.5 380.5q7 16 99 16q22 0 29 -6t7 -21q0 -7 -12 -12q-47 -76 -122 -294.5t-95 -298.5q-3 -12 -4.5 -17t-6 -11t-12.5 -9t-21 -4zM268 851q0 -24 -10 -44t-21 -23q-38 -10 -62 -10
q-16 0 -26.5 8.5t-10.5 23.5q0 16 10 40t20 27q38 10 71 10q11 0 20 -10t9 -22zM428 807q-18 -15 -73 -15q-13 0 -24.5 11.5t-11.5 23.5q0 15 7 35.5t16 23.5q28 11 65 11q15 0 27 -6.5t12 -18.5q0 -17 -5.5 -37.5t-12.5 -27.5z" />
    <glyph glyph-name="eth" unicode="&#xf0;" horiz-adv-x="600" 
d="M221 655q13 4 50.5 9t47.5 5q9 0 16 -6t7 -14q0 -4 -18 -38q59 -14 105 -37q63 -32 112.5 -80t49.5 -104q0 -63 -46 -119t-121 -95.5t-147 -65.5t-147 -43q-12 -30 -23 -36q-19 -8 -50 -15.5t-44 -7.5q-24 0 -24 26q0 3 2 15q-22 1 -29 5t-7 15q0 6 4 14t8 9q15 2 43 8
l70 199q-58 -11 -75 -11q-11 0 -21 8.5t-10 17.5q0 20 12 37q19 7 121 24q44 124 74 204q-19 0 -39 -0.5t-25 -0.5t-13 8t-8 14q1 12 23 21.5t50 9.5q5 0 17 -0.5t17 -0.5q12 23 18 25zM461 383q0 55 -46 100.5t-114 71.5l-58 -162q63 7 96 7q5 0 14 -10t9 -17
q0 -22 -12 -31q-11 -7 -54 -11q-50 -6 -79 -10q-13 -37 -37 -107.5t-26 -75.5q135 46 221 112.5t86 132.5z" />
    <glyph glyph-name="ntilde" unicode="&#xf1;" horiz-adv-x="540" 
d="M86 48q-4 -13 -48 -26q-31 -9 -55 -9q-19 0 -28 34q95 325 206 594q3 8 32.5 17t46.5 9q20 0 34 -13.5t15 -43.5q3 -141 30 -343q119 365 143 408q6 12 38 21t56 9q13 0 23.5 -9t10.5 -16q0 -4 -18 -37q-69 -130 -193 -569q-67 -35 -87 -35q-18 0 -31 16t-15 42
q-4 43 -20 182.5t-17 202.5q-52 -171 -123 -434zM602 913q0 -13 -39 -61.5t-64 -67.5q-15 -11 -84 -11q-8 0 -17 7q-10 9 -26.5 37t-24.5 36q-20 -28 -40 -75q-6 -12 -37 -23.5t-49 -11.5q-6 0 -10.5 4t-4.5 9q0 23 35 75t65 68q34 18 69 18q17 0 32 -10q6 -4 14 -15
t19 -28.5t19 -27.5q10 13 21.5 30t18 26.5t9.5 11.5q11 7 37.5 16t40.5 9q6 0 11 -5.5t5 -10.5z" />
    <glyph glyph-name="ograve" unicode="&#xf2;" horiz-adv-x="476" 
d="M155 592q13 0 62 -15q26 29 61 52.5t58 23.5q15 0 51.5 -20.5t50.5 -33.5q17 -19 17 -73q0 -101 -45 -215.5t-115 -187.5q-43 -43 -79 -57t-106 -14q-58 0 -76 29t-18 82q0 104 21.5 205t53.5 162.5t64 61.5zM169 413q-39 -121 -39 -291q115 63 173 236q22 68 28 100
t6 72q0 20 -4 35q-63 -41 -106 -112q-3 -6 -8 -16.5t-7.5 -14t-7.5 -7t-11 -3.5q-2 0 -10.5 0.5t-13.5 0.5zM135 839q0 17 3 23q2 7 35.5 20t45.5 13q7 0 15 -11q106 -137 106 -140q0 -6 -4 -15.5t-10 -10.5q-29 -7 -52 -7q-20 0 -40 20q-85 85 -99 108z" />
    <glyph glyph-name="oacute" unicode="&#xf3;" horiz-adv-x="476" 
d="M155 592q13 0 62 -15q26 29 61 52.5t58 23.5q15 0 51.5 -20.5t50.5 -33.5q17 -19 17 -73q0 -101 -45 -215.5t-115 -187.5q-43 -43 -79 -57t-106 -14q-58 0 -76 29t-18 82q0 104 21.5 205t53.5 162.5t64 61.5zM169 413q-39 -121 -39 -291q115 63 173 236q22 68 28 100
t6 72q0 20 -4 35q-63 -41 -106 -112q-3 -6 -8 -16.5t-7.5 -14t-7.5 -7t-11 -3.5q-2 0 -10.5 0.5t-13.5 0.5zM227 733q0 16 9 24q107 83 163 118q12 7 20 7q11 0 44 -7.5t47 -12.5q4 -2 4 -27q0 -5 -23 -18q-60 -39 -171 -101q-7 -4 -20 -4q-2 0 -17.5 0.5t-36.5 0.5
q-6 0 -12.5 6.5t-6.5 13.5z" />
    <glyph glyph-name="ocircumflex" unicode="&#xf4;" horiz-adv-x="476" 
d="M155 592q13 0 62 -15q26 29 61 52.5t58 23.5q15 0 51.5 -20.5t50.5 -33.5q17 -19 17 -73q0 -101 -45 -215.5t-115 -187.5q-43 -43 -79 -57t-106 -14q-58 0 -76 29t-18 82q0 104 21.5 205t53.5 162.5t64 61.5zM169 413q-39 -121 -39 -291q115 63 173 236q22 68 28 100
t6 72q0 20 -4 35q-63 -41 -106 -112q-3 -6 -8 -16.5t-7.5 -14t-7.5 -7t-11 -3.5q-2 0 -10.5 0.5t-13.5 0.5zM132 723q0 7 5 11q18 17 126 125q23 23 46 30q30 9 54 9q10 0 20.5 -9t14.5 -18q6 -13 20 -49.5t21 -50.5q2 -3 2 -11q0 -21 -16 -27q-43 -10 -55 -10q-6 0 -14 5.5
t-10 11.5q-9 19 -27 79q-2 -2 -26 -29.5t-35 -38.5q-7 -7 -13 -18t-9 -13q-10 -7 -38 -11.5t-46 -4.5q-5 0 -12.5 6.5t-7.5 12.5z" />
    <glyph glyph-name="otilde" unicode="&#xf5;" horiz-adv-x="476" 
d="M155 592q13 0 62 -15q26 29 61 52.5t58 23.5q15 0 51.5 -20.5t50.5 -33.5q17 -19 17 -73q0 -101 -45 -215.5t-115 -187.5q-43 -43 -79 -57t-106 -14q-58 0 -76 29t-18 82q0 104 21.5 205t53.5 162.5t64 61.5zM169 413q-39 -121 -39 -291q115 63 173 236q22 68 28 100
t6 72q0 20 -4 35q-63 -41 -106 -112q-3 -6 -8 -16.5t-7.5 -14t-7.5 -7t-11 -3.5q-2 0 -10.5 0.5t-13.5 0.5zM514 873q0 -13 -39 -61.5t-64 -67.5q-15 -11 -84 -11q-8 0 -17 7q-10 9 -26.5 37t-24.5 36q-20 -28 -40 -75q-6 -12 -37 -23.5t-49 -11.5q-6 0 -10.5 4t-4.5 9
q0 23 35 75t65 68q34 18 69 18q17 0 32 -10q6 -4 14 -15t19 -28.5t19 -27.5q10 13 21.5 30t18 26.5t9.5 11.5q11 7 37.5 16t40.5 9q6 0 11 -5.5t5 -10.5z" />
    <glyph glyph-name="odieresis" unicode="&#xf6;" horiz-adv-x="476" 
d="M155 592q13 0 62 -15q26 29 61 52.5t58 23.5q15 0 51.5 -20.5t50.5 -33.5q17 -19 17 -73q0 -101 -45 -215.5t-115 -187.5q-43 -43 -79 -57t-106 -14q-58 0 -76 29t-18 82q0 104 21.5 205t53.5 162.5t64 61.5zM169 413q-39 -121 -39 -291q115 63 173 236q22 68 28 100
t6 72q0 20 -4 35q-63 -41 -106 -112q-3 -6 -8 -16.5t-7.5 -14t-7.5 -7t-11 -3.5q-2 0 -10.5 0.5t-13.5 0.5zM272 791q0 -24 -10 -44t-21 -23q-38 -10 -62 -10q-16 0 -26.5 8.5t-10.5 23.5q0 16 10 40t20 27q38 10 71 10q11 0 20 -10t9 -22zM432 747q-18 -15 -73 -15
q-13 0 -24.5 11.5t-11.5 23.5q0 15 7 35.5t16 23.5q28 11 65 11q15 0 27 -6.5t12 -18.5q0 -17 -5.5 -37.5t-12.5 -27.5z" />
    <glyph glyph-name="oslash" unicode="&#xf8;" horiz-adv-x="502" 
d="M397 750q2 9 24.5 23.5t37.5 14.5q5 0 10.5 -5.5t6.5 -9.5q0 -16 -74 -161q32 -22 56 -49.5t24 -45.5q0 -97 -41 -206t-103 -177q-46 -41 -85.5 -54t-118.5 -13l-27 -55.5t-27 -50t-33.5 -46t-29.5 -14.5q-4 0 -9 10.5t-5 17.5q0 22 64 147q-52 21 -52 96q0 147 40 277.5
t85 130.5q9 0 36 -9q68 66 164 67q41 84 57 112zM376 495q0 29 -7 49q-124 -256 -204 -416q100 53 155.5 164.5t55.5 202.5zM109 205q0 -23 3 -39q33 67 103 213t91 190q-46 -25 -74.5 -52.5t-53.5 -68.5q-19 -32 -32 -38q-37 -104 -37 -205z" />
    <glyph glyph-name="ugrave" unicode="&#xf9;" horiz-adv-x="566" 
d="M266 618q0 -9 -20.5 -55t-59.5 -155t-74 -246q61 89 128 187t92.5 135t61.5 87t79 106q3 4 14.5 11.5t15.5 7.5q24 0 52 -20.5t28 -44.5q0 -21 -54 -189t-102 -306q-44 -132 -59 -134q-15 0 -42 -5t-35 -5q-27 0 -27 21q0 25 14 61q100 256 141 389q-108 -143 -260 -390
q-13 -21 -36 -21q-40 0 -85.5 19.5t-45.5 43.5q0 57 49.5 217.5t93.5 270.5q12 30 37 33q8 1 32 7t36 6q10 0 18 -9.5t8 -21.5zM206 864q0 17 3 23q2 7 35.5 20t45.5 13q7 0 15 -11q106 -137 106 -140q0 -6 -4 -15.5t-10 -10.5q-29 -7 -52 -7q-20 0 -40 20q-85 85 -99 108z
" />
    <glyph glyph-name="uacute" unicode="&#xfa;" horiz-adv-x="566" 
d="M266 618q0 -9 -20.5 -55t-59.5 -155t-74 -246q61 89 128 187t92.5 135t61.5 87t79 106q3 4 14.5 11.5t15.5 7.5q24 0 52 -20.5t28 -44.5q0 -21 -54 -189t-102 -306q-44 -132 -59 -134q-15 0 -42 -5t-35 -5q-27 0 -27 21q0 25 14 61q100 256 141 389q-108 -143 -260 -390
q-13 -21 -36 -21q-40 0 -85.5 19.5t-45.5 43.5q0 57 49.5 217.5t93.5 270.5q12 30 37 33q8 1 32 7t36 6q10 0 18 -9.5t8 -21.5zM298 758q0 16 9 24q107 83 163 118q12 7 20 7q11 0 44 -7.5t47 -12.5q4 -2 4 -27q0 -5 -23 -18q-60 -39 -171 -101q-7 -4 -20 -4q-2 0 -17.5 0.5
t-36.5 0.5q-5 0 -12 7t-7 13z" />
    <glyph glyph-name="ucircumflex" unicode="&#xfb;" horiz-adv-x="566" 
d="M266 618q0 -9 -20.5 -55t-59.5 -155t-74 -246q61 89 128 187t92.5 135t61.5 87t79 106q3 4 14.5 11.5t15.5 7.5q24 0 52 -20.5t28 -44.5q0 -21 -54 -189t-102 -306q-44 -132 -59 -134q-15 0 -42 -5t-35 -5q-27 0 -27 21q0 25 14 61q100 256 141 389q-108 -143 -260 -390
q-13 -21 -36 -21q-40 0 -85.5 19.5t-45.5 43.5q0 57 49.5 217.5t93.5 270.5q12 30 37 33q8 1 32 7t36 6q10 0 18 -9.5t8 -21.5zM203 748q0 7 5 11q18 17 126 125q23 23 46 30q30 9 54 9q10 0 20.5 -9t14.5 -18q6 -13 20 -49.5t21 -50.5q2 -3 2 -11q0 -21 -16 -27
q-42 -10 -55 -10q-6 0 -14 5.5t-10 11.5q-9 19 -27 79q-2 -2 -26 -29.5t-35 -38.5q-7 -7 -13 -18t-9 -13q-10 -7 -38 -11.5t-46 -4.5q-5 0 -12.5 6.5t-7.5 12.5z" />
    <glyph glyph-name="udieresis" unicode="&#xfc;" horiz-adv-x="566" 
d="M266 618q0 -9 -20.5 -55t-59.5 -155t-74 -246q61 89 128 187t92.5 135t61.5 87t79 106q3 4 14.5 11.5t15.5 7.5q24 0 52 -20.5t28 -44.5q0 -21 -54 -189t-102 -306q-44 -132 -59 -134q-15 0 -42 -5t-35 -5q-27 0 -27 21q0 25 14 61q100 256 141 389q-108 -143 -260 -390
q-13 -21 -36 -21q-40 0 -85.5 19.5t-45.5 43.5q0 57 49.5 217.5t93.5 270.5q12 30 37 33q8 1 32 7t36 6q10 0 18 -9.5t8 -21.5zM343 816q0 -24 -10 -44t-21 -23q-38 -10 -62 -10q-16 0 -26.5 8.5t-10.5 23.5q0 16 10 40t20 27q38 10 71 10q11 0 20 -10t9 -22zM503 772
q-18 -15 -73 -15q-13 0 -24.5 11.5t-11.5 23.5q0 15 7 35.5t16 23.5q27 11 65 11q15 0 27 -6.5t12 -18.5q0 -17 -5.5 -37.5t-12.5 -27.5z" />
    <glyph glyph-name="yacute" unicode="&#xfd;" horiz-adv-x="447" 
d="M-3 59q48 60 103 134t83 110q-23 -6 -38 -6q-18 0 -32 41q-43 132 -69 264q0 20 19 31q40 23 74 23q23 0 30 -35q17 -90 67 -251q176 248 252 340q11 14 46 14q13 0 38.5 -6t25.5 -10q0 -26 -15 -36q-25 -15 -64 -70q-44 -59 -138.5 -184.5t-165.5 -223t-127 -181.5
q-4 -6 -39 -10.5t-53 -4.5q-8 0 -14 8.5t-6 17.5t23 35zM255 758q0 16 9 24q107 83 163 118q12 7 20 7q11 0 44 -7.5t47 -12.5q4 -2 4 -27q0 -5 -23 -18q-60 -39 -171 -101q-7 -4 -20 -4q-2 0 -17.5 0.5t-36.5 0.5q-6 0 -12.5 7t-6.5 13z" />
    <glyph glyph-name="thorn" unicode="&#xfe;" horiz-adv-x="553" 
d="M-21 103q50 192 115 360q-14 -1 -34 -1q-12 0 -18 7q0 1 -4 10t-6 11q3 6 29.5 15.5t55.5 14.5q56 141 66 155q6 10 37.5 20t55.5 10q31 0 31 -28q0 -5 -28 -72l-31 -74q125 -1 213 -37.5t88 -86.5q0 -41 -65.5 -90t-163.5 -88t-195 -56q-12 -60 -20 -114q-2 -16 -14 -18
q-93 -16 -104 -16q-10 0 -16 7t-6 17q2 15 14 54zM224 469q-54 -142 -82 -235q115 30 191.5 77.5t76.5 94.5q0 23 -48 42t-138 21z" />
    <glyph glyph-name="ydieresis" unicode="&#xff;" horiz-adv-x="447" 
d="M-3 59q48 60 103 134t83 110q-23 -6 -38 -6q-18 0 -32 41q-43 132 -69 264q0 20 19 31q40 23 74 23q23 0 30 -35q17 -90 67 -251q176 248 252 340q11 14 46 14q13 0 38.5 -6t25.5 -10q0 -26 -15 -36q-25 -15 -64 -70q-44 -59 -138.5 -184.5t-165.5 -223t-127 -181.5
q-4 -6 -39 -10.5t-53 -4.5q-8 0 -14 8.5t-6 17.5t23 35zM300 816q0 -24 -10 -44t-21 -23q-38 -10 -62 -10q-16 0 -26.5 8.5t-10.5 23.5q0 16 10 40t20 27q38 10 71 10q11 0 20 -10t9 -22zM460 772q-18 -15 -73 -15q-13 0 -24.5 11.5t-11.5 23.5q0 15 7 35.5t16 23.5
q28 11 65 11q15 0 27 -6.5t12 -18.5q0 -17 -5.5 -37.5t-12.5 -27.5z" />
    <glyph glyph-name="Amacron" unicode="&#x100;" horiz-adv-x="456" 
d="M-100 41q0 11 52 121q-42 6 -42 31q0 6 73 38q62 132 137.5 260.5t131.5 181.5q17 16 52.5 25t68.5 9q12 0 23 -15.5t11 -30.5q-24 -142 -33 -289q24 6 39 6q6 0 13 -8t7 -19q0 -3 -2.5 -5t-8.5 -4.5t-12 -4t-17 -5t-19 -6.5q0 -154 7 -228q0 -4 5 -14t5 -16
q0 -20 -25 -24l-26 -5q-27 -5 -42 -5q-29 0 -36 33t-7 129q0 56 1 84q-125 -50 -168 -69q-13 -33 -29 -79t-18 -52q-10 -26 -16 -34.5t-19 -11.5q-72 -16 -81 -16q-8 0 -16.5 8t-8.5 15zM288 599q-64 -81 -170 -319q19 7 141 53q8 136 29 266zM204 846q15 13 129 27t145 14
t31 -17q0 -31 -12 -48q-128 -7 -208 -22q-57 -10 -74 -10q-5 0 -14 12t-9 19q0 15 12 25z" />
    <glyph glyph-name="amacron" unicode="&#x101;" horiz-adv-x="456" 
d="M-100 41q0 11 52 121q-42 6 -42 31q0 6 73 38q62 132 137.5 260.5t131.5 181.5q17 16 52.5 25t68.5 9q12 0 23 -15.5t11 -30.5q-24 -142 -33 -289q24 6 39 6q6 0 13 -8t7 -19q0 -3 -2.5 -5t-8.5 -4.5t-12 -4t-17 -5t-19 -6.5q0 -154 7 -228q0 -4 5 -14t5 -16
q0 -20 -25 -24l-26 -5q-27 -5 -42 -5q-29 0 -36 33t-7 129q0 56 1 84q-125 -50 -168 -69q-13 -33 -29 -79t-18 -52q-10 -26 -16 -34.5t-19 -11.5q-72 -16 -81 -16q-8 0 -16.5 8t-8.5 15zM288 599q-64 -81 -170 -319q19 7 141 53q8 136 29 266zM204 846q15 13 129 27t145 14
t31 -17q0 -31 -12 -48q-128 -7 -208 -22q-57 -10 -74 -10q-5 0 -14 12t-9 19q0 15 12 25z" />
    <glyph glyph-name="Abreve" unicode="&#x102;" horiz-adv-x="456" 
d="M-100 41q0 11 52 121q-42 6 -42 31q0 6 73 38q62 132 137.5 260.5t131.5 181.5q17 16 52.5 25t68.5 9q12 0 23 -15.5t11 -30.5q-24 -142 -33 -289q24 6 39 6q6 0 13 -8t7 -19q0 -3 -2.5 -5t-8.5 -4.5t-12 -4t-17 -5t-19 -6.5q0 -154 7 -228q0 -4 5 -14t5 -16
q0 -20 -25 -24l-26 -5q-27 -5 -42 -5q-29 0 -36 33t-7 129q0 56 1 84q-125 -50 -168 -69q-13 -33 -29 -79t-18 -52q-10 -26 -16 -34.5t-19 -11.5q-72 -16 -81 -16q-8 0 -16.5 8t-8.5 15zM288 599q-64 -81 -170 -319q19 7 141 53q8 136 29 266zM200 883q0 9 26.5 30.5
t36.5 23.5q9 0 17.5 -6t9.5 -12q-1 -6 -1 -13q0 -25 17 -44t38 -19q31 0 59.5 15t46 33t33.5 33t24 15q9 0 25 -12.5t16 -19.5q0 -9 -19.5 -35t-46.5 -50q-66 -59 -153 -59q-49 0 -89 34t-40 86z" />
    <glyph glyph-name="abreve" unicode="&#x103;" horiz-adv-x="456" 
d="M-100 41q0 11 52 121q-42 6 -42 31q0 6 73 38q62 132 137.5 260.5t131.5 181.5q17 16 52.5 25t68.5 9q12 0 23 -15.5t11 -30.5q-24 -142 -33 -289q24 6 39 6q6 0 13 -8t7 -19q0 -3 -2.5 -5t-8.5 -4.5t-12 -4t-17 -5t-19 -6.5q0 -154 7 -228q0 -4 5 -14t5 -16
q0 -20 -25 -24l-26 -5q-27 -5 -42 -5q-29 0 -36 33t-7 129q0 56 1 84q-125 -50 -168 -69q-13 -33 -29 -79t-18 -52q-10 -26 -16 -34.5t-19 -11.5q-72 -16 -81 -16q-8 0 -16.5 8t-8.5 15zM288 599q-64 -81 -170 -319q19 7 141 53q8 136 29 266zM200 883q0 9 26.5 30.5
t36.5 23.5q9 0 17.5 -6t9.5 -12q-1 -6 -1 -13q0 -25 17 -44t38 -19q31 0 59.5 15t46 33t33.5 33t24 15q9 0 25 -12.5t16 -19.5q0 -9 -19.5 -35t-46.5 -50q-66 -59 -153 -59q-49 0 -89 34t-40 86z" />
    <glyph glyph-name="Aogonek" unicode="&#x104;" horiz-adv-x="456" 
d="M-100 41q0 11 52 121q-42 6 -42 31q0 6 73 38q62 132 137.5 260.5t131.5 181.5q17 16 52.5 25t68.5 9q12 0 23 -15.5t11 -30.5q-24 -142 -33 -289q24 6 39 6q6 0 13 -8t7 -19q0 -3 -2.5 -5t-8.5 -4.5t-12 -4t-17 -5t-19 -6.5q0 -154 7 -228q0 -4 5 -14t5 -16
q0 -20 -25 -24q-7 -1 -26 -5l-9 -4q-34 -16 -59 -48.5t-25 -61.5q0 -32 27 -32q21 0 60 20.5t41 20.5q7 0 18 -10.5t11 -16.5q0 -12 -41 -41q-66 -47 -133 -47q-31 0 -56.5 26t-25.5 57q0 54 31.5 99.5t80.5 71.5q-5 27 -5 123q0 56 1 84q-125 -50 -168 -69q-13 -33 -29 -79
t-18 -52q-10 -26 -16 -34.5t-19 -11.5q-72 -16 -81 -16q-8 0 -16.5 8t-8.5 15zM288 599q-64 -81 -170 -319q19 7 141 53q8 136 29 266z" />
    <glyph glyph-name="aogonek" unicode="&#x105;" horiz-adv-x="456" 
d="M-100 41q0 11 52 121q-42 6 -42 31q0 6 73 38q62 132 137.5 260.5t131.5 181.5q17 16 52.5 25t68.5 9q12 0 23 -15.5t11 -30.5q-24 -142 -33 -289q24 6 39 6q6 0 13 -8t7 -19q0 -3 -2.5 -5t-8.5 -4.5t-12 -4t-17 -5t-19 -6.5q0 -154 7 -228q0 -4 5 -14t5 -16
q0 -20 -25 -24q-7 -1 -26 -5l-9 -4q-34 -16 -59 -48.5t-25 -61.5q0 -32 27 -32q21 0 60 20.5t41 20.5q7 0 18 -10.5t11 -16.5q0 -12 -41 -41q-66 -47 -133 -47q-31 0 -56.5 26t-25.5 57q0 54 31.5 99.5t80.5 71.5q-5 27 -5 123q0 56 1 84q-125 -50 -168 -69q-13 -33 -29 -79
t-18 -52q-10 -26 -16 -34.5t-19 -11.5q-72 -16 -81 -16q-8 0 -16.5 8t-8.5 15zM288 599q-64 -81 -170 -319q19 7 141 53q8 136 29 266z" />
    <glyph glyph-name="Cacute" unicode="&#x106;" horiz-adv-x="437" 
d="M-32 78q0 73 83.5 290t141.5 293q13 18 54.5 33.5t76.5 15.5q27 0 45 -16t26 -46.5t10.5 -59t2.5 -68.5q0 -11 -28.5 -22.5t-51.5 -11.5q-13 0 -24.5 10t-11.5 23q0 59 -10 89q-56 -94 -119.5 -268t-64.5 -238q96 65 194 165q50 52 90 59q8 1 23.5 13.5t25.5 12.5
q7 0 14.5 -9.5t7.5 -18.5q-203 -216 -258 -264q-62 -54 -170 -54q-33 0 -45 17.5t-12 54.5zM249 793q0 16 9 24q107 83 163 118q12 7 20 7q11 0 44 -7.5t47 -12.5q4 -2 4 -27q0 -5 -23 -18q-60 -39 -171 -101q-7 -4 -20 -4q-2 0 -17.5 0.5t-36.5 0.5q-6 0 -12.5 6.5
t-6.5 13.5z" />
    <glyph glyph-name="cacute" unicode="&#x107;" horiz-adv-x="437" 
d="M-32 78q0 73 83.5 290t141.5 293q13 18 54.5 33.5t76.5 15.5q27 0 45 -16t26 -46.5t10.5 -59t2.5 -68.5q0 -11 -28.5 -22.5t-51.5 -11.5q-13 0 -24.5 10t-11.5 23q0 59 -10 89q-56 -94 -119.5 -268t-64.5 -238q96 65 194 165q50 52 90 59q8 1 23.5 13.5t25.5 12.5
q7 0 14.5 -9.5t7.5 -18.5q-203 -216 -258 -264q-62 -54 -170 -54q-33 0 -45 17.5t-12 54.5zM249 793q0 16 9 24q107 83 163 118q12 7 20 7q11 0 44 -7.5t47 -12.5q4 -2 4 -27q0 -5 -23 -18q-60 -39 -171 -101q-7 -4 -20 -4q-2 0 -17.5 0.5t-36.5 0.5q-6 0 -12.5 6.5
t-6.5 13.5z" />
    <glyph glyph-name="Ccircumflex" unicode="&#x108;" horiz-adv-x="437" 
d="M-32 78q0 73 83.5 290t141.5 293q13 18 54.5 33.5t76.5 15.5q27 0 45 -16t26 -46.5t10.5 -59t2.5 -68.5q0 -11 -28.5 -22.5t-51.5 -11.5q-13 0 -24.5 10t-11.5 23q0 59 -10 89q-56 -94 -119.5 -268t-64.5 -238q96 65 194 165q50 52 90 59q8 1 23.5 13.5t25.5 12.5
q7 0 14.5 -9.5t7.5 -18.5q-203 -216 -258 -264q-62 -54 -170 -54q-33 0 -45 17.5t-12 54.5zM154 783q0 7 5 11q18 17 126 125q23 23 46 30q30 9 54 9q10 0 20.5 -9t14.5 -18q6 -13 20 -49.5t21 -50.5q2 -3 2 -11q0 -21 -16 -27q-43 -10 -55 -10q-6 0 -14 5.5t-10 11.5
q-9 19 -27 79q-2 -2 -26 -29.5t-35 -38.5q-7 -7 -13 -18t-9 -13q-10 -7 -38 -11.5t-46 -4.5q-5 0 -12.5 6.5t-7.5 12.5z" />
    <glyph glyph-name="ccircumflex" unicode="&#x109;" horiz-adv-x="437" 
d="M-32 78q0 73 83.5 290t141.5 293q13 18 54.5 33.5t76.5 15.5q27 0 45 -16t26 -46.5t10.5 -59t2.5 -68.5q0 -11 -28.5 -22.5t-51.5 -11.5q-13 0 -24.5 10t-11.5 23q0 59 -10 89q-56 -94 -119.5 -268t-64.5 -238q96 65 194 165q50 52 90 59q8 1 23.5 13.5t25.5 12.5
q7 0 14.5 -9.5t7.5 -18.5q-203 -216 -258 -264q-62 -54 -170 -54q-33 0 -45 17.5t-12 54.5zM154 783q0 7 5 11q18 17 126 125q23 23 46 30q30 9 54 9q10 0 20.5 -9t14.5 -18q6 -13 20 -49.5t21 -50.5q2 -3 2 -11q0 -21 -16 -27q-43 -10 -55 -10q-6 0 -14 5.5t-10 11.5
q-9 19 -27 79q-2 -2 -26 -29.5t-35 -38.5q-7 -7 -13 -18t-9 -13q-10 -7 -38 -11.5t-46 -4.5q-5 0 -12.5 6.5t-7.5 12.5z" />
    <glyph glyph-name="Cdotaccent" unicode="&#x10a;" horiz-adv-x="437" 
d="M-32 78q0 73 83.5 290t141.5 293q13 18 54.5 33.5t76.5 15.5q27 0 45 -16t26 -46.5t10.5 -59t2.5 -68.5q0 -11 -28.5 -22.5t-51.5 -11.5q-13 0 -24.5 10t-11.5 23q0 59 -10 89q-56 -94 -119.5 -268t-64.5 -238q96 65 194 165q50 52 90 59q8 1 23.5 13.5t25.5 12.5
q7 0 14.5 -9.5t7.5 -18.5q-203 -216 -258 -264q-62 -54 -170 -54q-33 0 -45 17.5t-12 54.5zM272 877q58 14 78 14q33 0 40 -25q-4 -64 -32 -71q-44 -11 -70 -11q-15 0 -26 8t-11 22q0 12 7 37t14 26z" />
    <glyph glyph-name="cdotaccent" unicode="&#x10b;" horiz-adv-x="437" 
d="M-32 78q0 73 83.5 290t141.5 293q13 18 54.5 33.5t76.5 15.5q27 0 45 -16t26 -46.5t10.5 -59t2.5 -68.5q0 -11 -28.5 -22.5t-51.5 -11.5q-13 0 -24.5 10t-11.5 23q0 59 -10 89q-56 -94 -119.5 -268t-64.5 -238q96 65 194 165q50 52 90 59q8 1 23.5 13.5t25.5 12.5
q7 0 14.5 -9.5t7.5 -18.5q-203 -216 -258 -264q-62 -54 -170 -54q-33 0 -45 17.5t-12 54.5zM272 877q58 14 78 14q33 0 40 -25q-4 -64 -32 -71q-44 -11 -70 -11q-15 0 -26 8t-11 22q0 12 7 37t14 26z" />
    <glyph glyph-name="Ccaron" unicode="&#x10c;" horiz-adv-x="437" 
d="M-32 78q0 73 83.5 290t141.5 293q13 18 54.5 33.5t76.5 15.5q27 0 45 -16t26 -46.5t10.5 -59t2.5 -68.5q0 -11 -28.5 -22.5t-51.5 -11.5q-13 0 -24.5 10t-11.5 23q0 59 -10 89q-56 -94 -119.5 -268t-64.5 -238q96 65 194 165q50 52 90 59q8 1 23.5 13.5t25.5 12.5
q7 0 14.5 -9.5t7.5 -18.5q-203 -216 -258 -264q-62 -54 -170 -54q-33 0 -45 17.5t-12 54.5zM208 885q0 5 5 12.5t9 9.5q51 21 61 21q13 0 20 -12q20 -43 28 -62q61 60 88 83q9 7 28 11q57 13 70 13q6 0 14.5 -10t8.5 -18q0 -2 -8 -8t-20.5 -15t-17.5 -13q-71 -57 -127 -105
q-12 -9 -36.5 -17.5t-41.5 -8.5q-20 0 -26 12l-49 91q-6 12 -6 16z" />
    <glyph glyph-name="ccaron" unicode="&#x10d;" horiz-adv-x="437" 
d="M-32 78q0 73 83.5 290t141.5 293q13 18 54.5 33.5t76.5 15.5q27 0 45 -16t26 -46.5t10.5 -59t2.5 -68.5q0 -11 -28.5 -22.5t-51.5 -11.5q-13 0 -24.5 10t-11.5 23q0 59 -10 89q-56 -94 -119.5 -268t-64.5 -238q96 65 194 165q50 52 90 59q8 1 23.5 13.5t25.5 12.5
q7 0 14.5 -9.5t7.5 -18.5q-203 -216 -258 -264q-62 -54 -170 -54q-33 0 -45 17.5t-12 54.5zM208 885q0 5 5 12.5t9 9.5q51 21 61 21q13 0 20 -12q20 -43 28 -62q61 60 88 83q9 7 28 11q57 13 70 13q6 0 14.5 -10t8.5 -18q0 -2 -8 -8t-20.5 -15t-17.5 -13q-71 -57 -127 -105
q-12 -9 -36.5 -17.5t-41.5 -8.5q-20 0 -26 12l-49 91q-6 12 -6 16z" />
    <glyph glyph-name="Dcaron" unicode="&#x10e;" horiz-adv-x="553" 
d="M174 655q13 4 50.5 9t47.5 5q9 0 16 -6t7 -14q0 -4 -18 -38q99 -22 183 -86t84 -135q0 -72 -62.5 -137t-154.5 -104q-133 -57 -245 -84q-11 -28 -22 -34q-19 -8 -50 -15.5t-44 -7.5q-24 0 -24 26q0 3 2 15q-22 1 -29 5t-7 15q0 6 4 14t8 9q15 2 43 8q155 437 171 479
q-19 0 -39 -0.5t-25 -0.5q-6 0 -13.5 8t-7.5 14q1 12 23 21.5t50 9.5q22 0 34 -1q12 23 18 25zM414 383q0 55 -46 100.5t-114 71.5q-72 -197 -147 -417q135 46 221 112.5t86 132.5zM214 865q0 5 5 12.5t9 9.5q51 21 61 21q13 0 20 -12q20 -43 28 -62q61 60 88 83q9 7 28 11
q57 13 70 13q6 0 14.5 -10t8.5 -18q0 -2 -8 -8t-20.5 -15t-17.5 -13q-71 -57 -127 -105q-12 -9 -36.5 -17.5t-41.5 -8.5q-20 0 -26 12l-49 91q-6 12 -6 16z" />
    <glyph glyph-name="dcaron" unicode="&#x10f;" horiz-adv-x="553" 
d="M174 655q13 4 50.5 9t47.5 5q9 0 16 -6t7 -14q0 -4 -18 -38q99 -22 183 -86t84 -135q0 -72 -62.5 -137t-154.5 -104q-133 -57 -245 -84q-11 -28 -22 -34q-19 -8 -50 -15.5t-44 -7.5q-24 0 -24 26q0 3 2 15q-22 1 -29 5t-7 15q0 6 4 14t8 9q15 2 43 8q155 437 171 479
q-19 0 -39 -0.5t-25 -0.5q-6 0 -13.5 8t-7.5 14q1 12 23 21.5t50 9.5q22 0 34 -1q12 23 18 25zM414 383q0 55 -46 100.5t-114 71.5q-72 -197 -147 -417q135 46 221 112.5t86 132.5zM214 865q0 5 5 12.5t9 9.5q51 21 61 21q13 0 20 -12q20 -43 28 -62q61 60 88 83q9 7 28 11
q57 13 70 13q6 0 14.5 -10t8.5 -18q0 -2 -8 -8t-20.5 -15t-17.5 -13q-71 -57 -127 -105q-12 -9 -36.5 -17.5t-41.5 -8.5q-20 0 -26 12l-49 91q-6 12 -6 16z" />
    <glyph glyph-name="Dcroat" unicode="&#x110;" horiz-adv-x="600" 
d="M221 655q13 4 50.5 9t47.5 5q9 0 16 -6t7 -14q0 -4 -18 -38q59 -14 105 -37q63 -32 112.5 -80t49.5 -104q0 -63 -46 -119t-121 -95.5t-147 -65.5t-147 -43q-12 -30 -23 -36q-19 -8 -50 -15.5t-44 -7.5q-24 0 -24 26q0 3 2 15q-22 1 -29 5t-7 15q0 6 4 14t8 9q15 2 43 8
l70 199q-58 -11 -75 -11q-11 0 -21 8.5t-10 17.5q0 20 12 37q19 7 121 24q44 124 74 204q-19 0 -39 -0.5t-25 -0.5t-13 8t-8 14q1 12 23 21.5t50 9.5q5 0 17 -0.5t17 -0.5q12 23 18 25zM461 383q0 55 -46 100.5t-114 71.5l-58 -162q63 7 96 7q5 0 14 -10t9 -17
q0 -22 -12 -31q-11 -7 -54 -11q-50 -6 -79 -10q-13 -37 -37 -107.5t-26 -75.5q135 46 221 112.5t86 132.5z" />
    <glyph glyph-name="dcroat" unicode="&#x111;" horiz-adv-x="600" 
d="M221 655q13 4 50.5 9t47.5 5q9 0 16 -6t7 -14q0 -4 -18 -38q59 -14 105 -37q63 -32 112.5 -80t49.5 -104q0 -63 -46 -119t-121 -95.5t-147 -65.5t-147 -43q-12 -30 -23 -36q-19 -8 -50 -15.5t-44 -7.5q-24 0 -24 26q0 3 2 15q-22 1 -29 5t-7 15q0 6 4 14t8 9q15 2 43 8
l70 199q-58 -11 -75 -11q-11 0 -21 8.5t-10 17.5q0 20 12 37q19 7 121 24q44 124 74 204q-19 0 -39 -0.5t-25 -0.5t-13 8t-8 14q1 12 23 21.5t50 9.5q5 0 17 -0.5t17 -0.5q12 23 18 25zM461 383q0 55 -46 100.5t-114 71.5l-58 -162q63 7 96 7q5 0 14 -10t9 -17
q0 -22 -12 -31q-11 -7 -54 -11q-50 -6 -79 -10q-13 -37 -37 -107.5t-26 -75.5q135 46 221 112.5t86 132.5z" />
    <glyph glyph-name="Emacron" unicode="&#x112;" 
d="M72 20q-54 0 -82 3t-36 8.5t-8 15.5q0 7 5.5 20t6.5 16q20 75 42 141q-32 9 -32 19q0 9 9 14q10 7 49 38q32 89 73 177q45 100 68.5 136t53.5 36q33 0 68 -9q40 16 69 30q39 17 61.5 26t59 17.5t72.5 8.5q40 0 40 -12v-4q-167 -57 -329 -171q-31 -58 -60 -119
q92 41 126 53t59 12q80 0 80 -16q0 -2 -2.5 -4t-5 -3t-5.5 -2l-3 -1q-14 -6 -54 -24t-55 -24.5t-47 -21.5t-50.5 -24.5t-43 -23t-46.5 -26.5q-44 -107 -68 -193q160 86 256 145q10 5 27 5q78 0 78 -22q-128 -97 -289 -186q-65 -35 -87 -35zM228 846q15 13 129 27t145 14
t31 -17q0 -31 -12 -48q-128 -7 -208 -22q-57 -10 -74 -10q-5 0 -14 12t-9 19q0 15 12 25z" />
    <glyph glyph-name="emacron" unicode="&#x113;" 
d="M72 20q-54 0 -82 3t-36 8.5t-8 15.5q0 7 5.5 20t6.5 16q20 75 42 141q-32 9 -32 19q0 9 9 14q10 7 49 38q32 89 73 177q45 100 68.5 136t53.5 36q33 0 68 -9q40 16 69 30q39 17 61.5 26t59 17.5t72.5 8.5q40 0 40 -12v-4q-167 -57 -329 -171q-31 -58 -60 -119
q92 41 126 53t59 12q80 0 80 -16q0 -2 -2.5 -4t-5 -3t-5.5 -2l-3 -1q-14 -6 -54 -24t-55 -24.5t-47 -21.5t-50.5 -24.5t-43 -23t-46.5 -26.5q-44 -107 -68 -193q160 86 256 145q10 5 27 5q78 0 78 -22q-128 -97 -289 -186q-65 -35 -87 -35zM228 846q15 13 129 27t145 14
t31 -17q0 -31 -12 -48q-128 -7 -208 -22q-57 -10 -74 -10q-5 0 -14 12t-9 19q0 15 12 25z" />
    <glyph glyph-name="Ebreve" unicode="&#x114;" 
d="M72 20q-54 0 -82 3t-36 8.5t-8 15.5q0 7 5.5 20t6.5 16q20 75 42 141q-32 9 -32 19q0 9 9 14q10 7 49 38q32 89 73 177q45 100 68.5 136t53.5 36q33 0 68 -9q40 16 69 30q39 17 61.5 26t59 17.5t72.5 8.5q40 0 40 -12v-4q-167 -57 -329 -171q-31 -58 -60 -119
q92 41 126 53t59 12q80 0 80 -16q0 -2 -2.5 -4t-5 -3t-5.5 -2l-3 -1q-14 -6 -54 -24t-55 -24.5t-47 -21.5t-50.5 -24.5t-43 -23t-46.5 -26.5q-44 -107 -68 -193q160 86 256 145q10 5 27 5q78 0 78 -22q-128 -97 -289 -186q-65 -35 -87 -35zM224 883q0 9 26.5 30.5t36.5 23.5
q9 0 17.5 -6t9.5 -12q-1 -6 -1 -13q0 -25 17 -44t38 -19q31 0 59.5 15t46 33t33.5 33t24 15q9 0 25 -12.5t16 -19.5q0 -9 -19.5 -35t-46.5 -50q-66 -59 -153 -59q-49 0 -89 34t-40 86z" />
    <glyph glyph-name="ebreve" unicode="&#x115;" 
d="M72 20q-54 0 -82 3t-36 8.5t-8 15.5q0 7 5.5 20t6.5 16q20 75 42 141q-32 9 -32 19q0 9 9 14q10 7 49 38q32 89 73 177q45 100 68.5 136t53.5 36q33 0 68 -9q40 16 69 30q39 17 61.5 26t59 17.5t72.5 8.5q40 0 40 -12v-4q-167 -57 -329 -171q-31 -58 -60 -119
q92 41 126 53t59 12q80 0 80 -16q0 -2 -2.5 -4t-5 -3t-5.5 -2l-3 -1q-14 -6 -54 -24t-55 -24.5t-47 -21.5t-50.5 -24.5t-43 -23t-46.5 -26.5q-44 -107 -68 -193q160 86 256 145q10 5 27 5q78 0 78 -22q-128 -97 -289 -186q-65 -35 -87 -35zM224 883q0 9 26.5 30.5t36.5 23.5
q9 0 17.5 -6t9.5 -12q-1 -6 -1 -13q0 -25 17 -44t38 -19q31 0 59.5 15t46 33t33.5 33t24 15q9 0 25 -12.5t16 -19.5q0 -9 -19.5 -35t-46.5 -50q-66 -59 -153 -59q-49 0 -89 34t-40 86z" />
    <glyph glyph-name="Edotaccent" unicode="&#x116;" 
d="M72 20q-54 0 -82 3t-36 8.5t-8 15.5q0 7 5.5 20t6.5 16q20 75 42 141q-32 9 -32 19q0 9 9 14q10 7 49 38q32 89 73 177q45 100 68.5 136t53.5 36q33 0 68 -9q40 16 69 30q39 17 61.5 26t59 17.5t72.5 8.5q40 0 40 -12v-4q-167 -57 -329 -171q-31 -58 -60 -119
q92 41 126 53t59 12q80 0 80 -16q0 -2 -2.5 -4t-5 -3t-5.5 -2l-3 -1q-14 -6 -54 -24t-55 -24.5t-47 -21.5t-50.5 -24.5t-43 -23t-46.5 -26.5q-44 -107 -68 -193q160 86 256 145q10 5 27 5q78 0 78 -22q-128 -97 -289 -186q-65 -35 -87 -35zM315 877q58 14 78 14q33 0 40 -25
q-4 -64 -32 -71q-44 -11 -70 -11q-15 0 -26 8t-11 22q0 12 7 37t14 26z" />
    <glyph glyph-name="edotaccent" unicode="&#x117;" 
d="M72 20q-54 0 -82 3t-36 8.5t-8 15.5q0 7 5.5 20t6.5 16q20 75 42 141q-32 9 -32 19q0 9 9 14q10 7 49 38q32 89 73 177q45 100 68.5 136t53.5 36q33 0 68 -9q40 16 69 30q39 17 61.5 26t59 17.5t72.5 8.5q40 0 40 -12v-4q-167 -57 -329 -171q-31 -58 -60 -119
q92 41 126 53t59 12q80 0 80 -16q0 -2 -2.5 -4t-5 -3t-5.5 -2l-3 -1q-14 -6 -54 -24t-55 -24.5t-47 -21.5t-50.5 -24.5t-43 -23t-46.5 -26.5q-44 -107 -68 -193q160 86 256 145q10 5 27 5q78 0 78 -22q-128 -97 -289 -186q-65 -35 -87 -35zM315 877q58 14 78 14q33 0 40 -25
q-4 -64 -32 -71q-44 -11 -70 -11q-15 0 -26 8t-11 22q0 12 7 37t14 26z" />
    <glyph glyph-name="Eogonek" unicode="&#x118;" 
d="M72 20q-54 0 -82 3t-36 8.5t-8 15.5q0 7 5.5 20t6.5 16q20 75 42 141q-32 9 -32 19q0 9 9 14q10 7 49 38q32 89 73 177q45 100 68.5 136t53.5 36q33 0 68 -9q40 16 69 30q39 17 61.5 26t59 17.5t72.5 8.5q40 0 40 -12v-4q-167 -57 -329 -171q-31 -58 -60 -119
q92 41 126 53t59 12q80 0 80 -16q0 -2 -2.5 -4t-5 -3t-5.5 -2l-3 -1q-14 -6 -54 -24t-55 -24.5t-47 -21.5t-50.5 -24.5t-43 -23t-46.5 -26.5q-44 -107 -68 -193q160 86 256 145q10 5 27 5q78 0 78 -22l-12 -9q-75 -69 -112 -133t-37 -97q0 -39 33 -39q22 0 51 15.5t32 15.5
q7 0 18 -11t11 -16q0 -12 -40 -41q-53 -37 -111 -37q-42 0 -67.5 27t-25.5 66q0 50 51 119q-26 -16 -80 -46q-65 -35 -87 -35z" />
    <glyph glyph-name="eogonek" unicode="&#x119;" 
d="M72 20q-54 0 -82 3t-36 8.5t-8 15.5q0 7 5.5 20t6.5 16q20 75 42 141q-32 9 -32 19q0 9 9 14q10 7 49 38q32 89 73 177q45 100 68.5 136t53.5 36q33 0 68 -9q40 16 69 30q39 17 61.5 26t59 17.5t72.5 8.5q40 0 40 -12v-4q-167 -57 -329 -171q-31 -58 -60 -119
q92 41 126 53t59 12q80 0 80 -16q0 -2 -2.5 -4t-5 -3t-5.5 -2l-3 -1q-14 -6 -54 -24t-55 -24.5t-47 -21.5t-50.5 -24.5t-43 -23t-46.5 -26.5q-44 -107 -68 -193q160 86 256 145q10 5 27 5q78 0 78 -22l-12 -9q-75 -69 -112 -133t-37 -97q0 -39 33 -39q22 0 51 15.5t32 15.5
q7 0 18 -11t11 -16q0 -12 -40 -41q-53 -37 -111 -37q-42 0 -67.5 27t-25.5 66q0 50 51 119q-26 -16 -80 -46q-65 -35 -87 -35z" />
    <glyph glyph-name="Ecaron" unicode="&#x11a;" 
d="M72 20q-54 0 -82 3t-36 8.5t-8 15.5q0 7 5.5 20t6.5 16q20 75 42 141q-32 9 -32 19q0 9 9 14q10 7 49 38q32 89 73 177q45 100 68.5 136t53.5 36q33 0 68 -9q40 16 69 30q39 17 61.5 26t59 17.5t72.5 8.5q40 0 40 -12v-4q-167 -57 -329 -171q-31 -58 -60 -119
q92 41 126 53t59 12q80 0 80 -16q0 -2 -2.5 -4t-5 -3t-5.5 -2l-3 -1q-14 -6 -54 -24t-55 -24.5t-47 -21.5t-50.5 -24.5t-43 -23t-46.5 -26.5q-44 -107 -68 -193q160 86 256 145q10 5 27 5q78 0 78 -22q-128 -97 -289 -186q-65 -35 -87 -35zM251 885q0 5 5 12.5t9 9.5
q51 21 61 21q13 0 20 -12q20 -43 28 -62q60 60 88 83q9 7 28 11q57 13 70 13q6 0 14.5 -10t8.5 -18q0 -2 -8 -8t-20.5 -15t-17.5 -13q-71 -57 -127 -105q-12 -9 -36.5 -17.5t-41.5 -8.5q-20 0 -26 12l-49 91q-6 12 -6 16z" />
    <glyph glyph-name="ecaron" unicode="&#x11b;" 
d="M72 20q-54 0 -82 3t-36 8.5t-8 15.5q0 7 5.5 20t6.5 16q20 75 42 141q-32 9 -32 19q0 9 9 14q10 7 49 38q32 89 73 177q45 100 68.5 136t53.5 36q33 0 68 -9q40 16 69 30q39 17 61.5 26t59 17.5t72.5 8.5q40 0 40 -12v-4q-167 -57 -329 -171q-31 -58 -60 -119
q92 41 126 53t59 12q80 0 80 -16q0 -2 -2.5 -4t-5 -3t-5.5 -2l-3 -1q-14 -6 -54 -24t-55 -24.5t-47 -21.5t-50.5 -24.5t-43 -23t-46.5 -26.5q-44 -107 -68 -193q160 86 256 145q10 5 27 5q78 0 78 -22q-128 -97 -289 -186q-65 -35 -87 -35zM251 885q0 5 5 12.5t9 9.5
q51 21 61 21q13 0 20 -12q20 -43 28 -62q60 60 88 83q9 7 28 11q57 13 70 13q6 0 14.5 -10t8.5 -18q0 -2 -8 -8t-20.5 -15t-17.5 -13q-71 -57 -127 -105q-12 -9 -36.5 -17.5t-41.5 -8.5q-20 0 -26 12l-49 91q-6 12 -6 16z" />
    <glyph glyph-name="Gcircumflex" unicode="&#x11c;" horiz-adv-x="525" 
d="M179 -124q0 24 42.5 148.5t92.5 236.5q-146 -181 -205 -220q-30 -20 -77 -20q-23 0 -46.5 12t-23.5 34q0 66 42.5 188t108 241.5t123.5 174.5q10 10 58.5 26t78.5 16q31 0 38 -7q13 -14 26 -52t13 -63q0 -11 -28.5 -19t-49.5 -8q-29 0 -33 14q-6 23 -20 56
q-35 -34 -65 -84t-77 -155q99 36 225.5 67t157.5 31q33 0 46.5 -4t13.5 -15q0 -6 -28 -23.5t-35 -18.5q-41 -6 -73 -13q-7 -22 -71 -198t-85 -244q-8 -25 -16 -57l-7 -32q-3 -9 -27 -18q-60 -17 -77 -17q-6 0 -14 7t-8 16zM139 163q131 139 202 217q-106 -33 -202 -72
q-46 -110 -46 -145q0 -5 7 -9t13 -4q13 0 26 13zM200 793q0 7 5 11q18 17 126 125q23 23 46 30q30 9 54 9q10 0 20.5 -9t14.5 -18q6 -13 20 -49.5t21 -50.5q2 -3 2 -11q0 -21 -16 -27q-43 -10 -55 -10q-6 0 -14 5.5t-10 11.5q-9 19 -27 79q-2 -2 -26 -29.5t-35 -38.5
q-7 -7 -13 -18t-9 -13q-10 -7 -38 -11.5t-46 -4.5q-5 0 -12.5 6.5t-7.5 12.5z" />
    <glyph glyph-name="gcircumflex" unicode="&#x11d;" horiz-adv-x="525" 
d="M179 -124q0 24 42.5 148.5t92.5 236.5q-146 -181 -205 -220q-30 -20 -77 -20q-23 0 -46.5 12t-23.5 34q0 66 42.5 188t108 241.5t123.5 174.5q10 10 58.5 26t78.5 16q31 0 38 -7q13 -14 26 -52t13 -63q0 -11 -28.5 -19t-49.5 -8q-29 0 -33 14q-6 23 -20 56
q-35 -34 -65 -84t-77 -155q99 36 225.5 67t157.5 31q33 0 46.5 -4t13.5 -15q0 -6 -28 -23.5t-35 -18.5q-41 -6 -73 -13q-7 -22 -71 -198t-85 -244q-8 -25 -16 -57l-7 -32q-3 -9 -27 -18q-60 -17 -77 -17q-6 0 -14 7t-8 16zM139 163q131 139 202 217q-106 -33 -202 -72
q-46 -110 -46 -145q0 -5 7 -9t13 -4q13 0 26 13zM200 793q0 7 5 11q18 17 126 125q23 23 46 30q30 9 54 9q10 0 20.5 -9t14.5 -18q6 -13 20 -49.5t21 -50.5q2 -3 2 -11q0 -21 -16 -27q-43 -10 -55 -10q-6 0 -14 5.5t-10 11.5q-9 19 -27 79q-2 -2 -26 -29.5t-35 -38.5
q-7 -7 -13 -18t-9 -13q-10 -7 -38 -11.5t-46 -4.5q-5 0 -12.5 6.5t-7.5 12.5z" />
    <glyph glyph-name="Gbreve" unicode="&#x11e;" horiz-adv-x="525" 
d="M179 -124q0 24 42.5 148.5t92.5 236.5q-146 -181 -205 -220q-30 -20 -77 -20q-23 0 -46.5 12t-23.5 34q0 66 42.5 188t108 241.5t123.5 174.5q10 10 58.5 26t78.5 16q31 0 38 -7q13 -14 26 -52t13 -63q0 -11 -28.5 -19t-49.5 -8q-29 0 -33 14q-6 23 -20 56
q-35 -34 -65 -84t-77 -155q99 36 225.5 67t157.5 31q33 0 46.5 -4t13.5 -15q0 -6 -28 -23.5t-35 -18.5q-41 -6 -73 -13q-7 -22 -71 -198t-85 -244q-8 -25 -16 -57l-7 -32q-3 -9 -27 -18q-60 -17 -77 -17q-6 0 -14 7t-8 16zM139 163q131 139 202 217q-106 -33 -202 -72
q-46 -110 -46 -145q0 -5 7 -9t13 -4q13 0 26 13zM227 893q0 9 26.5 30.5t36.5 23.5q9 0 17.5 -6t9.5 -12q-1 -6 -1 -13q0 -25 17 -44t38 -19q31 0 59.5 15t46 33t33.5 33t24 15q9 0 25 -12.5t16 -19.5q0 -9 -19.5 -35t-46.5 -50q-66 -59 -153 -59q-49 0 -89 34t-40 86z" />
    <glyph glyph-name="gbreve" unicode="&#x11f;" horiz-adv-x="525" 
d="M179 -124q0 24 42.5 148.5t92.5 236.5q-146 -181 -205 -220q-30 -20 -77 -20q-23 0 -46.5 12t-23.5 34q0 66 42.5 188t108 241.5t123.5 174.5q10 10 58.5 26t78.5 16q31 0 38 -7q13 -14 26 -52t13 -63q0 -11 -28.5 -19t-49.5 -8q-29 0 -33 14q-6 23 -20 56
q-35 -34 -65 -84t-77 -155q99 36 225.5 67t157.5 31q33 0 46.5 -4t13.5 -15q0 -6 -28 -23.5t-35 -18.5q-41 -6 -73 -13q-7 -22 -71 -198t-85 -244q-8 -25 -16 -57l-7 -32q-3 -9 -27 -18q-60 -17 -77 -17q-6 0 -14 7t-8 16zM139 163q131 139 202 217q-106 -33 -202 -72
q-46 -110 -46 -145q0 -5 7 -9t13 -4q13 0 26 13zM227 893q0 9 26.5 30.5t36.5 23.5q9 0 17.5 -6t9.5 -12q-1 -6 -1 -13q0 -25 17 -44t38 -19q31 0 59.5 15t46 33t33.5 33t24 15q9 0 25 -12.5t16 -19.5q0 -9 -19.5 -35t-46.5 -50q-66 -59 -153 -59q-49 0 -89 34t-40 86z" />
    <glyph glyph-name="Gdotaccent" unicode="&#x120;" horiz-adv-x="525" 
d="M179 -124q0 24 42.5 148.5t92.5 236.5q-146 -181 -205 -220q-30 -20 -77 -20q-23 0 -46.5 12t-23.5 34q0 66 42.5 188t108 241.5t123.5 174.5q10 10 58.5 26t78.5 16q31 0 38 -7q13 -14 26 -52t13 -63q0 -11 -28.5 -19t-49.5 -8q-29 0 -33 14q-6 23 -20 56
q-35 -34 -65 -84t-77 -155q99 36 225.5 67t157.5 31q33 0 46.5 -4t13.5 -15q0 -6 -28 -23.5t-35 -18.5q-41 -6 -73 -13q-7 -22 -71 -198t-85 -244q-8 -25 -16 -57l-7 -32q-3 -9 -27 -18q-60 -17 -77 -17q-6 0 -14 7t-8 16zM139 163q131 139 202 217q-106 -33 -202 -72
q-46 -110 -46 -145q0 -5 7 -9t13 -4q13 0 26 13zM318 887q58 14 78 14q33 0 40 -25q-4 -64 -32 -71q-44 -11 -70 -11q-15 0 -26 8t-11 22q0 12 7 37t14 26z" />
    <glyph glyph-name="gdotaccent" unicode="&#x121;" horiz-adv-x="525" 
d="M179 -124q0 24 42.5 148.5t92.5 236.5q-146 -181 -205 -220q-30 -20 -77 -20q-23 0 -46.5 12t-23.5 34q0 66 42.5 188t108 241.5t123.5 174.5q10 10 58.5 26t78.5 16q31 0 38 -7q13 -14 26 -52t13 -63q0 -11 -28.5 -19t-49.5 -8q-29 0 -33 14q-6 23 -20 56
q-35 -34 -65 -84t-77 -155q99 36 225.5 67t157.5 31q33 0 46.5 -4t13.5 -15q0 -6 -28 -23.5t-35 -18.5q-41 -6 -73 -13q-7 -22 -71 -198t-85 -244q-8 -25 -16 -57l-7 -32q-3 -9 -27 -18q-60 -17 -77 -17q-6 0 -14 7t-8 16zM139 163q131 139 202 217q-106 -33 -202 -72
q-46 -110 -46 -145q0 -5 7 -9t13 -4q13 0 26 13zM318 887q58 14 78 14q33 0 40 -25q-4 -64 -32 -71q-44 -11 -70 -11q-15 0 -26 8t-11 22q0 12 7 37t14 26z" />
    <glyph glyph-name="uni0122" unicode="&#x122;" horiz-adv-x="525" 
d="M179 -124q0 24 42.5 148.5t92.5 236.5q-146 -181 -205 -220q-30 -20 -77 -20q-23 0 -46.5 12t-23.5 34q0 66 42.5 188t108 241.5t123.5 174.5q10 10 58.5 26t78.5 16q31 0 38 -7q13 -14 26 -52t13 -63q0 -11 -28.5 -19t-49.5 -8q-29 0 -33 14q-6 23 -20 56
q-35 -34 -65 -84t-77 -155q99 36 225.5 67t157.5 31q33 0 46.5 -4t13.5 -15q0 -6 -28 -23.5t-35 -18.5q-41 -6 -73 -13q-7 -22 -71 -198t-85 -244q-8 -25 -16 -57l-7 -32q-3 -9 -27 -18q-60 -17 -77 -17q-6 0 -14 7t-8 16zM139 163q131 139 202 217q-106 -33 -202 -72
q-46 -110 -46 -145q0 -5 7 -9t13 -4q13 0 26 13zM17 -94q8 15 21 18q57 15 81 15q14 0 14 -15q0 -16 -20 -48q-38 -59 -86 -128q-12 -17 -25 -20q-42 -10 -59 -10q-4 0 -7.5 4.5t-3.5 9.5q0 6 8 22q14 28 77 152z" />
    <glyph glyph-name="uni0123" unicode="&#x123;" horiz-adv-x="525" 
d="M179 -124q0 24 42.5 148.5t92.5 236.5q-146 -181 -205 -220q-30 -20 -77 -20q-23 0 -46.5 12t-23.5 34q0 66 42.5 188t108 241.5t123.5 174.5q10 10 58.5 26t78.5 16q31 0 38 -7q13 -14 26 -52t13 -63q0 -11 -28.5 -19t-49.5 -8q-29 0 -33 14q-6 23 -20 56
q-35 -34 -65 -84t-77 -155q99 36 225.5 67t157.5 31q33 0 46.5 -4t13.5 -15q0 -6 -28 -23.5t-35 -18.5q-41 -6 -73 -13q-7 -22 -71 -198t-85 -244q-8 -25 -16 -57l-7 -32q-3 -9 -27 -18q-60 -17 -77 -17q-6 0 -14 7t-8 16zM139 163q131 139 202 217q-106 -33 -202 -72
q-46 -110 -46 -145q0 -5 7 -9t13 -4q13 0 26 13zM17 -94q8 15 21 18q57 15 81 15q14 0 14 -15q0 -16 -20 -48q-38 -59 -86 -128q-12 -17 -25 -20q-42 -10 -59 -10q-4 0 -7.5 4.5t-3.5 9.5q0 6 8 22q14 28 77 152z" />
    <glyph glyph-name="Hcircumflex" unicode="&#x124;" horiz-adv-x="529" 
d="M-39 89q85 268 186 534q1 4 3.5 7t4.5 5t6 4t6.5 2.5t9.5 2.5t11 3q46 14 60 14q11 0 21.5 -9.5t10.5 -21.5q0 -6 -3 -12t-8.5 -14t-8.5 -12l-92 -252q97 46 166 68q48 135 103 260q2 5 13 14.5t18 9.5q6 0 43.5 -8t41.5 -13q6 -9 6 -19t-3 -17q-51 -129 -76 -196
q4 0 12.5 0.5t12.5 0.5q44 0 62 -10q2 -1 2 -31q-60 -7 -112 -20q-64 -167 -111 -301q-10 -28 -23 -36q-8 -5 -51.5 -13t-59.5 -8q-3 0 -8 9t-5 12t4.5 10t5.5 8q32 91 94 261q-108 -47 -178 -99q-46 -138 -46 -153q0 -11 17 -21q-9 -40 -34 -40h-93q-9 0 -12 3q-9 5 -9 21
q0 14 13 57zM203 763q0 7 5 11q18 17 126 125q23 23 46 30q30 9 54 9q10 0 20.5 -9t14.5 -18q6 -13 20 -49.5t21 -50.5q2 -3 2 -11q0 -21 -16 -27q-42 -10 -55 -10q-6 0 -14 5.5t-10 11.5q-9 19 -27 79q-2 -2 -26 -29.5t-35 -38.5q-7 -7 -13 -18t-9 -13q-10 -7 -38 -11.5
t-46 -4.5q-5 0 -12.5 6.5t-7.5 12.5z" />
    <glyph glyph-name="hcircumflex" unicode="&#x125;" horiz-adv-x="529" 
d="M-39 89q85 268 186 534q1 4 3.5 7t4.5 5t6 4t6.5 2.5t9.5 2.5t11 3q46 14 60 14q11 0 21.5 -9.5t10.5 -21.5q0 -6 -3 -12t-8.5 -14t-8.5 -12l-92 -252q97 46 166 68q48 135 103 260q2 5 13 14.5t18 9.5q6 0 43.5 -8t41.5 -13q6 -9 6 -19t-3 -17q-51 -129 -76 -196
q4 0 12.5 0.5t12.5 0.5q44 0 62 -10q2 -1 2 -31q-60 -7 -112 -20q-64 -167 -111 -301q-10 -28 -23 -36q-8 -5 -51.5 -13t-59.5 -8q-3 0 -8 9t-5 12t4.5 10t5.5 8q32 91 94 261q-108 -47 -178 -99q-46 -138 -46 -153q0 -11 17 -21q-9 -40 -34 -40h-93q-9 0 -12 3q-9 5 -9 21
q0 14 13 57zM203 763q0 7 5 11q18 17 126 125q23 23 46 30q30 9 54 9q10 0 20.5 -9t14.5 -18q6 -13 20 -49.5t21 -50.5q2 -3 2 -11q0 -21 -16 -27q-42 -10 -55 -10q-6 0 -14 5.5t-10 11.5q-9 19 -27 79q-2 -2 -26 -29.5t-35 -38.5q-7 -7 -13 -18t-9 -13q-10 -7 -38 -11.5
t-46 -4.5q-5 0 -12.5 6.5t-7.5 12.5z" />
    <glyph glyph-name="Hbar" unicode="&#x126;" horiz-adv-x="549" 
d="M106 49q-9 -40 -34 -40q-14 0 -45.5 -0.5t-47.5 -0.5q-9 0 -12 3q-9 5 -9 21q0 14 13 57q50 157 97 291q-36 -14 -78 -14q-5 0 -12.5 11.5t-7.5 17.5q0 27 132 81q25 70 55 147q1 4 3.5 7t4.5 5t6 4t6.5 2.5t9.5 2.5t11 3q46 14 60 14q11 0 21.5 -9.5t10.5 -21.5
q0 -6 -3 -12t-8.5 -14t-8.5 -12l-24 -61q89 33 173 59q35 86 36 88q3 6 14 20t17 14t43.5 -8t41.5 -13q7 -11 7 -19q0 -7 -4 -17l-11 -27q20 2 31 2q19 0 44 -9t25 -20q0 -8 -5.5 -14.5t-12.5 -6.5q-5 0 -17.5 1t-15.5 1q-23 0 -72 -13l-50 -130q8 1 25 1q44 0 62 -10
q2 -1 2 -31q-33 -3 -113 -22q-60 -159 -110 -299q-10 -28 -23 -36q-8 -5 -51.5 -13t-59.5 -8q-3 0 -8 9t-5 12t4.5 10t5.5 8q51 146 97 265q-143 -64 -187 -114q-40 -112 -40 -142q0 -10 17 -20zM391 520q-93 -34 -174 -66l-45 -122q94 44 174 72q3 9 19.5 52t25.5 64z" />
    <glyph glyph-name="hbar" unicode="&#x127;" horiz-adv-x="549" 
d="M106 49q-9 -40 -34 -40q-14 0 -45.5 -0.5t-47.5 -0.5q-9 0 -12 3q-9 5 -9 21q0 14 13 57q50 157 97 291q-36 -14 -78 -14q-5 0 -12.5 11.5t-7.5 17.5q0 27 132 81q25 70 55 147q1 4 3.5 7t4.5 5t6 4t6.5 2.5t9.5 2.5t11 3q46 14 60 14q11 0 21.5 -9.5t10.5 -21.5
q0 -6 -3 -12t-8.5 -14t-8.5 -12l-24 -61q89 33 173 59q35 86 36 88q3 6 14 20t17 14t43.5 -8t41.5 -13q7 -11 7 -19q0 -7 -4 -17l-11 -27q20 2 31 2q19 0 44 -9t25 -20q0 -8 -5.5 -14.5t-12.5 -6.5q-5 0 -17.5 1t-15.5 1q-23 0 -72 -13l-50 -130q8 1 25 1q44 0 62 -10
q2 -1 2 -31q-33 -3 -113 -22q-60 -159 -110 -299q-10 -28 -23 -36q-8 -5 -51.5 -13t-59.5 -8q-3 0 -8 9t-5 12t4.5 10t5.5 8q51 146 97 265q-143 -64 -187 -114q-40 -112 -40 -142q0 -10 17 -20zM391 520q-93 -34 -174 -66l-45 -122q94 44 174 72q3 9 19.5 52t25.5 64z" />
    <glyph glyph-name="Itilde" unicode="&#x128;" horiz-adv-x="257" 
d="M51 33q-5 -1 -23.5 -4.5t-27.5 -3.5q-11 0 -23 10t-12 20q0 36 72.5 254.5t151.5 380.5q7 16 99 16q22 0 29 -6t7 -21q0 -7 -12 -12q-47 -76 -122 -294.5t-95 -298.5q-3 -12 -4.5 -17t-6 -11t-12.5 -9t-21 -4zM510 933q0 -13 -39 -61.5t-64 -67.5q-15 -11 -84 -11
q-8 0 -17 7q-10 9 -26.5 37t-24.5 36q-20 -28 -40 -75q-6 -12 -37 -23.5t-49 -11.5q-6 0 -10.5 4t-4.5 9q0 23 35 75t65 68q34 18 69 18q17 0 32 -10q6 -4 14 -15t19 -28.5t19 -27.5q10 13 21.5 30t18 26.5t9.5 11.5q11 7 37.5 16t40.5 9q6 0 11 -5.5t5 -10.5z" />
    <glyph glyph-name="itilde" unicode="&#x129;" horiz-adv-x="257" 
d="M51 33q-5 -1 -23.5 -4.5t-27.5 -3.5q-11 0 -23 10t-12 20q0 36 72.5 254.5t151.5 380.5q7 16 99 16q22 0 29 -6t7 -21q0 -7 -12 -12q-47 -76 -122 -294.5t-95 -298.5q-3 -12 -4.5 -17t-6 -11t-12.5 -9t-21 -4zM510 933q0 -13 -39 -61.5t-64 -67.5q-15 -11 -84 -11
q-8 0 -17 7q-10 9 -26.5 37t-24.5 36q-20 -28 -40 -75q-6 -12 -37 -23.5t-49 -11.5q-6 0 -10.5 4t-4.5 9q0 23 35 75t65 68q34 18 69 18q17 0 32 -10q6 -4 14 -15t19 -28.5t19 -27.5q10 13 21.5 30t18 26.5t9.5 11.5q11 7 37.5 16t40.5 9q6 0 11 -5.5t5 -10.5z" />
    <glyph glyph-name="Imacron" unicode="&#x12a;" horiz-adv-x="257" 
d="M51 33q-5 -1 -23.5 -4.5t-27.5 -3.5q-11 0 -23 10t-12 20q0 36 72.5 254.5t151.5 380.5q7 16 99 16q22 0 29 -6t7 -21q0 -7 -12 -12q-47 -76 -122 -294.5t-95 -298.5q-3 -12 -4.5 -17t-6 -11t-12.5 -9t-21 -4zM159 846q15 13 129 27t145 14t31 -17q0 -31 -12 -48
q-128 -7 -208 -22q-57 -10 -74 -10q-5 0 -14 12t-9 19q0 15 12 25z" />
    <glyph glyph-name="imacron" unicode="&#x12b;" horiz-adv-x="257" 
d="M51 33q-5 -1 -23.5 -4.5t-27.5 -3.5q-11 0 -23 10t-12 20q0 36 72.5 254.5t151.5 380.5q7 16 99 16q22 0 29 -6t7 -21q0 -7 -12 -12q-47 -76 -122 -294.5t-95 -298.5q-3 -12 -4.5 -17t-6 -11t-12.5 -9t-21 -4zM159 846q15 13 129 27t145 14t31 -17q0 -31 -12 -48
q-128 -7 -208 -22q-57 -10 -74 -10q-5 0 -14 12t-9 19q0 15 12 25z" />
    <glyph glyph-name="Ibreve" unicode="&#x12c;" horiz-adv-x="257" 
d="M51 33q-5 -1 -23.5 -4.5t-27.5 -3.5q-11 0 -23 10t-12 20q0 36 72.5 254.5t151.5 380.5q7 16 99 16q22 0 29 -6t7 -21q0 -7 -12 -12q-47 -76 -122 -294.5t-95 -298.5q-3 -12 -4.5 -17t-6 -11t-12.5 -9t-21 -4zM155 883q0 9 26.5 30.5t36.5 23.5q9 0 17.5 -6t9.5 -12
q-1 -6 -1 -13q0 -25 17 -44t38 -19q31 0 59.5 15t46 33t33.5 33t24 15q9 0 25 -12.5t16 -19.5q0 -9 -19.5 -35t-46.5 -50q-66 -59 -153 -59q-49 0 -89 34t-40 86z" />
    <glyph glyph-name="ibreve" unicode="&#x12d;" horiz-adv-x="257" 
d="M51 33q-5 -1 -23.5 -4.5t-27.5 -3.5q-11 0 -23 10t-12 20q0 36 72.5 254.5t151.5 380.5q7 16 99 16q22 0 29 -6t7 -21q0 -7 -12 -12q-47 -76 -122 -294.5t-95 -298.5q-3 -12 -4.5 -17t-6 -11t-12.5 -9t-21 -4zM155 883q0 9 26.5 30.5t36.5 23.5q9 0 17.5 -6t9.5 -12
q-1 -6 -1 -13q0 -25 17 -44t38 -19q31 0 59.5 15t46 33t33.5 33t24 15q9 0 25 -12.5t16 -19.5q0 -9 -19.5 -35t-46.5 -50q-66 -59 -153 -59q-49 0 -89 34t-40 86z" />
    <glyph glyph-name="Iogonek" unicode="&#x12e;" horiz-adv-x="257" 
d="M51 33q-8 -1 -26 -5q-28 -19 -47 -47t-19 -53q0 -32 27 -32q21 0 60 20.5t41 20.5q7 0 18 -10.5t11 -16.5q0 -12 -41 -41q-66 -47 -133 -47q-31 0 -56.5 26t-25.5 57q0 52 30 97t78 72q17 80 83 274t138 342q7 16 99 16q22 0 29 -6t7 -21q0 -7 -12 -12
q-47 -76 -122 -294.5t-95 -298.5q-3 -12 -4.5 -17t-6 -11t-12.5 -9t-21 -4z" />
    <glyph glyph-name="iogonek" unicode="&#x12f;" horiz-adv-x="257" 
d="M51 33q-8 -1 -26 -5q-28 -19 -47 -47t-19 -53q0 -32 27 -32q21 0 60 20.5t41 20.5q7 0 18 -10.5t11 -16.5q0 -12 -41 -41q-66 -47 -133 -47q-31 0 -56.5 26t-25.5 57q0 52 30 97t78 72q17 80 83 274t138 342q7 16 99 16q22 0 29 -6t7 -21q0 -7 -12 -12
q-47 -76 -122 -294.5t-95 -298.5q-3 -12 -4.5 -17t-6 -11t-12.5 -9t-21 -4z" />
    <glyph glyph-name="Idotaccent" unicode="&#x130;" horiz-adv-x="257" 
d="M51 33q-5 -1 -23.5 -4.5t-27.5 -3.5q-11 0 -23 10t-12 20q0 36 72.5 254.5t151.5 380.5q7 16 99 16q22 0 29 -6t7 -21q0 -7 -12 -12q-47 -76 -122 -294.5t-95 -298.5q-3 -12 -4.5 -17t-6 -11t-12.5 -9t-21 -4zM246 877q58 14 78 14q33 0 40 -25q-4 -64 -32 -71
q-44 -11 -70 -11q-15 0 -26 8t-11 22q0 12 7 37t14 26z" />
    <glyph glyph-name="dotlessi" unicode="&#x131;" horiz-adv-x="257" 
d="M51 33q-5 -1 -23.5 -4.5t-27.5 -3.5q-11 0 -23 10t-12 20q0 36 72.5 254.5t151.5 380.5q7 16 99 16q22 0 29 -6t7 -21q0 -7 -12 -12q-47 -76 -122 -294.5t-95 -298.5q-3 -12 -4.5 -17t-6 -11t-12.5 -9t-21 -4z" />
    <glyph glyph-name="IJ" unicode="&#x132;" horiz-adv-x="741" 
d="M51 33q-5 -1 -23.5 -4.5t-27.5 -3.5q-11 0 -23 10t-12 20q0 36 72.5 254.5t151.5 380.5q7 16 99 16q22 0 29 -6t7 -21q0 -7 -12 -12q-47 -76 -122 -294.5t-95 -298.5q-3 -12 -4.5 -17t-6 -11t-12.5 -9t-21 -4zM266 509q-8 10 -8 32q0 18 88 52t197 62q1 20 11.5 34
t24.5 14q10 0 49 -28q110 20 187 20q19 0 40 -5t33.5 -10t12.5 -8q0 -6 -6 -15t-12 -9q-93 0 -217 -26q-19 -134 -69.5 -292t-114.5 -280q-5 -9 -22.5 -17.5t-26.5 -8.5q-16 0 -42 7t-32 14q-6 8 -17 31q-16 36 -43 123.5t-27 98.5q0 10 28 17t45 7q10 0 18 -22
q22 -62 51 -130q45 99 80 214t45 207q-180 -54 -180 -82q0 -4 3 -10.5t3 -8.5t-6 -6.5t-9 -4.5q-18 0 -48 11t-36 19z" />
    <glyph glyph-name="ij" unicode="&#x133;" horiz-adv-x="741" 
d="M51 33q-5 -1 -23.5 -4.5t-27.5 -3.5q-11 0 -23 10t-12 20q0 36 72.5 254.5t151.5 380.5q7 16 99 16q22 0 29 -6t7 -21q0 -7 -12 -12q-47 -76 -122 -294.5t-95 -298.5q-3 -12 -4.5 -17t-6 -11t-12.5 -9t-21 -4zM266 509q-8 10 -8 32q0 18 88 52t197 62q1 20 11.5 34
t24.5 14q10 0 49 -28q110 20 187 20q19 0 40 -5t33.5 -10t12.5 -8q0 -6 -6 -15t-12 -9q-93 0 -217 -26q-19 -134 -69.5 -292t-114.5 -280q-5 -9 -22.5 -17.5t-26.5 -8.5q-16 0 -42 7t-32 14q-6 8 -17 31q-16 36 -43 123.5t-27 98.5q0 10 28 17t45 7q10 0 18 -22
q22 -62 51 -130q45 99 80 214t45 207q-180 -54 -180 -82q0 -4 3 -10.5t3 -8.5t-6 -6.5t-9 -4.5q-18 0 -48 11t-36 19z" />
    <glyph glyph-name="Jcircumflex" unicode="&#x134;" horiz-adv-x="484" 
d="M9 509q-8 10 -8 32q0 18 88 52t197 62q1 20 11.5 34t24.5 14q10 0 49 -28q110 20 187 20q19 0 40 -5t33.5 -10t12.5 -8q0 -6 -6 -15t-12 -9q-94 0 -217 -26q-19 -134 -69.5 -292t-114.5 -280q-5 -9 -22.5 -17.5t-26.5 -8.5q-16 0 -42 7t-32 14q-6 8 -17 31
q-16 36 -43 123.5t-27 98.5q0 10 28 17t45 7q10 0 18 -22q22 -62 51 -130q45 99 80 214t45 207q-180 -54 -180 -82q0 -4 3 -10.5t3 -8.5t-6 -6.5t-9 -4.5q-18 0 -48 11t-36 19zM188 783q0 7 5 11q18 17 126 125q23 23 46 30q30 9 54 9q10 0 20.5 -9t14.5 -18q6 -13 20 -49.5
t21 -50.5q2 -3 2 -11q0 -21 -16 -27q-43 -10 -55 -10q-6 0 -14 5.5t-10 11.5q-9 19 -27 79q-2 -2 -26 -29.5t-35 -38.5q-7 -7 -13 -18t-9 -13q-10 -7 -38 -11.5t-46 -4.5q-5 0 -12.5 6.5t-7.5 12.5z" />
    <glyph glyph-name="jcircumflex" unicode="&#x135;" horiz-adv-x="484" 
d="M9 509q-8 10 -8 32q0 18 88 52t197 62q1 20 11.5 34t24.5 14q10 0 49 -28q110 20 187 20q19 0 40 -5t33.5 -10t12.5 -8q0 -6 -6 -15t-12 -9q-94 0 -217 -26q-19 -134 -69.5 -292t-114.5 -280q-5 -9 -22.5 -17.5t-26.5 -8.5q-16 0 -42 7t-32 14q-6 8 -17 31
q-16 36 -43 123.5t-27 98.5q0 10 28 17t45 7q10 0 18 -22q22 -62 51 -130q45 99 80 214t45 207q-180 -54 -180 -82q0 -4 3 -10.5t3 -8.5t-6 -6.5t-9 -4.5q-18 0 -48 11t-36 19zM188 783q0 7 5 11q18 17 126 125q23 23 46 30q30 9 54 9q10 0 20.5 -9t14.5 -18q6 -13 20 -49.5
t21 -50.5q2 -3 2 -11q0 -21 -16 -27q-43 -10 -55 -10q-6 0 -14 5.5t-10 11.5q-9 19 -27 79q-2 -2 -26 -29.5t-35 -38.5q-7 -7 -13 -18t-9 -13q-10 -7 -38 -11.5t-46 -4.5q-5 0 -12.5 6.5t-7.5 12.5z" />
    <glyph glyph-name="uni0136" unicode="&#x136;" horiz-adv-x="551" 
d="M439 577q68 51 94 51q9 0 31 -8.5t34 -11.5q4 -1 9.5 -10.5t5.5 -15.5t-14 -15.5t-32 -19t-21 -11.5q-211 -148 -286 -205q-6 -5 -18.5 -14t-19.5 -14.5t-17.5 -13.5t-16.5 -13t-12 -11t-8.5 -10.5t-2.5 -7.5q0 -6 23 -11.5t67 -11.5t86 -10.5t103 -11t96 -10.5
q19 -3 19 -20q0 -4 -2 -11.5t-5.5 -14t-7.5 -6.5q-197 11 -436 35q-20 -58 -29 -87q-12 -37 -13 -45q-3 -24 -16 -24q-20 0 -44 -2q-10 0 -30.5 -6.5t-32.5 -6.5q-10 0 -18 21l221 561q17 43 22 66q3 14 15.5 23t24.5 11q63 9 77 9q15 0 24.5 -10.5t9.5 -21.5
q0 -5 -8.5 -21.5t-19.5 -36t-14 -25.5q-54 -118 -90 -203q124 105 252 200zM157 -29q8 15 21 18q57 15 81 15q14 0 14 -15q0 -16 -20 -48q-38 -59 -86 -128q-12 -17 -25 -20q-42 -10 -59 -10q-4 0 -7.5 4.5t-3.5 9.5q0 6 8 22q14 28 77 152z" />
    <glyph glyph-name="uni0137" unicode="&#x137;" horiz-adv-x="551" 
d="M439 577q68 51 94 51q9 0 31 -8.5t34 -11.5q4 -1 9.5 -10.5t5.5 -15.5t-14 -15.5t-32 -19t-21 -11.5q-211 -148 -286 -205q-6 -5 -18.5 -14t-19.5 -14.5t-17.5 -13.5t-16.5 -13t-12 -11t-8.5 -10.5t-2.5 -7.5q0 -6 23 -11.5t67 -11.5t86 -10.5t103 -11t96 -10.5
q19 -3 19 -20q0 -4 -2 -11.5t-5.5 -14t-7.5 -6.5q-197 11 -436 35q-20 -58 -29 -87q-12 -37 -13 -45q-3 -24 -16 -24q-20 0 -44 -2q-10 0 -30.5 -6.5t-32.5 -6.5q-10 0 -18 21l221 561q17 43 22 66q3 14 15.5 23t24.5 11q63 9 77 9q15 0 24.5 -10.5t9.5 -21.5
q0 -5 -8.5 -21.5t-19.5 -36t-14 -25.5q-54 -118 -90 -203q124 105 252 200zM157 -29q8 15 21 18q57 15 81 15q14 0 14 -15q0 -16 -20 -48q-38 -59 -86 -128q-12 -17 -25 -20q-42 -10 -59 -10q-4 0 -7.5 4.5t-3.5 9.5q0 6 8 22q14 28 77 152z" />
    <glyph glyph-name="Lacute" unicode="&#x139;" horiz-adv-x="407" 
d="M-52 65q191 490 191 506q0 4 -8 8t-8 8q0 3 7 17.5t15 31t10 21.5q13 5 35 5q9 0 32.5 6.5t33.5 6.5q29 0 29 -23q0 -25 -10 -54q-78 -238 -184 -483q136 71 275 136q8 3 13 3q6 0 18.5 -3t18.5 -3q13 0 13 -18q0 -6 -5.5 -10t-14.5 -7.5t-11 -5.5q-37 -22 -98 -59.5
t-115.5 -70t-109.5 -61.5q-11 -6 -28 -6q-5 0 -15 0.5t-16 0.5q-43 0 -63 -2q-1 2 -9.5 12t-8.5 16q0 5 6 15.5t7 12.5zM182 773q0 16 9 24q107 83 163 118q12 7 20 7q11 0 44 -7.5t47 -12.5q4 -2 4 -27q0 -5 -23 -18q-60 -39 -171 -101q-7 -4 -20 -4q-2 0 -17.5 0.5
t-36.5 0.5q-5 0 -12 6.5t-7 13.5z" />
    <glyph glyph-name="lacute" unicode="&#x13a;" horiz-adv-x="407" 
d="M-52 65q191 490 191 506q0 4 -8 8t-8 8q0 3 7 17.5t15 31t10 21.5q13 5 35 5q9 0 32.5 6.5t33.5 6.5q29 0 29 -23q0 -25 -10 -54q-78 -238 -184 -483q136 71 275 136q8 3 13 3q6 0 18.5 -3t18.5 -3q13 0 13 -18q0 -6 -5.5 -10t-14.5 -7.5t-11 -5.5q-37 -22 -98 -59.5
t-115.5 -70t-109.5 -61.5q-11 -6 -28 -6q-5 0 -15 0.5t-16 0.5q-43 0 -63 -2q-1 2 -9.5 12t-8.5 16q0 5 6 15.5t7 12.5zM182 773q0 16 9 24q107 83 163 118q12 7 20 7q11 0 44 -7.5t47 -12.5q4 -2 4 -27q0 -5 -23 -18q-60 -39 -171 -101q-7 -4 -20 -4q-2 0 -17.5 0.5
t-36.5 0.5q-5 0 -12 6.5t-7 13.5z" />
    <glyph glyph-name="uni013B" unicode="&#x13b;" horiz-adv-x="407" 
d="M-52 65q191 490 191 506q0 4 -8 8t-8 8q0 3 7 17.5t15 31t10 21.5q13 5 35 5q9 0 32.5 6.5t33.5 6.5q29 0 29 -23q0 -25 -10 -54q-78 -238 -184 -483q136 71 275 136q8 3 13 3q6 0 18.5 -3t18.5 -3q13 0 13 -18q0 -6 -5.5 -10t-14.5 -7.5t-11 -5.5q-37 -22 -98 -59.5
t-115.5 -70t-109.5 -61.5q-11 -6 -28 -6q-5 0 -15 0.5t-16 0.5q-43 0 -63 -2q-1 2 -9.5 12t-8.5 16q0 5 6 15.5t7 12.5zM96 -94q8 15 21 18q57 15 81 15q14 0 14 -15q0 -16 -20 -48q-38 -59 -86 -128q-12 -17 -25 -20q-43 -10 -59 -10q-4 0 -7.5 4.5t-3.5 9.5q0 6 8 22
q14 28 77 152z" />
    <glyph glyph-name="uni013C" unicode="&#x13c;" horiz-adv-x="407" 
d="M-52 65q191 490 191 506q0 4 -8 8t-8 8q0 3 7 17.5t15 31t10 21.5q13 5 35 5q9 0 32.5 6.5t33.5 6.5q29 0 29 -23q0 -25 -10 -54q-78 -238 -184 -483q136 71 275 136q8 3 13 3q6 0 18.5 -3t18.5 -3q13 0 13 -18q0 -6 -5.5 -10t-14.5 -7.5t-11 -5.5q-37 -22 -98 -59.5
t-115.5 -70t-109.5 -61.5q-11 -6 -28 -6q-5 0 -15 0.5t-16 0.5q-43 0 -63 -2q-1 2 -9.5 12t-8.5 16q0 5 6 15.5t7 12.5zM96 -94q8 15 21 18q57 15 81 15q14 0 14 -15q0 -16 -20 -48q-38 -59 -86 -128q-12 -17 -25 -20q-43 -10 -59 -10q-4 0 -7.5 4.5t-3.5 9.5q0 6 8 22
q14 28 77 152z" />
    <glyph glyph-name="Lcaron" unicode="&#x13d;" horiz-adv-x="407" 
d="M-52 65q191 490 191 506q0 4 -8 8t-8 8q0 3 7 17.5t15 31t10 21.5q13 5 35 5q9 0 32.5 6.5t33.5 6.5q29 0 29 -23q0 -25 -10 -54q-78 -238 -184 -483q136 71 275 136q8 3 13 3q6 0 18.5 -3t18.5 -3q13 0 13 -18q0 -6 -5.5 -10t-14.5 -7.5t-11 -5.5q-37 -22 -98 -59.5
t-115.5 -70t-109.5 -61.5q-11 -6 -28 -6q-5 0 -15 0.5t-16 0.5q-43 0 -63 -2q-1 2 -9.5 12t-8.5 16q0 5 6 15.5t7 12.5zM338 521q-4 0 -9 5t-5 10q0 6 11 31.5t32 70.5t32 71q11 27 29 31q36 9 58 9q8 0 13.5 -5.5t5.5 -12.5q0 -23 -93 -192q-3 -6 -31.5 -12t-42.5 -6z" />
    <glyph glyph-name="lcaron" unicode="&#x13e;" horiz-adv-x="407" 
d="M-52 65q191 490 191 506q0 4 -8 8t-8 8q0 3 7 17.5t15 31t10 21.5q13 5 35 5q9 0 32.5 6.5t33.5 6.5q29 0 29 -23q0 -25 -10 -54q-78 -238 -184 -483q136 71 275 136q8 3 13 3q6 0 18.5 -3t18.5 -3q13 0 13 -18q0 -6 -5.5 -10t-14.5 -7.5t-11 -5.5q-37 -22 -98 -59.5
t-115.5 -70t-109.5 -61.5q-11 -6 -28 -6q-5 0 -15 0.5t-16 0.5q-43 0 -63 -2q-1 2 -9.5 12t-8.5 16q0 5 6 15.5t7 12.5zM338 521q-4 0 -9 5t-5 10q0 6 11 31.5t32 70.5t32 71q11 27 29 31q36 9 58 9q8 0 13.5 -5.5t5.5 -12.5q0 -23 -93 -192q-3 -6 -31.5 -12t-42.5 -6z" />
    <glyph glyph-name="Ldot" unicode="&#x13f;" horiz-adv-x="407" 
d="M-52 65q191 490 191 506q0 4 -8 8t-8 8q0 3 7 17.5t15 31t10 21.5q13 5 35 5q9 0 32.5 6.5t33.5 6.5q29 0 29 -23q0 -25 -10 -54q-78 -238 -184 -483q136 71 275 136q8 3 13 3q6 0 18.5 -3t18.5 -3q13 0 13 -18q0 -6 -5.5 -10t-14.5 -7.5t-11 -5.5q-37 -22 -98 -59.5
t-115.5 -70t-109.5 -61.5q-11 -6 -28 -6q-5 0 -15 0.5t-16 0.5q-43 0 -63 -2q-1 2 -9.5 12t-8.5 16q0 5 6 15.5t7 12.5zM368 323q-17 -17 -72 -17q-31 0 -37 22q2 69 29 75q33 9 66 9q20 0 34 -21q0 -16 -6 -38t-14 -30z" />
    <glyph glyph-name="ldot" unicode="&#x140;" horiz-adv-x="407" 
d="M-52 65q191 490 191 506q0 4 -8 8t-8 8q0 3 7 17.5t15 31t10 21.5q13 5 35 5q9 0 32.5 6.5t33.5 6.5q29 0 29 -23q0 -25 -10 -54q-78 -238 -184 -483q136 71 275 136q8 3 13 3q6 0 18.5 -3t18.5 -3q13 0 13 -18q0 -6 -5.5 -10t-14.5 -7.5t-11 -5.5q-37 -22 -98 -59.5
t-115.5 -70t-109.5 -61.5q-11 -6 -28 -6q-5 0 -15 0.5t-16 0.5q-43 0 -63 -2q-1 2 -9.5 12t-8.5 16q0 5 6 15.5t7 12.5zM368 323q-17 -17 -72 -17q-31 0 -37 22q2 69 29 75q33 9 66 9q20 0 34 -21q0 -16 -6 -38t-14 -30z" />
    <glyph glyph-name="Lslash" unicode="&#x141;" horiz-adv-x="417" 
d="M-43 65l53 135l-42 -31q-16 0 -38 9.5t-22 18.5q0 10 40 39l105 75q95 246 95 260q0 4 -8 8t-8 8q0 3 7 17.5t15 31t10 21.5q12 5 35 5q9 0 32.5 6.5t33.5 6.5q29 0 29 -23q0 -25 -10 -54q-29 -87 -59 -169q140 90 155 90q22 0 22 -14q0 -27 -26 -45q-74 -49 -188 -130
q-41 -107 -88 -215q136 71 275 136q7 3 13 3t18.5 -3t18.5 -3q13 0 13 -18q0 -6 -5.5 -10t-14.5 -7.5t-11 -5.5q-37 -22 -98 -59.5t-115.5 -70t-109.5 -61.5q-11 -6 -28 -6q-5 0 -15 0.5t-16 0.5q-43 0 -63 -2q-1 2 -9.5 12t-8.5 16q0 5 6 15.5t7 12.5z" />
    <glyph glyph-name="lslash" unicode="&#x142;" horiz-adv-x="417" 
d="M-43 65l53 135l-42 -31q-16 0 -38 9.5t-22 18.5q0 10 40 39l105 75q95 246 95 260q0 4 -8 8t-8 8q0 3 7 17.5t15 31t10 21.5q12 5 35 5q9 0 32.5 6.5t33.5 6.5q29 0 29 -23q0 -25 -10 -54q-29 -87 -59 -169q140 90 155 90q22 0 22 -14q0 -27 -26 -45q-74 -49 -188 -130
q-41 -107 -88 -215q136 71 275 136q7 3 13 3t18.5 -3t18.5 -3q13 0 13 -18q0 -6 -5.5 -10t-14.5 -7.5t-11 -5.5q-37 -22 -98 -59.5t-115.5 -70t-109.5 -61.5q-11 -6 -28 -6q-5 0 -15 0.5t-16 0.5q-43 0 -63 -2q-1 2 -9.5 12t-8.5 16q0 5 6 15.5t7 12.5z" />
    <glyph glyph-name="Nacute" unicode="&#x143;" horiz-adv-x="540" 
d="M86 48q-4 -13 -48 -26q-31 -9 -55 -9q-19 0 -28 34q95 325 206 594q3 8 32.5 17t46.5 9q20 0 34 -13.5t15 -43.5q3 -141 30 -343q119 365 143 408q6 12 38 21t56 9q13 0 23.5 -9t10.5 -16q0 -4 -18 -37q-69 -130 -193 -569q-67 -35 -87 -35q-18 0 -31 16t-15 42
q-4 43 -20 182.5t-17 202.5q-52 -171 -123 -434zM315 773q0 16 9 24q107 83 163 118q12 7 20 7q11 0 44 -7.5t47 -12.5q4 -2 4 -27q0 -5 -23 -18q-60 -39 -171 -101q-7 -4 -20 -4q-2 0 -17.5 0.5t-36.5 0.5q-6 0 -12.5 6.5t-6.5 13.5z" />
    <glyph glyph-name="nacute" unicode="&#x144;" horiz-adv-x="540" 
d="M86 48q-4 -13 -48 -26q-31 -9 -55 -9q-19 0 -28 34q95 325 206 594q3 8 32.5 17t46.5 9q20 0 34 -13.5t15 -43.5q3 -141 30 -343q119 365 143 408q6 12 38 21t56 9q13 0 23.5 -9t10.5 -16q0 -4 -18 -37q-69 -130 -193 -569q-67 -35 -87 -35q-18 0 -31 16t-15 42
q-4 43 -20 182.5t-17 202.5q-52 -171 -123 -434zM315 773q0 16 9 24q107 83 163 118q12 7 20 7q11 0 44 -7.5t47 -12.5q4 -2 4 -27q0 -5 -23 -18q-60 -39 -171 -101q-7 -4 -20 -4q-2 0 -17.5 0.5t-36.5 0.5q-6 0 -12.5 6.5t-6.5 13.5z" />
    <glyph glyph-name="uni0145" unicode="&#x145;" horiz-adv-x="540" 
d="M86 48q-4 -13 -48 -26q-31 -9 -55 -9q-19 0 -28 34q95 325 206 594q3 8 32.5 17t46.5 9q20 0 34 -13.5t15 -43.5q3 -141 30 -343q119 365 143 408q6 12 38 21t56 9q13 0 23.5 -9t10.5 -16q0 -4 -18 -37q-69 -130 -193 -569q-67 -35 -87 -35q-18 0 -31 16t-15 42
q-4 43 -20 182.5t-17 202.5q-52 -171 -123 -434zM81 -94q8 15 21 18q57 15 81 15q14 0 14 -15q0 -16 -20 -48q-38 -59 -86 -128q-12 -17 -25 -20q-42 -10 -59 -10q-4 0 -7.5 4.5t-3.5 9.5q0 6 8 22q14 28 77 152z" />
    <glyph glyph-name="uni0146" unicode="&#x146;" horiz-adv-x="540" 
d="M86 48q-4 -13 -48 -26q-31 -9 -55 -9q-19 0 -28 34q95 325 206 594q3 8 32.5 17t46.5 9q20 0 34 -13.5t15 -43.5q3 -141 30 -343q119 365 143 408q6 12 38 21t56 9q13 0 23.5 -9t10.5 -16q0 -4 -18 -37q-69 -130 -193 -569q-67 -35 -87 -35q-18 0 -31 16t-15 42
q-4 43 -20 182.5t-17 202.5q-52 -171 -123 -434zM81 -94q8 15 21 18q57 15 81 15q14 0 14 -15q0 -16 -20 -48q-38 -59 -86 -128q-12 -17 -25 -20q-42 -10 -59 -10q-4 0 -7.5 4.5t-3.5 9.5q0 6 8 22q14 28 77 152z" />
    <glyph glyph-name="Ncaron" unicode="&#x147;" horiz-adv-x="540" 
d="M86 48q-4 -13 -48 -26q-31 -9 -55 -9q-19 0 -28 34q95 325 206 594q3 8 32.5 17t46.5 9q20 0 34 -13.5t15 -43.5q3 -141 30 -343q119 365 143 408q6 12 38 21t56 9q13 0 23.5 -9t10.5 -16q0 -4 -18 -37q-69 -130 -193 -569q-67 -35 -87 -35q-18 0 -31 16t-15 42
q-4 43 -20 182.5t-17 202.5q-52 -171 -123 -434zM274 865q0 5 5 12.5t9 9.5q51 21 61 21q13 0 20 -12q20 -43 28 -62q61 60 88 83q9 7 28 11q57 13 70 13q6 0 14.5 -10t8.5 -18q0 -2 -8 -8t-20.5 -15t-17.5 -13q-71 -57 -127 -105q-12 -9 -36.5 -17.5t-41.5 -8.5
q-20 0 -26 12l-49 91q-6 12 -6 16z" />
    <glyph glyph-name="ncaron" unicode="&#x148;" horiz-adv-x="540" 
d="M86 48q-4 -13 -48 -26q-31 -9 -55 -9q-19 0 -28 34q95 325 206 594q3 8 32.5 17t46.5 9q20 0 34 -13.5t15 -43.5q3 -141 30 -343q119 365 143 408q6 12 38 21t56 9q13 0 23.5 -9t10.5 -16q0 -4 -18 -37q-69 -130 -193 -569q-67 -35 -87 -35q-18 0 -31 16t-15 42
q-4 43 -20 182.5t-17 202.5q-52 -171 -123 -434zM274 865q0 5 5 12.5t9 9.5q51 21 61 21q13 0 20 -12q20 -43 28 -62q61 60 88 83q9 7 28 11q57 13 70 13q6 0 14.5 -10t8.5 -18q0 -2 -8 -8t-20.5 -15t-17.5 -13q-71 -57 -127 -105q-12 -9 -36.5 -17.5t-41.5 -8.5
q-20 0 -26 12l-49 91q-6 12 -6 16z" />
    <glyph glyph-name="napostrophe" unicode="&#x149;" horiz-adv-x="694" 
d="M240 48q-4 -13 -48 -26q-31 -9 -55 -9q-19 0 -28 34q95 325 206 594q3 8 32.5 17t46.5 9q20 0 34 -13.5t15 -43.5q3 -141 30 -343q119 365 143 408q6 12 38 21t56 9q13 0 23.5 -9t10.5 -16q0 -4 -18 -37q-69 -130 -193 -569q-67 -35 -87 -35q-18 0 -31 16t-15 42
q-4 43 -20 182.5t-17 202.5q-52 -171 -123 -434zM126 439q-14 -16 -56 -16q-10 0 -17 8.5t-7 18.5q0 8 31.5 70t38.5 111q7 47 38 59q24 9 47 9q17 0 31.5 -12.5t14.5 -28.5q0 -24 -43.5 -97.5t-77.5 -121.5z" />
    <glyph glyph-name="Eng" unicode="&#x14a;" horiz-adv-x="598" 
d="M166 38q0 10 26 18t42 8q9 0 18 -22q22 -55 46 -106l33 107q-24 11 -39 70q-54 203 -82 371q-58 -192 -124 -436q-1 -11 -48 -26q-31 -9 -55 -9q-19 0 -28 34q72 255 206 594q3 8 32.5 17t46.5 9q44 0 49 -54q11 -117 86 -421q77 270 98 382q7 42 7 98q0 10 13 23.5
t23 13.5q35 0 88 -50q-17 -128 -101 -410.5t-144 -418.5q-4 -10 -21.5 -18t-27.5 -8q-15 0 -40 7t-31 14q-10 12 -17 31q-13 33 -34.5 102t-21.5 80z" />
    <glyph glyph-name="eng" unicode="&#x14b;" horiz-adv-x="598" 
d="M166 38q0 10 26 18t42 8q9 0 18 -22q22 -55 46 -106l33 107q-24 11 -39 70q-54 203 -82 371q-58 -192 -124 -436q-1 -11 -48 -26q-31 -9 -55 -9q-19 0 -28 34q72 255 206 594q3 8 32.5 17t46.5 9q44 0 49 -54q11 -117 86 -421q77 270 98 382q7 42 7 98q0 10 13 23.5
t23 13.5q35 0 88 -50q-17 -128 -101 -410.5t-144 -418.5q-4 -10 -21.5 -18t-27.5 -8q-15 0 -40 7t-31 14q-10 12 -17 31q-13 33 -34.5 102t-21.5 80z" />
    <glyph glyph-name="Omacron" unicode="&#x14c;" horiz-adv-x="476" 
d="M155 592q13 0 62 -15q26 29 61 52.5t58 23.5q15 0 51.5 -20.5t50.5 -33.5q17 -19 17 -73q0 -101 -45 -215.5t-115 -187.5q-43 -43 -79 -57t-106 -14q-58 0 -76 29t-18 82q0 104 21.5 205t53.5 162.5t64 61.5zM169 413q-39 -121 -39 -291q115 63 173 236q22 68 28 100
t6 72q0 20 -4 35q-63 -41 -106 -112q-3 -6 -8 -16.5t-7.5 -14t-7.5 -7t-11 -3.5q-2 0 -10.5 0.5t-13.5 0.5zM163 786q15 13 129 27t145 14t31 -17q0 -31 -12 -48q-128 -7 -208 -22q-57 -10 -74 -10q-5 0 -14 12t-9 19q0 15 12 25z" />
    <glyph glyph-name="omacron" unicode="&#x14d;" horiz-adv-x="476" 
d="M155 592q13 0 62 -15q26 29 61 52.5t58 23.5q15 0 51.5 -20.5t50.5 -33.5q17 -19 17 -73q0 -101 -45 -215.5t-115 -187.5q-43 -43 -79 -57t-106 -14q-58 0 -76 29t-18 82q0 104 21.5 205t53.5 162.5t64 61.5zM169 413q-39 -121 -39 -291q115 63 173 236q22 68 28 100
t6 72q0 20 -4 35q-63 -41 -106 -112q-3 -6 -8 -16.5t-7.5 -14t-7.5 -7t-11 -3.5q-2 0 -10.5 0.5t-13.5 0.5zM163 786q15 13 129 27t145 14t31 -17q0 -31 -12 -48q-128 -7 -208 -22q-57 -10 -74 -10q-5 0 -14 12t-9 19q0 15 12 25z" />
    <glyph glyph-name="Obreve" unicode="&#x14e;" horiz-adv-x="476" 
d="M155 592q13 0 62 -15q26 29 61 52.5t58 23.5q15 0 51.5 -20.5t50.5 -33.5q17 -19 17 -73q0 -101 -45 -215.5t-115 -187.5q-43 -43 -79 -57t-106 -14q-58 0 -76 29t-18 82q0 104 21.5 205t53.5 162.5t64 61.5zM169 413q-39 -121 -39 -291q115 63 173 236q22 68 28 100
t6 72q0 20 -4 35q-63 -41 -106 -112q-3 -6 -8 -16.5t-7.5 -14t-7.5 -7t-11 -3.5q-2 0 -10.5 0.5t-13.5 0.5zM159 823q0 9 26.5 30.5t36.5 23.5q9 0 17.5 -6t9.5 -12q-1 -6 -1 -13q0 -25 17 -44t38 -19q31 0 59.5 15t46 33t33.5 33t24 15q9 0 25 -12.5t16 -19.5
q0 -9 -19.5 -35t-46.5 -50q-66 -59 -153 -59q-49 0 -89 34t-40 86z" />
    <glyph glyph-name="obreve" unicode="&#x14f;" horiz-adv-x="476" 
d="M155 592q13 0 62 -15q26 29 61 52.5t58 23.5q15 0 51.5 -20.5t50.5 -33.5q17 -19 17 -73q0 -101 -45 -215.5t-115 -187.5q-43 -43 -79 -57t-106 -14q-58 0 -76 29t-18 82q0 104 21.5 205t53.5 162.5t64 61.5zM169 413q-39 -121 -39 -291q115 63 173 236q22 68 28 100
t6 72q0 20 -4 35q-63 -41 -106 -112q-3 -6 -8 -16.5t-7.5 -14t-7.5 -7t-11 -3.5q-2 0 -10.5 0.5t-13.5 0.5zM159 823q0 9 26.5 30.5t36.5 23.5q9 0 17.5 -6t9.5 -12q-1 -6 -1 -13q0 -25 17 -44t38 -19q31 0 59.5 15t46 33t33.5 33t24 15q9 0 25 -12.5t16 -19.5
q0 -9 -19.5 -35t-46.5 -50q-66 -59 -153 -59q-49 0 -89 34t-40 86z" />
    <glyph glyph-name="Ohungarumlaut" unicode="&#x150;" horiz-adv-x="476" 
d="M155 592q13 0 62 -15q26 29 61 52.5t58 23.5q15 0 51.5 -20.5t50.5 -33.5q17 -19 17 -73q0 -101 -45 -215.5t-115 -187.5q-43 -43 -79 -57t-106 -14q-58 0 -76 29t-18 82q0 104 21.5 205t53.5 162.5t64 61.5zM169 413q-39 -121 -39 -291q115 63 173 236q22 68 28 100
t6 72q0 20 -4 35q-63 -41 -106 -112q-3 -6 -8 -16.5t-7.5 -14t-7.5 -7t-11 -3.5q-2 0 -10.5 0.5t-13.5 0.5zM242 710q-40 -8 -70 -8q-10 1 -10 16q0 6 11 23q6 10 18 27.5t27 38t20 27.5q16 25 31 30q74 22 91 22q4 0 7.5 -8.5t3.5 -15.5q0 -8 -16 -24q-36 -41 -100 -119
q-6 -8 -13 -9zM404 722q-32 -6 -48 -6q-7 0 -13 5.5t-6 12.5q0 4 7 14q48 69 90 119q14 17 19 18q6 2 40.5 7.5t40.5 5.5q12 0 16 -3q8 -5 8 -20q0 -5 -13 -18q-65 -67 -114 -122q-8 -8 -27 -13z" />
    <glyph glyph-name="ohungarumlaut" unicode="&#x151;" horiz-adv-x="476" 
d="M155 592q13 0 62 -15q26 29 61 52.5t58 23.5q15 0 51.5 -20.5t50.5 -33.5q17 -19 17 -73q0 -101 -45 -215.5t-115 -187.5q-43 -43 -79 -57t-106 -14q-58 0 -76 29t-18 82q0 104 21.5 205t53.5 162.5t64 61.5zM169 413q-39 -121 -39 -291q115 63 173 236q22 68 28 100
t6 72q0 20 -4 35q-63 -41 -106 -112q-3 -6 -8 -16.5t-7.5 -14t-7.5 -7t-11 -3.5q-2 0 -10.5 0.5t-13.5 0.5zM242 710q-40 -8 -70 -8q-10 1 -10 16q0 6 11 23q6 10 18 27.5t27 38t20 27.5q16 25 31 30q74 22 91 22q4 0 7.5 -8.5t3.5 -15.5q0 -8 -16 -24q-36 -41 -100 -119
q-6 -8 -13 -9zM404 722q-32 -6 -48 -6q-7 0 -13 5.5t-6 12.5q0 4 7 14q48 69 90 119q14 17 19 18q6 2 40.5 7.5t40.5 5.5q12 0 16 -3q8 -5 8 -20q0 -5 -13 -18q-65 -67 -114 -122q-8 -8 -27 -13z" />
    <glyph glyph-name="OE" unicode="&#x152;" horiz-adv-x="770" 
d="M88 31q-15 1 -35 20t-31 36t-11 69q0 160 56 304q14 34 24.5 55t29 45t44.5 36t59 12q16 0 28 -1q61 22 110 22q59 0 81 -39q14 25 36 37q8 4 86 33q166 61 243 61q30 0 30 -11q0 -16 -3 -24q-2 -4 -28.5 -15.5t-49.5 -18.5q-113 -33 -192 -69q-44 -95 -79 -180
q201 96 260 96q40 0 40 -10q0 -20 -7 -23q-223 -89 -334 -161q-39 -95 -62 -169q75 35 121 55t113 40.5t111 20.5q3 0 6 -8.5t3 -18.5q0 -3 -33.5 -19.5t-88.5 -42t-84 -40.5t-76.5 -39t-78.5 -40q-32 -17 -56 -17q-15 0 -40 16t-25 30q0 20 9 44q-93 -78 -176 -86zM316 560
q-16 0 -31.5 -4t-23.5 -7.5t-22 -11.5t-18 -10q-45 -57 -70.5 -159.5t-25.5 -179.5q0 -35 8 -62q85 64 151.5 171.5t66.5 199.5q0 29 -9.5 46t-25.5 17z" />
    <glyph glyph-name="oe" unicode="&#x153;" horiz-adv-x="770" 
d="M88 31q-15 1 -35 20t-31 36t-11 69q0 160 56 304q14 34 24.5 55t29 45t44.5 36t59 12q16 0 28 -1q61 22 110 22q59 0 81 -39q14 25 36 37q8 4 86 33q166 61 243 61q30 0 30 -11q0 -16 -3 -24q-2 -4 -28.5 -15.5t-49.5 -18.5q-113 -33 -192 -69q-44 -95 -79 -180
q201 96 260 96q40 0 40 -10q0 -20 -7 -23q-223 -89 -334 -161q-39 -95 -62 -169q75 35 121 55t113 40.5t111 20.5q3 0 6 -8.5t3 -18.5q0 -3 -33.5 -19.5t-88.5 -42t-84 -40.5t-76.5 -39t-78.5 -40q-32 -17 -56 -17q-15 0 -40 16t-25 30q0 20 9 44q-93 -78 -176 -86zM316 560
q-16 0 -31.5 -4t-23.5 -7.5t-22 -11.5t-18 -10q-45 -57 -70.5 -159.5t-25.5 -179.5q0 -35 8 -62q85 64 151.5 171.5t66.5 199.5q0 29 -9.5 46t-25.5 17z" />
    <glyph glyph-name="Racute" unicode="&#x154;" horiz-adv-x="549" 
d="M573 526q0 -25 -23.5 -51t-81.5 -62q-144 -91 -321 -155q134 -28 271 -67q118 -33 118 -51q0 -9 -4.5 -19.5t-9.5 -10.5q-53 0 -151 28q-132 39 -245 63l-61 -165q-56 -15 -102 -15q-9 0 -15 7.5t-6 14.5q0 4 2 8.5t5.5 9.5t4.5 9l56 153q-8 1 -29 5q-32 6 -32 34
q0 9 93 45q10 28 84 220q-7 -1 -21 -1q-43 0 -54 5t-11 27q35 22 113 38l21 53q9 24 16.5 31.5t21.5 7.5q92 0 92 -31q0 -8 -16 -42q38 3 71 3q32 0 64 -3.5t68.5 -12.5t59 -28.5t22.5 -47.5zM261 552q-6 -14 -74 -188q83 32 173.5 89t90.5 81q0 27 -87 27q-49 0 -103 -9z
M301 773q0 16 9 24q107 83 163 118q12 7 20 7q11 0 44 -7.5t47 -12.5q4 -2 4 -27q0 -5 -23 -18q-60 -39 -171 -101q-7 -4 -20 -4q-2 0 -17.5 0.5t-36.5 0.5q-6 0 -12.5 6.5t-6.5 13.5z" />
    <glyph glyph-name="racute" unicode="&#x155;" horiz-adv-x="549" 
d="M573 526q0 -25 -23.5 -51t-81.5 -62q-144 -91 -321 -155q134 -28 271 -67q118 -33 118 -51q0 -9 -4.5 -19.5t-9.5 -10.5q-53 0 -151 28q-132 39 -245 63l-61 -165q-56 -15 -102 -15q-9 0 -15 7.5t-6 14.5q0 4 2 8.5t5.5 9.5t4.5 9l56 153q-8 1 -29 5q-32 6 -32 34
q0 9 93 45q10 28 84 220q-7 -1 -21 -1q-43 0 -54 5t-11 27q35 22 113 38l21 53q9 24 16.5 31.5t21.5 7.5q92 0 92 -31q0 -8 -16 -42q38 3 71 3q32 0 64 -3.5t68.5 -12.5t59 -28.5t22.5 -47.5zM261 552q-6 -14 -74 -188q83 32 173.5 89t90.5 81q0 27 -87 27q-49 0 -103 -9z
M301 773q0 16 9 24q107 83 163 118q12 7 20 7q11 0 44 -7.5t47 -12.5q4 -2 4 -27q0 -5 -23 -18q-60 -39 -171 -101q-7 -4 -20 -4q-2 0 -17.5 0.5t-36.5 0.5q-6 0 -12.5 6.5t-6.5 13.5z" />
    <glyph glyph-name="uni0156" unicode="&#x156;" horiz-adv-x="549" 
d="M573 526q0 -25 -23.5 -51t-81.5 -62q-144 -91 -321 -155q134 -28 271 -67q118 -33 118 -51q0 -9 -4.5 -19.5t-9.5 -10.5q-53 0 -151 28q-132 39 -245 63l-61 -165q-56 -15 -102 -15q-9 0 -15 7.5t-6 14.5q0 4 2 8.5t5.5 9.5t4.5 9l56 153q-8 1 -29 5q-32 6 -32 34
q0 9 93 45q10 28 84 220q-7 -1 -21 -1q-43 0 -54 5t-11 27q35 22 113 38l21 53q9 24 16.5 31.5t21.5 7.5q92 0 92 -31q0 -8 -16 -42q38 3 71 3q32 0 64 -3.5t68.5 -12.5t59 -28.5t22.5 -47.5zM261 552q-6 -14 -74 -188q83 32 173.5 89t90.5 81q0 27 -87 27q-49 0 -103 -9z
M152 -49q8 15 21 18q57 15 81 15q14 0 14 -15t-20 -48q-38 -59 -86 -128q-12 -17 -25 -20q-43 -10 -59 -10q-4 0 -7.5 4.5t-3.5 9.5q0 6 8 22q14 28 77 152z" />
    <glyph glyph-name="uni0157" unicode="&#x157;" horiz-adv-x="549" 
d="M573 526q0 -25 -23.5 -51t-81.5 -62q-144 -91 -321 -155q134 -28 271 -67q118 -33 118 -51q0 -9 -4.5 -19.5t-9.5 -10.5q-53 0 -151 28q-132 39 -245 63l-61 -165q-56 -15 -102 -15q-9 0 -15 7.5t-6 14.5q0 4 2 8.5t5.5 9.5t4.5 9l56 153q-8 1 -29 5q-32 6 -32 34
q0 9 93 45q10 28 84 220q-7 -1 -21 -1q-43 0 -54 5t-11 27q35 22 113 38l21 53q9 24 16.5 31.5t21.5 7.5q92 0 92 -31q0 -8 -16 -42q38 3 71 3q32 0 64 -3.5t68.5 -12.5t59 -28.5t22.5 -47.5zM261 552q-6 -14 -74 -188q83 32 173.5 89t90.5 81q0 27 -87 27q-49 0 -103 -9z
M152 -49q8 15 21 18q57 15 81 15q14 0 14 -15t-20 -48q-38 -59 -86 -128q-12 -17 -25 -20q-43 -10 -59 -10q-4 0 -7.5 4.5t-3.5 9.5q0 6 8 22q14 28 77 152z" />
    <glyph glyph-name="Rcaron" unicode="&#x158;" horiz-adv-x="549" 
d="M573 526q0 -25 -23.5 -51t-81.5 -62q-144 -91 -321 -155q134 -28 271 -67q118 -33 118 -51q0 -9 -4.5 -19.5t-9.5 -10.5q-53 0 -151 28q-132 39 -245 63l-61 -165q-56 -15 -102 -15q-9 0 -15 7.5t-6 14.5q0 4 2 8.5t5.5 9.5t4.5 9l56 153q-8 1 -29 5q-32 6 -32 34
q0 9 93 45q10 28 84 220q-7 -1 -21 -1q-43 0 -54 5t-11 27q35 22 113 38l21 53q9 24 16.5 31.5t21.5 7.5q92 0 92 -31q0 -8 -16 -42q38 3 71 3q32 0 64 -3.5t68.5 -12.5t59 -28.5t22.5 -47.5zM261 552q-6 -14 -74 -188q83 32 173.5 89t90.5 81q0 27 -87 27q-49 0 -103 -9z
M260 865q0 5 5 12.5t9 9.5q51 21 61 21q13 0 20 -12q20 -43 28 -62q61 60 88 83q9 7 28 11q57 13 70 13q6 0 14.5 -10t8.5 -18q0 -2 -8 -8t-20.5 -15t-17.5 -13q-71 -57 -127 -105q-12 -9 -36.5 -17.5t-41.5 -8.5q-20 0 -26 12l-49 91q-6 12 -6 16z" />
    <glyph glyph-name="rcaron" unicode="&#x159;" horiz-adv-x="549" 
d="M573 526q0 -25 -23.5 -51t-81.5 -62q-144 -91 -321 -155q134 -28 271 -67q118 -33 118 -51q0 -9 -4.5 -19.5t-9.5 -10.5q-53 0 -151 28q-132 39 -245 63l-61 -165q-56 -15 -102 -15q-9 0 -15 7.5t-6 14.5q0 4 2 8.5t5.5 9.5t4.5 9l56 153q-8 1 -29 5q-32 6 -32 34
q0 9 93 45q10 28 84 220q-7 -1 -21 -1q-43 0 -54 5t-11 27q35 22 113 38l21 53q9 24 16.5 31.5t21.5 7.5q92 0 92 -31q0 -8 -16 -42q38 3 71 3q32 0 64 -3.5t68.5 -12.5t59 -28.5t22.5 -47.5zM261 552q-6 -14 -74 -188q83 32 173.5 89t90.5 81q0 27 -87 27q-49 0 -103 -9z
M260 865q0 5 5 12.5t9 9.5q51 21 61 21q13 0 20 -12q20 -43 28 -62q61 60 88 83q9 7 28 11q57 13 70 13q6 0 14.5 -10t8.5 -18q0 -2 -8 -8t-20.5 -15t-17.5 -13q-71 -57 -127 -105q-12 -9 -36.5 -17.5t-41.5 -8.5q-20 0 -26 12l-49 91q-6 12 -6 16z" />
    <glyph glyph-name="Sacute" unicode="&#x15a;" horiz-adv-x="541" 
d="M420 352q50 -20 77 -47t27 -55q0 -33 -35 -57q-93 -65 -239.5 -100.5t-267.5 -35.5q-88 0 -88 27q0 21 39 45.5t66 26.5q3 0 4.5 -6.5t2 -16t1.5 -11.5q80 2 223.5 41t144.5 75q1 9 -25 21t-73 29q-4 1 -65 23t-91 35q-47 19 -74.5 46.5t-27.5 57.5q0 54 85 115
q56 40 133 71t132 31q32 0 65 -17t33 -34q-1 -23 -13.5 -41.5t-38.5 -18.5q-76 0 -80 39q-58 -14 -117 -54.5t-59 -65.5q0 -13 15 -25t56 -28q32 -12 99 -36.5t91 -33.5zM264 758q0 16 9 24q107 83 163 118q12 7 20 7q11 0 44 -7.5t47 -12.5q4 -2 4 -27q0 -5 -23 -18
q-60 -39 -171 -101q-7 -4 -20 -4q-2 0 -17.5 0.5t-36.5 0.5q-5 0 -12 7t-7 13z" />
    <glyph glyph-name="sacute" unicode="&#x15b;" horiz-adv-x="541" 
d="M420 352q50 -20 77 -47t27 -55q0 -33 -35 -57q-93 -65 -239.5 -100.5t-267.5 -35.5q-88 0 -88 27q0 21 39 45.5t66 26.5q3 0 4.5 -6.5t2 -16t1.5 -11.5q80 2 223.5 41t144.5 75q1 9 -25 21t-73 29q-4 1 -65 23t-91 35q-47 19 -74.5 46.5t-27.5 57.5q0 54 85 115
q56 40 133 71t132 31q32 0 65 -17t33 -34q-1 -23 -13.5 -41.5t-38.5 -18.5q-76 0 -80 39q-58 -14 -117 -54.5t-59 -65.5q0 -13 15 -25t56 -28q32 -12 99 -36.5t91 -33.5zM264 758q0 16 9 24q107 83 163 118q12 7 20 7q11 0 44 -7.5t47 -12.5q4 -2 4 -27q0 -5 -23 -18
q-60 -39 -171 -101q-7 -4 -20 -4q-2 0 -17.5 0.5t-36.5 0.5q-5 0 -12 7t-7 13z" />
    <glyph glyph-name="Scircumflex" unicode="&#x15c;" horiz-adv-x="541" 
d="M420 352q50 -20 77 -47t27 -55q0 -33 -35 -57q-93 -65 -239.5 -100.5t-267.5 -35.5q-88 0 -88 27q0 21 39 45.5t66 26.5q3 0 4.5 -6.5t2 -16t1.5 -11.5q80 2 223.5 41t144.5 75q1 9 -25 21t-73 29q-4 1 -65 23t-91 35q-47 19 -74.5 46.5t-27.5 57.5q0 54 85 115
q56 40 133 71t132 31q32 0 65 -17t33 -34q-1 -23 -13.5 -41.5t-38.5 -18.5q-76 0 -80 39q-58 -14 -117 -54.5t-59 -65.5q0 -13 15 -25t56 -28q32 -12 99 -36.5t91 -33.5zM169 748q0 7 5 11q18 17 126 125q23 23 46 30q30 9 54 9q10 0 20.5 -9t14.5 -18q6 -13 20 -49.5
t21 -50.5q2 -3 2 -11q0 -21 -16 -27q-42 -10 -55 -10q-6 0 -14 5.5t-10 11.5q-9 19 -27 79q-2 -2 -26 -29.5t-35 -38.5q-7 -7 -13 -18t-9 -13q-10 -7 -38 -11.5t-46 -4.5q-5 0 -12.5 6.5t-7.5 12.5z" />
    <glyph glyph-name="scircumflex" unicode="&#x15d;" horiz-adv-x="541" 
d="M420 352q50 -20 77 -47t27 -55q0 -33 -35 -57q-93 -65 -239.5 -100.5t-267.5 -35.5q-88 0 -88 27q0 21 39 45.5t66 26.5q3 0 4.5 -6.5t2 -16t1.5 -11.5q80 2 223.5 41t144.5 75q1 9 -25 21t-73 29q-4 1 -65 23t-91 35q-47 19 -74.5 46.5t-27.5 57.5q0 54 85 115
q56 40 133 71t132 31q32 0 65 -17t33 -34q-1 -23 -13.5 -41.5t-38.5 -18.5q-76 0 -80 39q-58 -14 -117 -54.5t-59 -65.5q0 -13 15 -25t56 -28q32 -12 99 -36.5t91 -33.5zM169 748q0 7 5 11q18 17 126 125q23 23 46 30q30 9 54 9q10 0 20.5 -9t14.5 -18q6 -13 20 -49.5
t21 -50.5q2 -3 2 -11q0 -21 -16 -27q-42 -10 -55 -10q-6 0 -14 5.5t-10 11.5q-9 19 -27 79q-2 -2 -26 -29.5t-35 -38.5q-7 -7 -13 -18t-9 -13q-10 -7 -38 -11.5t-46 -4.5q-5 0 -12.5 6.5t-7.5 12.5z" />
    <glyph glyph-name="Scedilla" unicode="&#x15e;" horiz-adv-x="541" 
d="M420 352q50 -20 77 -47t27 -55q0 -33 -35 -57q-89 -62 -234 -99q-17 -46 -23 -67q77 -13 96 -29q5 -3 9.5 -25.5t4.5 -34.5q0 -37 -65 -74.5t-146 -37.5q-56 0 -75 19q0 10 6 18.5t12 10.5q62 6 114.5 26t74.5 46q-16 3 -38.5 7t-29.5 5q-10 1 -21 18.5t-11 31.5
q0 22 22 70q-104 -21 -203 -21q-88 0 -88 27q0 21 39 45.5t66 26.5q3 0 4.5 -6.5t2 -16t1.5 -11.5q80 2 223.5 41t144.5 75q1 9 -25 21t-73 29q-4 1 -65 23t-91 35q-47 19 -74.5 46.5t-27.5 57.5q0 54 85 115q56 40 133 71t132 31q32 0 65 -17t33 -34q-1 -23 -13.5 -41.5
t-38.5 -18.5q-76 0 -80 39q-58 -14 -117 -54.5t-59 -65.5q0 -13 15 -25t56 -28q32 -12 99 -36.5t91 -33.5z" />
    <glyph glyph-name="scedilla" unicode="&#x15f;" horiz-adv-x="541" 
d="M420 352q50 -20 77 -47t27 -55q0 -33 -35 -57q-89 -62 -234 -99q-17 -46 -23 -67q77 -13 96 -29q5 -3 9.5 -25.5t4.5 -34.5q0 -37 -65 -74.5t-146 -37.5q-56 0 -75 19q0 10 6 18.5t12 10.5q62 6 114.5 26t74.5 46q-16 3 -38.5 7t-29.5 5q-10 1 -21 18.5t-11 31.5
q0 22 22 70q-104 -21 -203 -21q-88 0 -88 27q0 21 39 45.5t66 26.5q3 0 4.5 -6.5t2 -16t1.5 -11.5q80 2 223.5 41t144.5 75q1 9 -25 21t-73 29q-4 1 -65 23t-91 35q-47 19 -74.5 46.5t-27.5 57.5q0 54 85 115q56 40 133 71t132 31q32 0 65 -17t33 -34q-1 -23 -13.5 -41.5
t-38.5 -18.5q-76 0 -80 39q-58 -14 -117 -54.5t-59 -65.5q0 -13 15 -25t56 -28q32 -12 99 -36.5t91 -33.5z" />
    <glyph glyph-name="Scaron" unicode="&#x160;" horiz-adv-x="541" 
d="M420 352q50 -20 77 -47t27 -55q0 -33 -35 -57q-93 -65 -239.5 -100.5t-267.5 -35.5q-88 0 -88 27q0 21 39 45.5t66 26.5q3 0 4.5 -6.5t2 -16t1.5 -11.5q80 2 223.5 41t144.5 75q1 9 -25 21t-73 29q-4 1 -65 23t-91 35q-47 19 -74.5 46.5t-27.5 57.5q0 54 85 115
q56 40 133 71t132 31q32 0 65 -17t33 -34q-1 -23 -13.5 -41.5t-38.5 -18.5q-76 0 -80 39q-58 -14 -117 -54.5t-59 -65.5q0 -13 15 -25t56 -28q32 -12 99 -36.5t91 -33.5zM223 850q0 5 5 12.5t9 9.5q51 21 61 21q13 0 20 -12q20 -43 28 -62q60 61 88 83q9 8 28 11
q57 13 70 13q6 0 14.5 -10t8.5 -18q0 -2 -8 -8t-20.5 -15t-17.5 -13q-71 -57 -127 -105q-12 -9 -36.5 -17.5t-41.5 -8.5q-20 0 -26 12l-49 91q-6 12 -6 16z" />
    <glyph glyph-name="scaron" unicode="&#x161;" horiz-adv-x="541" 
d="M420 352q50 -20 77 -47t27 -55q0 -33 -35 -57q-93 -65 -239.5 -100.5t-267.5 -35.5q-88 0 -88 27q0 21 39 45.5t66 26.5q3 0 4.5 -6.5t2 -16t1.5 -11.5q80 2 223.5 41t144.5 75q1 9 -25 21t-73 29q-4 1 -65 23t-91 35q-47 19 -74.5 46.5t-27.5 57.5q0 54 85 115
q56 40 133 71t132 31q32 0 65 -17t33 -34q-1 -23 -13.5 -41.5t-38.5 -18.5q-76 0 -80 39q-58 -14 -117 -54.5t-59 -65.5q0 -13 15 -25t56 -28q32 -12 99 -36.5t91 -33.5zM223 850q0 5 5 12.5t9 9.5q51 21 61 21q13 0 20 -12q20 -43 28 -62q60 61 88 83q9 8 28 11
q57 13 70 13q6 0 14.5 -10t8.5 -18q0 -2 -8 -8t-20.5 -15t-17.5 -13q-71 -57 -127 -105q-12 -9 -36.5 -17.5t-41.5 -8.5q-20 0 -26 12l-49 91q-6 12 -6 16z" />
    <glyph glyph-name="uni0162" unicode="&#x162;" horiz-adv-x="386" 
d="M582 732q-48 0 -201 -55q-51 -111 -122.5 -312.5t-89.5 -281.5q-4 -14 -4 -32q0 -21 -37 -29l-20 -60q77 -13 96 -29q5 -3 9.5 -25.5t4.5 -34.5q0 -37 -65 -74.5t-146 -37.5q-56 0 -75 19q0 10 6 18.5t12 10.5q62 6 114.5 26t74.5 46q-16 3 -38.5 7t-29.5 5
q-10 1 -21 18.5t-11 31.5q0 23 22 71h-9q-7 0 -14 8.5t-7 15.5q0 34 61.5 215t130.5 358q-71 -32 -144 -67q-34 -17 -39 -36q-20 -12 -90 -12q-5 0 -12.5 6.5t-7.5 12.5q0 40 111 93q95 45 216 91l22 52q1 2 2.5 5.5t2 5.5t1.5 4t2.5 3.5t3.5 2.5t4.5 1.5t6.5 0.5
q14 0 42 -6.5t43 -6.5q12 0 14 -14q113 33 163 33q19 0 44 -9t25 -20q0 -8 -5.5 -14.5t-12.5 -6.5q-5 0 -17.5 1t-15.5 1z" />
    <glyph glyph-name="uni0163" unicode="&#x163;" horiz-adv-x="386" 
d="M582 732q-48 0 -201 -55q-51 -111 -122.5 -312.5t-89.5 -281.5q-4 -14 -4 -32q0 -21 -37 -29l-20 -60q77 -13 96 -29q5 -3 9.5 -25.5t4.5 -34.5q0 -37 -65 -74.5t-146 -37.5q-56 0 -75 19q0 10 6 18.5t12 10.5q62 6 114.5 26t74.5 46q-16 3 -38.5 7t-29.5 5
q-10 1 -21 18.5t-11 31.5q0 23 22 71h-9q-7 0 -14 8.5t-7 15.5q0 34 61.5 215t130.5 358q-71 -32 -144 -67q-34 -17 -39 -36q-20 -12 -90 -12q-5 0 -12.5 6.5t-7.5 12.5q0 40 111 93q95 45 216 91l22 52q1 2 2.5 5.5t2 5.5t1.5 4t2.5 3.5t3.5 2.5t4.5 1.5t6.5 0.5
q14 0 42 -6.5t43 -6.5q12 0 14 -14q113 33 163 33q19 0 44 -9t25 -20q0 -8 -5.5 -14.5t-12.5 -6.5q-5 0 -17.5 1t-15.5 1z" />
    <glyph glyph-name="Tcaron" unicode="&#x164;" horiz-adv-x="386" 
d="M582 732q-48 0 -201 -55q-51 -111 -122.5 -312.5t-89.5 -281.5q-4 -14 -4 -32q0 -37 -113 -37q-7 0 -14 8.5t-7 15.5q0 34 61.5 215t130.5 358q-71 -32 -144 -67q-34 -17 -39 -36q-20 -12 -90 -12q-5 0 -12.5 6.5t-7.5 12.5q0 40 111 93q95 45 216 91l22 52q1 2 2.5 5.5
t2 5.5t1.5 4t2.5 3.5t3.5 2.5t4.5 1.5t6.5 0.5q14 0 42 -6.5t43 -6.5q12 0 14 -14q113 33 163 33q19 0 44 -9t25 -20q0 -8 -5.5 -14.5t-12.5 -6.5q-5 0 -17.5 1t-15.5 1zM257 965q0 5 5 12.5t9 9.5q51 21 61 21q13 0 20 -12q20 -43 28 -62q60 60 88 83q9 7 28 11
q57 13 70 13q6 0 14.5 -10t8.5 -18q0 -2 -8 -8t-20.5 -15t-17.5 -13q-71 -57 -127 -105q-12 -9 -36.5 -17.5t-41.5 -8.5q-20 0 -26 12l-49 91q-6 12 -6 16z" />
    <glyph glyph-name="tcaron" unicode="&#x165;" horiz-adv-x="386" 
d="M582 732q-48 0 -201 -55q-51 -111 -122.5 -312.5t-89.5 -281.5q-4 -14 -4 -32q0 -37 -113 -37q-7 0 -14 8.5t-7 15.5q0 34 61.5 215t130.5 358q-71 -32 -144 -67q-34 -17 -39 -36q-20 -12 -90 -12q-5 0 -12.5 6.5t-7.5 12.5q0 40 111 93q95 45 216 91l22 52q1 2 2.5 5.5
t2 5.5t1.5 4t2.5 3.5t3.5 2.5t4.5 1.5t6.5 0.5q14 0 42 -6.5t43 -6.5q12 0 14 -14q113 33 163 33q19 0 44 -9t25 -20q0 -8 -5.5 -14.5t-12.5 -6.5q-5 0 -17.5 1t-15.5 1zM257 965q0 5 5 12.5t9 9.5q51 21 61 21q13 0 20 -12q20 -43 28 -62q60 60 88 83q9 7 28 11
q57 13 70 13q6 0 14.5 -10t8.5 -18q0 -2 -8 -8t-20.5 -15t-17.5 -13q-71 -57 -127 -105q-12 -9 -36.5 -17.5t-41.5 -8.5q-20 0 -26 12l-49 91q-6 12 -6 16z" />
    <glyph glyph-name="Tbar" unicode="&#x166;" horiz-adv-x="401" 
d="M582 732q-48 0 -201 -55q-32 -68 -90 -225q66 24 100 24q28 0 29 -28q0 -10 -66 -35q-49 -19 -92 -38q-75 -211 -93 -292q-4 -14 -4 -32q0 -37 -113 -37q-7 0 -14 8.5t-7 15.5q0 41 77 260q-51 -25 -75 -25q-25 0 -40 11q-10 7 -10 33q62 38 159 78q54 146 81 216
q-71 -32 -144 -67q-34 -17 -39 -36q-20 -12 -90 -12q-5 0 -12.5 6.5t-7.5 12.5q0 40 111 93q95 45 216 91l22 52q1 2 2.5 5.5t2 5.5t1.5 4t2.5 3.5t3.5 2.5t4.5 1.5t6.5 0.5q14 0 42 -6.5t43 -6.5q12 0 14 -14q113 33 163 33q19 0 44 -9t25 -20q0 -8 -5.5 -14.5t-12.5 -6.5
q-5 0 -17.5 1t-15.5 1z" />
    <glyph glyph-name="tbar" unicode="&#x167;" horiz-adv-x="401" 
d="M582 732q-48 0 -201 -55q-32 -68 -90 -225q66 24 100 24q28 0 29 -28q0 -10 -66 -35q-49 -19 -92 -38q-75 -211 -93 -292q-4 -14 -4 -32q0 -37 -113 -37q-7 0 -14 8.5t-7 15.5q0 41 77 260q-51 -25 -75 -25q-25 0 -40 11q-10 7 -10 33q62 38 159 78q54 146 81 216
q-71 -32 -144 -67q-34 -17 -39 -36q-20 -12 -90 -12q-5 0 -12.5 6.5t-7.5 12.5q0 40 111 93q95 45 216 91l22 52q1 2 2.5 5.5t2 5.5t1.5 4t2.5 3.5t3.5 2.5t4.5 1.5t6.5 0.5q14 0 42 -6.5t43 -6.5q12 0 14 -14q113 33 163 33q19 0 44 -9t25 -20q0 -8 -5.5 -14.5t-12.5 -6.5
q-5 0 -17.5 1t-15.5 1z" />
    <glyph glyph-name="Utilde" unicode="&#x168;" horiz-adv-x="566" 
d="M266 618q0 -9 -20.5 -55t-59.5 -155t-74 -246q61 89 128 187t92.5 135t61.5 87t79 106q3 4 14.5 11.5t15.5 7.5q24 0 52 -20.5t28 -44.5q0 -21 -54 -189t-102 -306q-44 -132 -59 -134q-15 0 -42 -5t-35 -5q-27 0 -27 21q0 25 14 61q100 256 141 389q-108 -143 -260 -390
q-13 -21 -36 -21q-40 0 -85.5 19.5t-45.5 43.5q0 57 49.5 217.5t93.5 270.5q12 30 37 33q8 1 32 7t36 6q10 0 18 -9.5t8 -21.5zM585 898q0 -13 -39 -61.5t-64 -67.5q-15 -11 -84 -11q-8 0 -17 7q-10 9 -26.5 37t-24.5 36q-20 -28 -40 -75q-6 -12 -37 -23.5t-49 -11.5
q-6 0 -10.5 4t-4.5 9q0 23 35 75t65 68q34 18 69 18q17 0 32 -10q6 -4 14 -15t19 -28.5t19 -27.5q10 13 21.5 30t18 26.5t9.5 11.5q11 7 38 16t40 9q6 0 11 -5.5t5 -10.5z" />
    <glyph glyph-name="utilde" unicode="&#x169;" horiz-adv-x="566" 
d="M266 618q0 -9 -20.5 -55t-59.5 -155t-74 -246q61 89 128 187t92.5 135t61.5 87t79 106q3 4 14.5 11.5t15.5 7.5q24 0 52 -20.5t28 -44.5q0 -21 -54 -189t-102 -306q-44 -132 -59 -134q-15 0 -42 -5t-35 -5q-27 0 -27 21q0 25 14 61q100 256 141 389q-108 -143 -260 -390
q-13 -21 -36 -21q-40 0 -85.5 19.5t-45.5 43.5q0 57 49.5 217.5t93.5 270.5q12 30 37 33q8 1 32 7t36 6q10 0 18 -9.5t8 -21.5zM585 898q0 -13 -39 -61.5t-64 -67.5q-15 -11 -84 -11q-8 0 -17 7q-10 9 -26.5 37t-24.5 36q-20 -28 -40 -75q-6 -12 -37 -23.5t-49 -11.5
q-6 0 -10.5 4t-4.5 9q0 23 35 75t65 68q34 18 69 18q17 0 32 -10q6 -4 14 -15t19 -28.5t19 -27.5q10 13 21.5 30t18 26.5t9.5 11.5q11 7 38 16t40 9q6 0 11 -5.5t5 -10.5z" />
    <glyph glyph-name="Umacron" unicode="&#x16a;" horiz-adv-x="566" 
d="M266 618q0 -9 -20.5 -55t-59.5 -155t-74 -246q61 89 128 187t92.5 135t61.5 87t79 106q3 4 14.5 11.5t15.5 7.5q24 0 52 -20.5t28 -44.5q0 -21 -54 -189t-102 -306q-44 -132 -59 -134q-15 0 -42 -5t-35 -5q-27 0 -27 21q0 25 14 61q100 256 141 389q-108 -143 -260 -390
q-13 -21 -36 -21q-40 0 -85.5 19.5t-45.5 43.5q0 57 49.5 217.5t93.5 270.5q12 30 37 33q8 1 32 7t36 6q10 0 18 -9.5t8 -21.5zM234 811q15 13 129 27t145 14t31 -17q0 -31 -12 -48q-128 -7 -208 -22q-57 -10 -74 -10q-5 0 -14 12t-9 19q0 15 12 25z" />
    <glyph glyph-name="umacron" unicode="&#x16b;" horiz-adv-x="566" 
d="M266 618q0 -9 -20.5 -55t-59.5 -155t-74 -246q61 89 128 187t92.5 135t61.5 87t79 106q3 4 14.5 11.5t15.5 7.5q24 0 52 -20.5t28 -44.5q0 -21 -54 -189t-102 -306q-44 -132 -59 -134q-15 0 -42 -5t-35 -5q-27 0 -27 21q0 25 14 61q100 256 141 389q-108 -143 -260 -390
q-13 -21 -36 -21q-40 0 -85.5 19.5t-45.5 43.5q0 57 49.5 217.5t93.5 270.5q12 30 37 33q8 1 32 7t36 6q10 0 18 -9.5t8 -21.5zM234 811q15 13 129 27t145 14t31 -17q0 -31 -12 -48q-128 -7 -208 -22q-57 -10 -74 -10q-5 0 -14 12t-9 19q0 15 12 25z" />
    <glyph glyph-name="Ubreve" unicode="&#x16c;" horiz-adv-x="566" 
d="M266 618q0 -9 -20.5 -55t-59.5 -155t-74 -246q61 89 128 187t92.5 135t61.5 87t79 106q3 4 14.5 11.5t15.5 7.5q24 0 52 -20.5t28 -44.5q0 -21 -54 -189t-102 -306q-44 -132 -59 -134q-15 0 -42 -5t-35 -5q-27 0 -27 21q0 25 14 61q100 256 141 389q-108 -143 -260 -390
q-13 -21 -36 -21q-40 0 -85.5 19.5t-45.5 43.5q0 57 49.5 217.5t93.5 270.5q12 30 37 33q8 1 32 7t36 6q10 0 18 -9.5t8 -21.5zM230 848q0 9 26.5 30.5t36.5 23.5q9 0 17.5 -6t9.5 -12q-1 -6 -1 -13q0 -25 17 -44t38 -19q31 0 59.5 15t46 33t33.5 33t24 15q9 0 25 -12.5
t16 -19.5q0 -9 -19.5 -35t-46.5 -50q-66 -59 -153 -59q-49 0 -89 34t-40 86z" />
    <glyph glyph-name="ubreve" unicode="&#x16d;" horiz-adv-x="566" 
d="M266 618q0 -9 -20.5 -55t-59.5 -155t-74 -246q61 89 128 187t92.5 135t61.5 87t79 106q3 4 14.5 11.5t15.5 7.5q24 0 52 -20.5t28 -44.5q0 -21 -54 -189t-102 -306q-44 -132 -59 -134q-15 0 -42 -5t-35 -5q-27 0 -27 21q0 25 14 61q100 256 141 389q-108 -143 -260 -390
q-13 -21 -36 -21q-40 0 -85.5 19.5t-45.5 43.5q0 57 49.5 217.5t93.5 270.5q12 30 37 33q8 1 32 7t36 6q10 0 18 -9.5t8 -21.5zM230 848q0 9 26.5 30.5t36.5 23.5q9 0 17.5 -6t9.5 -12q-1 -6 -1 -13q0 -25 17 -44t38 -19q31 0 59.5 15t46 33t33.5 33t24 15q9 0 25 -12.5
t16 -19.5q0 -9 -19.5 -35t-46.5 -50q-66 -59 -153 -59q-49 0 -89 34t-40 86z" />
    <glyph glyph-name="Uring" unicode="&#x16e;" horiz-adv-x="566" 
d="M266 618q0 -9 -20.5 -55t-59.5 -155t-74 -246q61 89 128 187t92.5 135t61.5 87t79 106q3 4 14.5 11.5t15.5 7.5q24 0 52 -20.5t28 -44.5q0 -21 -54 -189t-102 -306q-44 -132 -59 -134q-15 0 -42 -5t-35 -5q-27 0 -27 21q0 25 14 61q100 256 141 389q-108 -143 -260 -390
q-13 -21 -36 -21q-40 0 -85.5 19.5t-45.5 43.5q0 57 49.5 217.5t93.5 270.5q12 30 37 33q8 1 32 7t36 6q10 0 18 -9.5t8 -21.5zM402 946q45 0 72 -24.5t27 -64.5q0 -55 -49.5 -96t-109.5 -41q-47 0 -70.5 23t-23.5 63q0 53 45.5 96.5t108.5 43.5zM355 772q27 0 48.5 25.5
t21.5 57.5q0 16 -9.5 28.5t-25.5 12.5q-24 0 -46 -29.5t-22 -55.5q0 -39 33 -39z" />
    <glyph glyph-name="uring" unicode="&#x16f;" horiz-adv-x="566" 
d="M266 618q0 -9 -20.5 -55t-59.5 -155t-74 -246q61 89 128 187t92.5 135t61.5 87t79 106q3 4 14.5 11.5t15.5 7.5q24 0 52 -20.5t28 -44.5q0 -21 -54 -189t-102 -306q-44 -132 -59 -134q-15 0 -42 -5t-35 -5q-27 0 -27 21q0 25 14 61q100 256 141 389q-108 -143 -260 -390
q-13 -21 -36 -21q-40 0 -85.5 19.5t-45.5 43.5q0 57 49.5 217.5t93.5 270.5q12 30 37 33q8 1 32 7t36 6q10 0 18 -9.5t8 -21.5zM402 946q45 0 72 -24.5t27 -64.5q0 -55 -49.5 -96t-109.5 -41q-47 0 -70.5 23t-23.5 63q0 53 45.5 96.5t108.5 43.5zM355 772q27 0 48.5 25.5
t21.5 57.5q0 16 -9.5 28.5t-25.5 12.5q-24 0 -46 -29.5t-22 -55.5q0 -39 33 -39z" />
    <glyph glyph-name="Uhungarumlaut" unicode="&#x170;" horiz-adv-x="566" 
d="M266 618q0 -9 -20.5 -55t-59.5 -155t-74 -246q61 89 128 187t92.5 135t61.5 87t79 106q3 4 14.5 11.5t15.5 7.5q24 0 52 -20.5t28 -44.5q0 -21 -54 -189t-102 -306q-44 -132 -59 -134q-15 0 -42 -5t-35 -5q-27 0 -27 21q0 25 14 61q100 256 141 389q-108 -143 -260 -390
q-13 -21 -36 -21q-40 0 -85.5 19.5t-45.5 43.5q0 57 49.5 217.5t93.5 270.5q12 30 37 33q8 1 32 7t36 6q10 0 18 -9.5t8 -21.5zM313 735q-40 -8 -70 -8q-10 1 -10 16q0 7 11 23q6 10 18 27.5t27 38t20 27.5q16 25 31 30q74 22 91 22q4 0 7.5 -8.5t3.5 -15.5q0 -8 -16 -24
q-36 -41 -100 -119q-6 -8 -13 -9zM475 747q-31 -6 -48 -6q-7 0 -13 5.5t-6 12.5q0 3 7 14q48 69 90 119q14 16 19 18q6 2 40.5 7.5t40.5 5.5q12 0 16 -3q8 -5 8 -20q0 -5 -13 -18q-65 -67 -114 -122q-8 -8 -27 -13z" />
    <glyph glyph-name="uhungarumlaut" unicode="&#x171;" horiz-adv-x="566" 
d="M266 618q0 -9 -20.5 -55t-59.5 -155t-74 -246q61 89 128 187t92.5 135t61.5 87t79 106q3 4 14.5 11.5t15.5 7.5q24 0 52 -20.5t28 -44.5q0 -21 -54 -189t-102 -306q-44 -132 -59 -134q-15 0 -42 -5t-35 -5q-27 0 -27 21q0 25 14 61q100 256 141 389q-108 -143 -260 -390
q-13 -21 -36 -21q-40 0 -85.5 19.5t-45.5 43.5q0 57 49.5 217.5t93.5 270.5q12 30 37 33q8 1 32 7t36 6q10 0 18 -9.5t8 -21.5zM313 735q-40 -8 -70 -8q-10 1 -10 16q0 7 11 23q6 10 18 27.5t27 38t20 27.5q16 25 31 30q74 22 91 22q4 0 7.5 -8.5t3.5 -15.5q0 -8 -16 -24
q-36 -41 -100 -119q-6 -8 -13 -9zM475 747q-31 -6 -48 -6q-7 0 -13 5.5t-6 12.5q0 3 7 14q48 69 90 119q14 16 19 18q6 2 40.5 7.5t40.5 5.5q12 0 16 -3q8 -5 8 -20q0 -5 -13 -18q-65 -67 -114 -122q-8 -8 -27 -13z" />
    <glyph glyph-name="Uogonek" unicode="&#x172;" horiz-adv-x="566" 
d="M266 618q0 -9 -20.5 -55t-59.5 -155t-74 -246q61 89 128 187t92.5 135t61.5 87t79 106q3 4 14.5 11.5t15.5 7.5q24 0 52 -20.5t28 -44.5q0 -21 -54 -189t-102 -306q-44 -132 -59 -134q-3 0 -9 -0.5t-9 -0.5q-32 -16 -54.5 -47.5t-22.5 -59.5q0 -32 27 -32q21 0 60 20.5
t41 20.5q7 0 18 -10.5t11 -16.5q0 -12 -41 -41q-66 -47 -133 -47q-31 0 -56.5 26t-25.5 57q0 47 25 89t66 69q5 23 13 45q100 256 141 389q-108 -143 -260 -390q-13 -21 -36 -21q-40 0 -85.5 19.5t-45.5 43.5q0 57 49.5 217.5t93.5 270.5q12 30 37 33q8 1 32 7t36 6
q10 0 18 -9.5t8 -21.5z" />
    <glyph glyph-name="uogonek" unicode="&#x173;" horiz-adv-x="566" 
d="M266 618q0 -9 -20.5 -55t-59.5 -155t-74 -246q61 89 128 187t92.5 135t61.5 87t79 106q3 4 14.5 11.5t15.5 7.5q24 0 52 -20.5t28 -44.5q0 -21 -54 -189t-102 -306q-44 -132 -59 -134q-3 0 -9 -0.5t-9 -0.5q-32 -16 -54.5 -47.5t-22.5 -59.5q0 -32 27 -32q21 0 60 20.5
t41 20.5q7 0 18 -10.5t11 -16.5q0 -12 -41 -41q-66 -47 -133 -47q-31 0 -56.5 26t-25.5 57q0 47 25 89t66 69q5 23 13 45q100 256 141 389q-108 -143 -260 -390q-13 -21 -36 -21q-40 0 -85.5 19.5t-45.5 43.5q0 57 49.5 217.5t93.5 270.5q12 30 37 33q8 1 32 7t36 6
q10 0 18 -9.5t8 -21.5z" />
    <glyph glyph-name="Wcircumflex" unicode="&#x174;" horiz-adv-x="679" 
d="M745 618q-69 -101 -138.5 -233t-118.5 -257q-16 -42 -20 -48q-3 -6 -35.5 -14.5t-46.5 -8.5q-25 0 -37 7q-19 13 -19 168q0 89 10 206q-28 -57 -69.5 -149t-55.5 -122q-44 -95 -57 -113q-1 -1 -21 -6q-40 -8 -53 -8q-27 0 -36 13q-11 13 -11 49q0 54 11.5 237t14.5 261
q48 23 84 23q17 0 28.5 -10.5t11.5 -27.5q0 -35 -12.5 -160t-14.5 -186q9 20 35.5 77t42 90t39.5 80.5t45 83.5q20 33 32 36q10 3 32 14t29 11q40 0 40 -38q0 -17 -11 -122q-4 -39 -12 -231q105 234 211 414q18 31 42 31q40 0 83 -20q5 -12 5 -21q0 -5 -12.5 -13t-15.5 -13z
M247 738q0 7 5 11q18 17 126 125q23 23 46 30q30 9 54 9q10 0 20.5 -9t14.5 -18q6 -13 20 -49.5t21 -50.5q2 -3 2 -11q0 -21 -16 -27q-42 -10 -55 -10q-6 0 -14 5.5t-10 11.5q-9 19 -27 79q-2 -2 -26 -29.5t-35 -38.5q-7 -7 -13 -18t-9 -13q-10 -7 -38 -11.5t-46 -4.5
q-5 0 -12.5 6.5t-7.5 12.5z" />
    <glyph glyph-name="wcircumflex" unicode="&#x175;" horiz-adv-x="679" 
d="M745 618q-69 -101 -138.5 -233t-118.5 -257q-16 -42 -20 -48q-3 -6 -35.5 -14.5t-46.5 -8.5q-25 0 -37 7q-19 13 -19 168q0 89 10 206q-28 -57 -69.5 -149t-55.5 -122q-44 -95 -57 -113q-1 -1 -21 -6q-40 -8 -53 -8q-27 0 -36 13q-11 13 -11 49q0 54 11.5 237t14.5 261
q48 23 84 23q17 0 28.5 -10.5t11.5 -27.5q0 -35 -12.5 -160t-14.5 -186q9 20 35.5 77t42 90t39.5 80.5t45 83.5q20 33 32 36q10 3 32 14t29 11q40 0 40 -38q0 -17 -11 -122q-4 -39 -12 -231q105 234 211 414q18 31 42 31q40 0 83 -20q5 -12 5 -21q0 -5 -12.5 -13t-15.5 -13z
M247 738q0 7 5 11q18 17 126 125q23 23 46 30q30 9 54 9q10 0 20.5 -9t14.5 -18q6 -13 20 -49.5t21 -50.5q2 -3 2 -11q0 -21 -16 -27q-42 -10 -55 -10q-6 0 -14 5.5t-10 11.5q-9 19 -27 79q-2 -2 -26 -29.5t-35 -38.5q-7 -7 -13 -18t-9 -13q-10 -7 -38 -11.5t-46 -4.5
q-5 0 -12.5 6.5t-7.5 12.5z" />
    <glyph glyph-name="Ycircumflex" unicode="&#x176;" horiz-adv-x="447" 
d="M-3 59q48 60 103 134t83 110q-23 -6 -38 -6q-18 0 -32 41q-43 132 -69 264q0 20 19 31q40 23 74 23q23 0 30 -35q17 -90 67 -251q176 248 252 340q11 14 46 14q13 0 38.5 -6t25.5 -10q0 -26 -15 -36q-25 -15 -64 -70q-44 -59 -138.5 -184.5t-165.5 -223t-127 -181.5
q-4 -6 -39 -10.5t-53 -4.5q-8 0 -14 8.5t-6 17.5t23 35zM160 748q0 7 5 11q18 17 126 125q23 23 46 30q30 9 54 9q10 0 20.5 -9t14.5 -18q6 -13 20 -49.5t21 -50.5q2 -3 2 -11q0 -21 -16 -27q-43 -10 -55 -10q-6 0 -14 5.5t-10 11.5q-9 19 -27 79q-2 -2 -26 -29.5t-35 -38.5
q-7 -7 -13 -18t-9 -13q-10 -7 -38 -11.5t-46 -4.5q-5 0 -12.5 6.5t-7.5 12.5z" />
    <glyph glyph-name="ycircumflex" unicode="&#x177;" horiz-adv-x="447" 
d="M-3 59q48 60 103 134t83 110q-23 -6 -38 -6q-18 0 -32 41q-43 132 -69 264q0 20 19 31q40 23 74 23q23 0 30 -35q17 -90 67 -251q176 248 252 340q11 14 46 14q13 0 38.5 -6t25.5 -10q0 -26 -15 -36q-25 -15 -64 -70q-44 -59 -138.5 -184.5t-165.5 -223t-127 -181.5
q-4 -6 -39 -10.5t-53 -4.5q-8 0 -14 8.5t-6 17.5t23 35zM160 748q0 7 5 11q18 17 126 125q23 23 46 30q30 9 54 9q10 0 20.5 -9t14.5 -18q6 -13 20 -49.5t21 -50.5q2 -3 2 -11q0 -21 -16 -27q-43 -10 -55 -10q-6 0 -14 5.5t-10 11.5q-9 19 -27 79q-2 -2 -26 -29.5t-35 -38.5
q-7 -7 -13 -18t-9 -13q-10 -7 -38 -11.5t-46 -4.5q-5 0 -12.5 6.5t-7.5 12.5z" />
    <glyph glyph-name="Ydieresis" unicode="&#x178;" horiz-adv-x="447" 
d="M-3 59q48 60 103 134t83 110q-23 -6 -38 -6q-18 0 -32 41q-43 132 -69 264q0 20 19 31q40 23 74 23q23 0 30 -35q17 -90 67 -251q176 248 252 340q11 14 46 14q13 0 38.5 -6t25.5 -10q0 -26 -15 -36q-25 -15 -64 -70q-44 -59 -138.5 -184.5t-165.5 -223t-127 -181.5
q-4 -6 -39 -10.5t-53 -4.5q-8 0 -14 8.5t-6 17.5t23 35zM300 816q0 -24 -10 -44t-21 -23q-38 -10 -62 -10q-16 0 -26.5 8.5t-10.5 23.5q0 16 10 40t20 27q38 10 71 10q11 0 20 -10t9 -22zM460 772q-18 -15 -73 -15q-13 0 -24.5 11.5t-11.5 23.5q0 15 7 35.5t16 23.5
q28 11 65 11q15 0 27 -6.5t12 -18.5q0 -17 -5.5 -37.5t-12.5 -27.5z" />
    <glyph glyph-name="Zacute" unicode="&#x179;" horiz-adv-x="469" 
d="M-35 470q-6 1 -6 6q0 12 1 23q45 38 370 184q27 13 43 13q10 -2 38.5 -15.5t41.5 -17.5q42 -13 42 -30q0 -12 -2 -22q-3 -19 -31 -55q-155 -206 -333 -408q167 82 288 112q13 0 45 -15.5t32 -21.5q0 -5 -4 -14.5t-8 -10.5q-83 -14 -386 -142q-9 -4 -23 -12t-24 -13.5
t-16 -5.5t-33 6q-8 2 -29.5 5t-28.5 6q-9 4 -9 31q0 16 72 101q202 238 353 440q-132 -55 -218 -110q-68 -44 -88 -44q-52 0 -87 10zM242 763q0 16 9 24q107 83 163 118q12 7 20 7q11 0 44 -7.5t47 -12.5q4 -2 4 -27q0 -5 -23 -18q-60 -39 -171 -101q-7 -4 -20 -4
q-2 0 -17.5 0.5t-36.5 0.5q-5 0 -12 6.5t-7 13.5z" />
    <glyph glyph-name="zacute" unicode="&#x17a;" horiz-adv-x="469" 
d="M-35 470q-6 1 -6 6q0 12 1 23q45 38 370 184q27 13 43 13q10 -2 38.5 -15.5t41.5 -17.5q42 -13 42 -30q0 -12 -2 -22q-3 -19 -31 -55q-155 -206 -333 -408q167 82 288 112q13 0 45 -15.5t32 -21.5q0 -5 -4 -14.5t-8 -10.5q-83 -14 -386 -142q-9 -4 -23 -12t-24 -13.5
t-16 -5.5t-33 6q-8 2 -29.5 5t-28.5 6q-9 4 -9 31q0 16 72 101q202 238 353 440q-132 -55 -218 -110q-68 -44 -88 -44q-52 0 -87 10zM242 763q0 16 9 24q107 83 163 118q12 7 20 7q11 0 44 -7.5t47 -12.5q4 -2 4 -27q0 -5 -23 -18q-60 -39 -171 -101q-7 -4 -20 -4
q-2 0 -17.5 0.5t-36.5 0.5q-5 0 -12 6.5t-7 13.5z" />
    <glyph glyph-name="Zdotaccent" unicode="&#x17b;" horiz-adv-x="469" 
d="M-35 470q-6 1 -6 6q0 12 1 23q45 38 370 184q27 13 43 13q10 -2 38.5 -15.5t41.5 -17.5q42 -13 42 -30q0 -12 -2 -22q-3 -19 -31 -55q-155 -206 -333 -408q167 82 288 112q13 0 45 -15.5t32 -21.5q0 -5 -4 -14.5t-8 -10.5q-83 -14 -386 -142q-9 -4 -23 -12t-24 -13.5
t-16 -5.5t-33 6q-8 2 -29.5 5t-28.5 6q-9 4 -9 31q0 16 72 101q202 238 353 440q-132 -55 -218 -110q-68 -44 -88 -44q-52 0 -87 10zM265 847q58 14 78 14q33 0 40 -25q-4 -64 -32 -71q-44 -11 -70 -11q-15 0 -26 8t-11 22q0 12 7 37t14 26z" />
    <glyph glyph-name="zdotaccent" unicode="&#x17c;" horiz-adv-x="469" 
d="M-35 470q-6 1 -6 6q0 12 1 23q45 38 370 184q27 13 43 13q10 -2 38.5 -15.5t41.5 -17.5q42 -13 42 -30q0 -12 -2 -22q-3 -19 -31 -55q-155 -206 -333 -408q167 82 288 112q13 0 45 -15.5t32 -21.5q0 -5 -4 -14.5t-8 -10.5q-83 -14 -386 -142q-9 -4 -23 -12t-24 -13.5
t-16 -5.5t-33 6q-8 2 -29.5 5t-28.5 6q-9 4 -9 31q0 16 72 101q202 238 353 440q-132 -55 -218 -110q-68 -44 -88 -44q-52 0 -87 10zM265 847q58 14 78 14q33 0 40 -25q-4 -64 -32 -71q-44 -11 -70 -11q-15 0 -26 8t-11 22q0 12 7 37t14 26z" />
    <glyph glyph-name="Zcaron" unicode="&#x17d;" horiz-adv-x="469" 
d="M-35 470q-6 1 -6 6q0 12 1 23q45 38 370 184q27 13 43 13q10 -2 38.5 -15.5t41.5 -17.5q42 -13 42 -30q0 -12 -2 -22q-3 -19 -31 -55q-155 -206 -333 -408q167 82 288 112q13 0 45 -15.5t32 -21.5q0 -5 -4 -14.5t-8 -10.5q-83 -14 -386 -142q-9 -4 -23 -12t-24 -13.5
t-16 -5.5t-33 6q-8 2 -29.5 5t-28.5 6q-9 4 -9 31q0 16 72 101q202 238 353 440q-132 -55 -218 -110q-68 -44 -88 -44q-52 0 -87 10zM201 855q0 5 5 12.5t9 9.5q51 21 61 21q13 0 20 -12q20 -43 28 -62q60 60 88 83q9 7 28 11q57 13 70 13q6 0 14.5 -10t8.5 -18q0 -2 -8 -8
t-20.5 -15t-17.5 -13q-71 -57 -127 -105q-12 -9 -36.5 -17.5t-41.5 -8.5q-20 0 -26 12l-49 91q-6 12 -6 16z" />
    <glyph glyph-name="zcaron" unicode="&#x17e;" horiz-adv-x="469" 
d="M-35 470q-6 1 -6 6q0 12 1 23q45 38 370 184q27 13 43 13q10 -2 38.5 -15.5t41.5 -17.5q42 -13 42 -30q0 -12 -2 -22q-3 -19 -31 -55q-155 -206 -333 -408q167 82 288 112q13 0 45 -15.5t32 -21.5q0 -5 -4 -14.5t-8 -10.5q-83 -14 -386 -142q-9 -4 -23 -12t-24 -13.5
t-16 -5.5t-33 6q-8 2 -29.5 5t-28.5 6q-9 4 -9 31q0 16 72 101q202 238 353 440q-132 -55 -218 -110q-68 -44 -88 -44q-52 0 -87 10zM201 855q0 5 5 12.5t9 9.5q51 21 61 21q13 0 20 -12q20 -43 28 -62q60 60 88 83q9 7 28 11q57 13 70 13q6 0 14.5 -10t8.5 -18q0 -2 -8 -8
t-20.5 -15t-17.5 -13q-71 -57 -127 -105q-12 -9 -36.5 -17.5t-41.5 -8.5q-20 0 -26 12l-49 91q-6 12 -6 16z" />
    <glyph glyph-name="uni018F" unicode="&#x18f;" horiz-adv-x="471" 
d="M109 626q107 57 163 57q77 0 124 -57t47 -141q0 -64 -31 -151q7 -24 7 -45q0 -23 -6 -37q-41 -35 -60 -43q-52 -86 -117.5 -146t-113.5 -60q-59 0 -105.5 37t-46.5 76q0 27 8.5 64t30.5 83.5t54.5 85.5t85.5 65.5t118 26.5q27 0 54 -12q6 29 6 50q0 54 -19.5 89t-55.5 35
q-22 0 -113 -66q-30 0 -43 2q-19 3 -19 53q0 17 32 34zM77 66q51 17 115.5 102.5t101.5 173.5q0 30 -12 30q-39 0 -87 -47t-82.5 -119.5t-35.5 -139.5z" />
    <glyph glyph-name="uni0218" unicode="&#x218;" horiz-adv-x="541" 
d="M420 352q50 -20 77 -47t27 -55q0 -33 -35 -57q-93 -65 -239.5 -100.5t-267.5 -35.5q-88 0 -88 27q0 21 39 45.5t66 26.5q3 0 4.5 -6.5t2 -16t1.5 -11.5q80 2 223.5 41t144.5 75q1 9 -25 21t-73 29q-4 1 -65 23t-91 35q-47 19 -74.5 46.5t-27.5 57.5q0 54 85 115
q56 40 133 71t132 31q32 0 65 -17t33 -34q-1 -23 -13.5 -41.5t-38.5 -18.5q-76 0 -80 39q-58 -14 -117 -54.5t-59 -65.5q0 -13 15 -25t56 -28q32 -12 99 -36.5t91 -33.5zM119 -59q8 15 21 18q57 15 81 15q14 0 14 -15t-20 -48q-38 -59 -86 -128q-12 -17 -25 -20
q-42 -10 -59 -10q-4 0 -7.5 4.5t-3.5 9.5q0 6 8 22q14 28 77 152z" />
    <glyph glyph-name="uni0219" unicode="&#x219;" horiz-adv-x="541" 
d="M420 352q50 -20 77 -47t27 -55q0 -33 -35 -57q-93 -65 -239.5 -100.5t-267.5 -35.5q-88 0 -88 27q0 21 39 45.5t66 26.5q3 0 4.5 -6.5t2 -16t1.5 -11.5q80 2 223.5 41t144.5 75q1 9 -25 21t-73 29q-4 1 -65 23t-91 35q-47 19 -74.5 46.5t-27.5 57.5q0 54 85 115
q56 40 133 71t132 31q32 0 65 -17t33 -34q-1 -23 -13.5 -41.5t-38.5 -18.5q-76 0 -80 39q-58 -14 -117 -54.5t-59 -65.5q0 -13 15 -25t56 -28q32 -12 99 -36.5t91 -33.5zM119 -59q8 15 21 18q57 15 81 15q14 0 14 -15t-20 -48q-38 -59 -86 -128q-12 -17 -25 -20
q-42 -10 -59 -10q-4 0 -7.5 4.5t-3.5 9.5q0 6 8 22q14 28 77 152z" />
    <glyph glyph-name="uni021A" unicode="&#x21a;" horiz-adv-x="386" 
d="M582 732q-48 0 -201 -55q-51 -111 -122.5 -312.5t-89.5 -281.5q-4 -14 -4 -32q0 -37 -113 -37q-7 0 -14 8.5t-7 15.5q0 34 61.5 215t130.5 358q-71 -32 -144 -67q-34 -17 -39 -36q-20 -12 -90 -12q-5 0 -12.5 6.5t-7.5 12.5q0 40 111 93q95 45 216 91l22 52q1 2 2.5 5.5
t2 5.5t1.5 4t2.5 3.5t3.5 2.5t4.5 1.5t6.5 0.5q14 0 42 -6.5t43 -6.5q12 0 14 -14q113 33 163 33q19 0 44 -9t25 -20q0 -8 -5.5 -14.5t-12.5 -6.5q-5 0 -17.5 1t-15.5 1zM13 -94q8 15 21 18q57 15 81 15q14 0 14 -15q0 -16 -20 -48q-38 -59 -86 -128q-12 -17 -25 -20
q-42 -10 -59 -10q-4 0 -7.5 4.5t-3.5 9.5q0 6 8 22q14 28 77 152z" />
    <glyph glyph-name="uni021B" unicode="&#x21b;" horiz-adv-x="386" 
d="M582 732q-48 0 -201 -55q-51 -111 -122.5 -312.5t-89.5 -281.5q-4 -14 -4 -32q0 -37 -113 -37q-7 0 -14 8.5t-7 15.5q0 34 61.5 215t130.5 358q-71 -32 -144 -67q-34 -17 -39 -36q-20 -12 -90 -12q-5 0 -12.5 6.5t-7.5 12.5q0 40 111 93q95 45 216 91l22 52q1 2 2.5 5.5
t2 5.5t1.5 4t2.5 3.5t3.5 2.5t4.5 1.5t6.5 0.5q14 0 42 -6.5t43 -6.5q12 0 14 -14q113 33 163 33q19 0 44 -9t25 -20q0 -8 -5.5 -14.5t-12.5 -6.5q-5 0 -17.5 1t-15.5 1zM13 -94q8 15 21 18q57 15 81 15q14 0 14 -15q0 -16 -20 -48q-38 -59 -86 -128q-12 -17 -25 -20
q-42 -10 -59 -10q-4 0 -7.5 4.5t-3.5 9.5q0 6 8 22q14 28 77 152z" />
    <glyph glyph-name="uni0237" unicode="&#x237;" horiz-adv-x="484" 
d="M9 509q-8 10 -8 32q0 18 88 52t197 62q1 20 11.5 34t24.5 14q10 0 49 -28q110 20 187 20q19 0 40 -5t33.5 -10t12.5 -8q0 -6 -6 -15t-12 -9q-94 0 -217 -26q-19 -134 -69.5 -292t-114.5 -280q-5 -9 -22.5 -17.5t-26.5 -8.5q-16 0 -42 7t-32 14q-6 8 -17 31
q-16 36 -43 123.5t-27 98.5q0 10 28 17t45 7q10 0 18 -22q22 -62 51 -130q45 99 80 214t45 207q-180 -54 -180 -82q0 -4 3 -10.5t3 -8.5t-6 -6.5t-9 -4.5q-18 0 -48 11t-36 19z" />
    <glyph glyph-name="uni0259" unicode="&#x259;" horiz-adv-x="471" 
d="M109 626q107 57 163 57q77 0 124 -57t47 -141q0 -64 -31 -151q7 -24 7 -45q0 -23 -6 -37q-41 -35 -60 -43q-52 -86 -117.5 -146t-113.5 -60q-59 0 -105.5 37t-46.5 76q0 27 8.5 64t30.5 83.5t54.5 85.5t85.5 65.5t118 26.5q27 0 54 -12q6 29 6 50q0 54 -19.5 89t-55.5 35
q-22 0 -113 -66q-30 0 -43 2q-19 3 -19 53q0 17 32 34zM77 66q51 17 115.5 102.5t101.5 173.5q0 30 -12 30q-39 0 -87 -47t-82.5 -119.5t-35.5 -139.5z" />
    <glyph glyph-name="uni02BB" unicode="&#x2bb;" horiz-adv-x="238" 
d="M77 487q0 22 42.5 97t79.5 126q23 10 49 10q11 0 20 -8.5t9 -16.5q0 -11 -30.5 -70.5t-39.5 -113.5q-8 -48 -34 -56q-33 -11 -53 -11q-17 0 -30 14t-13 29z" />
    <glyph glyph-name="uni02BC" unicode="&#x2bc;" horiz-adv-x="238" 
d="M167 459q-14 -16 -56 -16q-10 0 -17 8.5t-7 18.5q0 8 31.5 70t38.5 111q7 47 38 59q24 9 47 9q17 0 31.5 -12.5t14.5 -28.5q0 -24 -43.5 -97.5t-77.5 -121.5z" />
    <glyph glyph-name="gravecomb" unicode="&#x300;" horiz-adv-x="0" 
d="M-145 879q0 17 3 23q2 7 35.5 20t45.5 13q7 0 15 -11q106 -137 106 -140q0 -6 -4 -15.5t-10 -10.5q-29 -7 -52 -7q-20 0 -40 20q-85 85 -99 108z" />
    <glyph glyph-name="acutecomb" unicode="&#x301;" horiz-adv-x="0" 
d="M-53 773q0 16 9 24q107 83 163 118q12 7 20 7q11 0 44 -7.5t47 -12.5q4 -2 4 -27q0 -5 -23 -18q-60 -39 -171 -101q-7 -4 -20 -4q-2 0 -17.5 0.5t-36.5 0.5q-6 0 -12.5 6.5t-6.5 13.5z" />
    <glyph glyph-name="uni0302" unicode="&#x302;" horiz-adv-x="0" 
d="M-148 763q0 7 5 11q18 17 126 125q23 23 46 30q30 9 54 9q10 0 20.5 -9t14.5 -18q6 -13 20 -49.5t21 -50.5q2 -3 2 -11q0 -21 -16 -27q-43 -10 -55 -10q-6 0 -14 5.5t-10 11.5q-9 19 -27 79q-2 -2 -26 -29.5t-35 -38.5q-7 -7 -13 -18t-9 -13q-10 -7 -38 -11.5t-46 -4.5
q-5 0 -12.5 6.5t-7.5 12.5z" />
    <glyph glyph-name="tildecomb" unicode="&#x303;" horiz-adv-x="0" 
d="M234 913q0 -13 -39 -61.5t-64 -67.5q-15 -11 -84 -11q-8 0 -17 7q-10 9 -26.5 37t-24.5 36q-20 -28 -40 -75q-6 -12 -37 -23.5t-49 -11.5q-6 0 -10.5 4t-4.5 9q0 23 35 75t65 68q34 18 69 18q17 0 32 -10q6 -4 14 -15t19 -28.5t19 -27.5q10 13 21.5 30t18 26.5t9.5 11.5
q11 7 37.5 16t40.5 9q6 0 11 -5.5t5 -10.5z" />
    <glyph glyph-name="uni0304" unicode="&#x304;" horiz-adv-x="0" 
d="M-117 826q15 13 129 27t145 14t31 -17q0 -31 -12 -48q-128 -7 -208 -22q-57 -10 -74 -10q-5 0 -14 12t-9 19q0 15 12 25z" />
    <glyph glyph-name="uni0306" unicode="&#x306;" horiz-adv-x="0" 
d="M-121 863q0 9 26.5 30.5t36.5 23.5q9 0 17.5 -6t9.5 -12q-1 -6 -1 -13q0 -25 17 -44t38 -19q31 0 59.5 15t46 33t33.5 33t24 15q9 0 25 -12.5t16 -19.5q0 -9 -19.5 -35t-46.5 -50q-66 -59 -153 -59q-49 0 -89 34t-40 86z" />
    <glyph glyph-name="uni0307" unicode="&#x307;" horiz-adv-x="0" 
d="M-30 857q58 14 78 14q33 0 40 -25q-4 -64 -32 -71q-44 -11 -70 -11q-15 0 -26 8t-11 22q0 12 7 37t14 26z" />
    <glyph glyph-name="uni0308" unicode="&#x308;" horiz-adv-x="0" 
d="M-8 831q0 -24 -10 -44t-21 -23q-38 -10 -62 -10q-16 0 -26.5 8.5t-10.5 23.5q0 16 10 40t20 27q38 10 71 10q11 0 20 -10t9 -22zM152 787q-18 -15 -73 -15q-13 0 -24.5 11.5t-11.5 23.5q0 15 7 35.5t16 23.5q28 11 65 11q15 0 27 -6.5t12 -18.5q0 -17 -5.5 -37.5
t-12.5 -27.5z" />
    <glyph glyph-name="uni030A" unicode="&#x30a;" horiz-adv-x="0" 
d="M51 961q45 0 72 -24.5t27 -64.5q0 -55 -49.5 -96t-109.5 -41q-47 0 -70.5 23t-23.5 63q0 53 45.5 96.5t108.5 43.5zM4 787q27 0 48.5 25.5t21.5 57.5q0 16 -9.5 28.5t-25.5 12.5q-24 0 -46 -29.5t-22 -55.5q0 -39 33 -39z" />
    <glyph glyph-name="uni030B" unicode="&#x30b;" horiz-adv-x="0" 
d="M-38 750q-40 -8 -70 -8q-10 1 -10 16q0 6 11 23q6 10 18 27.5t27 38t20 27.5q16 25 31 30q74 22 91 22q4 0 7.5 -8.5t3.5 -15.5q0 -8 -16 -24q-36 -41 -100 -119q-6 -8 -13 -9zM124 762q-32 -6 -48 -6q-7 0 -13 5.5t-6 12.5q0 4 7 14q48 69 90 119q14 17 19 18
q6 2 40.5 7.5t40.5 5.5q12 0 16 -3q8 -5 8 -20q0 -5 -13 -18q-65 -67 -114 -122q-8 -8 -27 -13z" />
    <glyph glyph-name="uni030C" unicode="&#x30c;" horiz-adv-x="0" 
d="M-94 865q0 5 5 12.5t9 9.5q51 21 61 21q13 0 20 -12q20 -43 28 -62q60 60 88 83q9 7 28 11q57 13 70 13q6 0 14.5 -10t8.5 -18q0 -2 -8 -8t-20.5 -15t-17.5 -13q-71 -57 -127 -105q-12 -9 -36.5 -17.5t-41.5 -8.5q-20 0 -26 12l-49 91q-6 12 -6 16z" />
    <glyph glyph-name="uni0312" unicode="&#x312;" horiz-adv-x="0" 
d="M-23 -94q8 15 21 18q57 15 81 15q14 0 14 -15q0 -16 -20 -48q-38 -59 -86 -128q-12 -17 -25 -20q-42 -10 -59 -10q-4 0 -7.5 4.5t-3.5 9.5q0 6 8 22q14 28 77 152z" />
    <glyph glyph-name="uni0315" unicode="&#x315;" horiz-adv-x="0" 
d="M-76 471q-4 0 -9 5t-5 10q0 6 11 31.5t32 70.5t32 71q11 27 29 31q36 9 58 9q8 0 13.5 -5.5t5.5 -12.5q0 -23 -93 -192q-3 -6 -31.5 -12t-42.5 -6z" />
    <glyph glyph-name="uni0326" unicode="&#x326;" horiz-adv-x="0" 
d="M-23 -94q8 15 21 18q57 15 81 15q14 0 14 -15q0 -16 -20 -48q-38 -59 -86 -128q-12 -17 -25 -20q-42 -10 -59 -10q-4 0 -7.5 4.5t-3.5 9.5q0 6 8 22q14 28 77 152z" />
    <glyph glyph-name="uni0327" unicode="&#x327;" horiz-adv-x="0" 
d="M-25 53l72 28q-21 -49 -44 -119q77 -13 96 -29q5 -3 9.5 -25.5t4.5 -34.5q0 -37 -65 -74.5t-146 -37.5q-56 0 -75 19q0 10 6 18.5t12 10.5q62 6 114.5 26t74.5 46q-16 3 -38.5 7t-29.5 5q-10 1 -21 18.5t-11 31.5q0 29 41 110z" />
    <glyph glyph-name="uni0328" unicode="&#x328;" horiz-adv-x="0" 
d="M43 40v-53l-18 -8q-34 -16 -59 -48.5t-25 -61.5q0 -32 27 -32q21 0 60 20.5t41 20.5q7 0 18 -10.5t11 -16.5q0 -12 -41 -41q-66 -47 -133 -47q-31 0 -56.5 26t-25.5 57q0 78 62.5 136t138.5 58z" />
    <glyph glyph-name="Wgrave" unicode="&#x1e80;" horiz-adv-x="679" 
d="M745 618q-69 -101 -138.5 -233t-118.5 -257q-16 -42 -20 -48q-3 -6 -35.5 -14.5t-46.5 -8.5q-25 0 -37 7q-19 13 -19 168q0 89 10 206q-28 -57 -69.5 -149t-55.5 -122q-44 -95 -57 -113q-1 -1 -21 -6q-40 -8 -53 -8q-27 0 -36 13q-11 13 -11 49q0 54 11.5 237t14.5 261
q48 23 84 23q17 0 28.5 -10.5t11.5 -27.5q0 -35 -12.5 -160t-14.5 -186q9 20 35.5 77t42 90t39.5 80.5t45 83.5q20 33 32 36q10 3 32 14t29 11q40 0 40 -38q0 -17 -11 -122q-4 -39 -12 -231q105 234 211 414q18 31 42 31q40 0 83 -20q5 -12 5 -21q0 -5 -12.5 -13t-15.5 -13z
M250 854q0 17 3 23q2 7 35.5 20t45.5 13q7 0 15 -11q106 -137 106 -140q0 -6 -4 -15.5t-10 -10.5q-29 -7 -52 -7q-20 0 -40 20q-85 85 -99 108z" />
    <glyph glyph-name="wgrave" unicode="&#x1e81;" horiz-adv-x="679" 
d="M745 618q-69 -101 -138.5 -233t-118.5 -257q-16 -42 -20 -48q-3 -6 -35.5 -14.5t-46.5 -8.5q-25 0 -37 7q-19 13 -19 168q0 89 10 206q-28 -57 -69.5 -149t-55.5 -122q-44 -95 -57 -113q-1 -1 -21 -6q-40 -8 -53 -8q-27 0 -36 13q-11 13 -11 49q0 54 11.5 237t14.5 261
q48 23 84 23q17 0 28.5 -10.5t11.5 -27.5q0 -35 -12.5 -160t-14.5 -186q9 20 35.5 77t42 90t39.5 80.5t45 83.5q20 33 32 36q10 3 32 14t29 11q40 0 40 -38q0 -17 -11 -122q-4 -39 -12 -231q105 234 211 414q18 31 42 31q40 0 83 -20q5 -12 5 -21q0 -5 -12.5 -13t-15.5 -13z
M250 854q0 17 3 23q2 7 35.5 20t45.5 13q7 0 15 -11q106 -137 106 -140q0 -6 -4 -15.5t-10 -10.5q-29 -7 -52 -7q-20 0 -40 20q-85 85 -99 108z" />
    <glyph glyph-name="Wacute" unicode="&#x1e82;" horiz-adv-x="679" 
d="M745 618q-69 -101 -138.5 -233t-118.5 -257q-16 -42 -20 -48q-3 -6 -35.5 -14.5t-46.5 -8.5q-25 0 -37 7q-19 13 -19 168q0 89 10 206q-28 -57 -69.5 -149t-55.5 -122q-44 -95 -57 -113q-1 -1 -21 -6q-40 -8 -53 -8q-27 0 -36 13q-11 13 -11 49q0 54 11.5 237t14.5 261
q48 23 84 23q17 0 28.5 -10.5t11.5 -27.5q0 -35 -12.5 -160t-14.5 -186q9 20 35.5 77t42 90t39.5 80.5t45 83.5q20 33 32 36q10 3 32 14t29 11q40 0 40 -38q0 -17 -11 -122q-4 -39 -12 -231q105 234 211 414q18 31 42 31q40 0 83 -20q5 -12 5 -21q0 -5 -12.5 -13t-15.5 -13z
M342 748q0 16 9 24q107 83 163 118q12 7 20 7q11 0 44 -7.5t47 -12.5q4 -2 4 -27q0 -5 -23 -18q-60 -39 -171 -101q-7 -4 -20 -4q-2 0 -17.5 0.5t-36.5 0.5q-5 0 -12 7t-7 13z" />
    <glyph glyph-name="wacute" unicode="&#x1e83;" horiz-adv-x="679" 
d="M745 618q-69 -101 -138.5 -233t-118.5 -257q-16 -42 -20 -48q-3 -6 -35.5 -14.5t-46.5 -8.5q-25 0 -37 7q-19 13 -19 168q0 89 10 206q-28 -57 -69.5 -149t-55.5 -122q-44 -95 -57 -113q-1 -1 -21 -6q-40 -8 -53 -8q-27 0 -36 13q-11 13 -11 49q0 54 11.5 237t14.5 261
q48 23 84 23q17 0 28.5 -10.5t11.5 -27.5q0 -35 -12.5 -160t-14.5 -186q9 20 35.5 77t42 90t39.5 80.5t45 83.5q20 33 32 36q10 3 32 14t29 11q40 0 40 -38q0 -17 -11 -122q-4 -39 -12 -231q105 234 211 414q18 31 42 31q40 0 83 -20q5 -12 5 -21q0 -5 -12.5 -13t-15.5 -13z
M342 748q0 16 9 24q107 83 163 118q12 7 20 7q11 0 44 -7.5t47 -12.5q4 -2 4 -27q0 -5 -23 -18q-60 -39 -171 -101q-7 -4 -20 -4q-2 0 -17.5 0.5t-36.5 0.5q-5 0 -12 7t-7 13z" />
    <glyph glyph-name="Wdieresis" unicode="&#x1e84;" horiz-adv-x="679" 
d="M745 618q-69 -101 -138.5 -233t-118.5 -257q-16 -42 -20 -48q-3 -6 -35.5 -14.5t-46.5 -8.5q-25 0 -37 7q-19 13 -19 168q0 89 10 206q-28 -57 -69.5 -149t-55.5 -122q-44 -95 -57 -113q-1 -1 -21 -6q-40 -8 -53 -8q-27 0 -36 13q-11 13 -11 49q0 54 11.5 237t14.5 261
q48 23 84 23q17 0 28.5 -10.5t11.5 -27.5q0 -35 -12.5 -160t-14.5 -186q9 20 35.5 77t42 90t39.5 80.5t45 83.5q20 33 32 36q10 3 32 14t29 11q40 0 40 -38q0 -17 -11 -122q-4 -39 -12 -231q105 234 211 414q18 31 42 31q40 0 83 -20q5 -12 5 -21q0 -5 -12.5 -13t-15.5 -13z
M387 806q0 -24 -10 -44t-21 -23q-38 -10 -62 -10q-16 0 -26.5 8.5t-10.5 23.5q0 16 10 40t20 27q38 10 71 10q11 0 20 -10t9 -22zM547 762q-18 -15 -73 -15q-13 0 -24.5 11.5t-11.5 23.5q0 15 7 35.5t16 23.5q27 11 65 11q15 0 27 -6.5t12 -18.5q0 -17 -5.5 -37.5
t-12.5 -27.5z" />
    <glyph glyph-name="wdieresis" unicode="&#x1e85;" horiz-adv-x="679" 
d="M745 618q-69 -101 -138.5 -233t-118.5 -257q-16 -42 -20 -48q-3 -6 -35.5 -14.5t-46.5 -8.5q-25 0 -37 7q-19 13 -19 168q0 89 10 206q-28 -57 -69.5 -149t-55.5 -122q-44 -95 -57 -113q-1 -1 -21 -6q-40 -8 -53 -8q-27 0 -36 13q-11 13 -11 49q0 54 11.5 237t14.5 261
q48 23 84 23q17 0 28.5 -10.5t11.5 -27.5q0 -35 -12.5 -160t-14.5 -186q9 20 35.5 77t42 90t39.5 80.5t45 83.5q20 33 32 36q10 3 32 14t29 11q40 0 40 -38q0 -17 -11 -122q-4 -39 -12 -231q105 234 211 414q18 31 42 31q40 0 83 -20q5 -12 5 -21q0 -5 -12.5 -13t-15.5 -13z
M387 806q0 -24 -10 -44t-21 -23q-38 -10 -62 -10q-16 0 -26.5 8.5t-10.5 23.5q0 16 10 40t20 27q38 10 71 10q11 0 20 -10t9 -22zM547 762q-18 -15 -73 -15q-13 0 -24.5 11.5t-11.5 23.5q0 15 7 35.5t16 23.5q27 11 65 11q15 0 27 -6.5t12 -18.5q0 -17 -5.5 -37.5
t-12.5 -27.5z" />
    <glyph glyph-name="uni1E9E" unicode="&#x1e9e;" horiz-adv-x="615" 
d="M327 425q109 75 164 116q-70 49 -158 90q-50 -66 -90.5 -143t-73.5 -167.5t-53.5 -156.5t-48.5 -169q-4 -22 -15 -23q-15 -1 -46 -9t-43 -8q-14 0 -23 9t-9 17q0 7 2 13q23 87 50.5 171t65.5 183t85.5 183.5t96.5 135.5q12 12 66.5 29t85.5 17q29 0 90.5 -32t104.5 -70
q12 -11 12 -52q0 -40 -31 -71q-48 -48 -142 -113q146 -98 146 -148q0 -22 -25.5 -52.5t-67 -59t-103.5 -48.5t-126 -20q-88 0 -88 27q0 21 39 45.5t66 26.5q3 0 4.5 -6.5t2 -16t1.5 -11.5q52 3 111.5 39.5t59.5 61.5q0 8 -16 21.5t-61 43.5q-89 61 -89 88q0 21 56 59z" />
    <glyph glyph-name="Ygrave" unicode="&#x1ef2;" horiz-adv-x="447" 
d="M-3 59q48 60 103 134t83 110q-23 -6 -38 -6q-18 0 -32 41q-43 132 -69 264q0 20 19 31q40 23 74 23q23 0 30 -35q17 -90 67 -251q176 248 252 340q11 14 46 14q13 0 38.5 -6t25.5 -10q0 -26 -15 -36q-25 -15 -64 -70q-44 -59 -138.5 -184.5t-165.5 -223t-127 -181.5
q-4 -6 -39 -10.5t-53 -4.5q-8 0 -14 8.5t-6 17.5t23 35zM163 864q0 17 3 23q2 7 35.5 20t45.5 13q7 0 15 -11q106 -137 106 -140q0 -6 -4 -15.5t-10 -10.5q-29 -7 -52 -7q-20 0 -40 20q-85 85 -99 108z" />
    <glyph glyph-name="ygrave" unicode="&#x1ef3;" horiz-adv-x="447" 
d="M-3 59q48 60 103 134t83 110q-23 -6 -38 -6q-18 0 -32 41q-43 132 -69 264q0 20 19 31q40 23 74 23q23 0 30 -35q17 -90 67 -251q176 248 252 340q11 14 46 14q13 0 38.5 -6t25.5 -10q0 -26 -15 -36q-25 -15 -64 -70q-44 -59 -138.5 -184.5t-165.5 -223t-127 -181.5
q-4 -6 -39 -10.5t-53 -4.5q-8 0 -14 8.5t-6 17.5t23 35zM163 864q0 17 3 23q2 7 35.5 20t45.5 13q7 0 15 -11q106 -137 106 -140q0 -6 -4 -15.5t-10 -10.5q-29 -7 -52 -7q-20 0 -40 20q-85 85 -99 108z" />
    <glyph glyph-name="uni2000" unicode="&#x2000;" horiz-adv-x="500" 
 />
    <glyph glyph-name="uni2001" unicode="&#x2001;" horiz-adv-x="1000" 
 />
    <glyph glyph-name="uni2002" unicode="&#x2002;" horiz-adv-x="500" 
 />
    <glyph glyph-name="uni2003" unicode="&#x2003;" horiz-adv-x="1000" 
 />
    <glyph glyph-name="uni2004" unicode="&#x2004;" horiz-adv-x="333" 
 />
    <glyph glyph-name="uni2005" unicode="&#x2005;" horiz-adv-x="250" 
 />
    <glyph glyph-name="uni2006" unicode="&#x2006;" horiz-adv-x="166" 
 />
    <glyph glyph-name="uni2007" unicode="&#x2007;" horiz-adv-x="245" 
 />
    <glyph glyph-name="uni2008" unicode="&#x2008;" horiz-adv-x="245" 
 />
    <glyph glyph-name="uni2009" unicode="&#x2009;" horiz-adv-x="200" 
 />
    <glyph glyph-name="uni200A" unicode="&#x200a;" horiz-adv-x="50" 
 />
    <glyph glyph-name="uni200B" unicode="&#x200b;" horiz-adv-x="0" 
 />
    <glyph glyph-name="uni2010" unicode="&#x2010;" horiz-adv-x="487" 
d="M367 317q-53 -6 -130.5 -18t-133 -21t-66.5 -9t-21 8.5t-10 17.5q0 20 12 37q33 11 178.5 32.5t213.5 21.5q5 0 14 -10t9 -17q0 -22 -12 -31q-11 -7 -54 -11z" />
    <glyph glyph-name="figuredash" unicode="&#x2012;" horiz-adv-x="500" 
d="M486 348q2 -3 2 -9q0 -21 -59 -23q-74 -3 -163.5 -12.5t-150 -17t-70.5 -7.5q-64 0 -64 21q0 7 7.5 20t15.5 16q23 10 199.5 26t226.5 16q17 0 33.5 -10t22.5 -20z" />
    <glyph glyph-name="endash" unicode="&#x2013;" horiz-adv-x="500" 
d="M486 348q2 -3 2 -9q0 -21 -59 -23q-74 -3 -163.5 -12.5t-150 -17t-70.5 -7.5q-64 0 -64 21q0 7 7.5 20t15.5 16q23 10 199.5 26t226.5 16q17 0 33.5 -10t22.5 -20z" />
    <glyph glyph-name="emdash" unicode="&#x2014;" horiz-adv-x="1000" 
d="M986 353q2 -3 2 -9q0 -21 -59 -23q-123 -3 -482 -25t-402 -22q-64 0 -64 21q0 7 7.5 20t15.5 16q41 14 427.5 33t498.5 19q17 0 33.5 -10t22.5 -20z" />
    <glyph glyph-name="uni2015" unicode="&#x2015;" horiz-adv-x="1000" 
d="M986 353q2 -3 2 -9q0 -21 -59 -23q-123 -3 -482 -25t-402 -22q-64 0 -64 21q0 7 7.5 20t15.5 16q41 14 427.5 33t498.5 19q17 0 33.5 -10t22.5 -20z" />
    <glyph glyph-name="quoteleft" unicode="&#x2018;" horiz-adv-x="238" 
d="M77 487q0 22 42.5 97t79.5 126q23 10 49 10q11 0 20 -8.5t9 -16.5q0 -11 -30.5 -70.5t-39.5 -113.5q-8 -48 -34 -56q-33 -11 -53 -11q-17 0 -30 14t-13 29z" />
    <glyph glyph-name="quoteright" unicode="&#x2019;" horiz-adv-x="238" 
d="M167 459q-14 -16 -56 -16q-10 0 -17 8.5t-7 18.5q0 8 31.5 70t38.5 111q7 47 38 59q24 9 47 9q17 0 31.5 -12.5t14.5 -28.5q0 -24 -43.5 -97.5t-77.5 -121.5z" />
    <glyph glyph-name="quotesinglbase" unicode="&#x201a;" horiz-adv-x="238" 
d="M-21 -111q-14 -16 -56 -16q-10 0 -17 8.5t-7 18.5q0 8 31.5 70t38.5 111q7 47 38 59q24 9 47 9q17 0 31.5 -12.5t14.5 -28.5q0 -24 -43.5 -97.5t-77.5 -121.5z" />
    <glyph glyph-name="quotedblleft" unicode="&#x201c;" horiz-adv-x="438" 
d="M77 485q0 22 42.5 97t79.5 126q23 10 49 10q11 0 20 -8.5t9 -16.5q0 -11 -30.5 -70.5t-39.5 -113.5q-8 -48 -34 -56q-33 -11 -53 -11q-17 0 -30 14t-13 29zM277 489q0 22 42.5 97t79.5 126q23 10 49 10q11 0 20 -8.5t9 -16.5q0 -11 -30.5 -70.5t-39.5 -113.5
q-8 -48 -34 -56q-33 -11 -53 -11q-17 0 -30 14t-13 29z" />
    <glyph glyph-name="quotedblright" unicode="&#x201d;" horiz-adv-x="438" 
d="M167 457q-14 -16 -56 -16q-10 0 -17 8.5t-7 18.5q0 8 31.5 70t38.5 111q7 47 38 59q24 9 47 9q17 0 31.5 -12.5t14.5 -28.5q0 -24 -43.5 -97.5t-77.5 -121.5zM367 461q-14 -16 -56 -16q-10 0 -17 8.5t-7 18.5q0 8 31.5 70t38.5 111q7 47 38 59q24 9 47 9q17 0 31.5 -12.5
t14.5 -28.5q0 -24 -43.5 -97.5t-77.5 -121.5z" />
    <glyph glyph-name="quotedblbase" unicode="&#x201e;" horiz-adv-x="438" 
d="M-21 -119q-14 -16 -56 -16q-10 0 -17 8.5t-7 18.5q0 8 31.5 70t38.5 111q7 47 38 59q24 9 47 9q17 0 31.5 -12.5t14.5 -28.5q0 -24 -43.5 -97.5t-77.5 -121.5zM179 -115q-14 -16 -56 -16q-10 0 -17 8.5t-7 18.5q0 8 31.5 70t38.5 111q7 47 38 59q24 9 47 9
q17 0 31.5 -12.5t14.5 -28.5q0 -24 -43.5 -97.5t-77.5 -121.5z" />
    <glyph glyph-name="ellipsis" unicode="&#x2026;" horiz-adv-x="681" 
d="M200 129q15 25 105 25q7 0 16.5 -9t9.5 -15q0 -21 -9.5 -46.5t-24.5 -28.5q-41 -10 -83 -10q-8 0 -16 6.5t-8 14.5q0 33 10 63zM-10 132q20 18 77 18q33 0 39 -23q-2 -73 -31 -80q-33 -9 -69 -9q-23 0 -36 22q0 18 6 41t14 31zM436 54q-11 0 -18 9.5t-7 21.5
q0 20 10 43.5t24 26.5q45 10 78 10q11 0 19 -11t8 -25q0 -19 -8 -42.5t-17 -24.5q-58 -8 -89 -8z" />
    <glyph glyph-name="minute" unicode="&#x2032;" horiz-adv-x="249" 
d="M77 451q-8 0 -12.5 7.5t-4.5 16.5q54 96 142 203q8 5 60.5 18t65.5 13q5 0 9 -8t4 -15q0 -5 -21 -29t-75 -82t-77 -83q-24 -28 -36 -31q-45 -10 -55 -10z" />
    <glyph glyph-name="second" unicode="&#x2033;" horiz-adv-x="469" 
d="M77 451q-8 0 -12.5 7.5t-4.5 16.5q54 96 142 203q8 5 60.5 18t65.5 13q5 0 9 -8t4 -15q0 -5 -21 -29t-75 -82t-77 -83q-24 -28 -36 -31q-45 -10 -55 -10zM297 461q-8 0 -12.5 7.5t-4.5 16.5q54 96 142 203q8 5 60.5 18t65.5 13q5 0 9 -8t4 -15q0 -5 -21 -29t-75 -82
t-77 -83q-24 -28 -36 -31q-45 -10 -55 -10z" />
    <glyph glyph-name="guilsinglleft" unicode="&#x2039;" horiz-adv-x="452" 
d="M88 417q30 18 109.5 69t135 85t63.5 34q7 0 21.5 -6.5t16.5 -10.5q5 -13 5 -52q0 -24 -313 -191q98 -75 203 -168q7 -6 12 -20.5t5 -21.5q0 -8 -31.5 -37t-42.5 -29q-9 0 -62 50q-76 74 -149 140q-50 43 -50 55q0 7 5.5 24.5t6.5 27.5q1 5 5.5 11t12.5 11.5t14.5 9.5
t17.5 10t15 9z" />
    <glyph glyph-name="guilsinglright" unicode="&#x203a;" horiz-adv-x="453" 
d="M87 538q11 17 43.5 44t42.5 27q20 0 26 -8l26 -32t22.5 -27.5t25.5 -28.5t23.5 -25t27.5 -28.5t27 -27t33 -32.5l34 -34q-10 -54 -22 -62q-156 -102 -311 -225q-21 -17 -37 -17q-22 0 -41.5 15.5t-19.5 29.5q0 7 14 23.5t24 23.5q125 92 261 180q-58 50 -121 113t-78 91z
" />
    <glyph glyph-name="uni2052" unicode="&#x2052;" horiz-adv-x="464" 
d="M437 697q7 0 15 -17q0 -3 -7 -14.5t-16.5 -27t-12.5 -21.5q-139 -270 -282 -532q-13 -23 -41.5 -46t-44.5 -23q-7 0 -17.5 4t-10.5 11q0 5 48.5 93t133.5 245t150 288q53 40 85 40zM201 670q13 0 22.5 -9.5t9.5 -17.5q0 -35 -13 -59q-11 -21 -86 -21q-32 0 -32 28
q0 22 6 43q5 19 29 26q35 10 64 10zM346 48q-18 -18 -75 -18q-32 0 -38 23q2 71 30 78q33 9 68 9q22 0 35 -22q0 -17 -6 -39.5t-14 -30.5z" />
    <glyph glyph-name="Euro" unicode="&#x20ac;" horiz-adv-x="609" 
d="M-19 315q-6 6 -6 25q2 14 149 45q59 105 146 193.5t166 116.5q43 0 77.5 -13.5t43.5 -33.5q4 -8 7.5 -40.5t3.5 -50.5q0 -12 -25.5 -22.5t-60.5 -10.5q-26 0 -27 27l-8 65q-88 -77 -173 -204q128 19 169 19q35 0 68 -5.5t32 -13.5q0 -8 -4.5 -15.5t-9.5 -8.5
q-103 -13 -295 -44q-23 -43 -34 -73q167 39 223 39q83 0 83 -13q0 -23 -13 -26q-136 -26 -305 -67q2 -53 25 -77t59 -24q48 0 127.5 36t90.5 36q18 0 28 -10.5t10 -23.5q0 -9 -39.5 -34t-81.5 -42q-111 -45 -195 -45q-61 0 -102 39t-47 113q-46 -13 -59 -13q-9 0 -24.5 8.5
t-21.5 15.5q-5 5 -5 28l114 29q7 34 21 69q-46 -12 -64 -12q-7 0 -22.5 6.5t-20.5 11.5z" />
    <glyph glyph-name="uni20BA" unicode="&#x20ba;" horiz-adv-x="595" 
d="M-22 350q-5 10 -5 12q0 7 13 13q82 35 172 71q26 65 110 265q74 0 91 -11q22 -15 22 -32q0 -2 -70 -164q148 58 173 58q30 0 49 -16q0 -19 -7 -33q-31 0 -55 -9q-35 -13 -99 -37t-89 -33q-3 -7 -31 -77q85 32 187 72q15 0 36 -8t30 -18l-1 -3q-2 -2 -4 -5t-5.5 -6.5
t-6.5 -4.5q-28 -12 -122.5 -48t-142.5 -55l-73 -192q98 12 174.5 61.5t114.5 137.5q5 11 27.5 20t33.5 9q8 0 28.5 -13t20.5 -19q0 -13 -10 -33q-36 -80 -112.5 -136t-162.5 -80.5t-176 -24.5q-18 0 -47 20.5t-29 39.5q0 12 60 149q-59 -21 -66 -21t-21.5 17t-14.5 31
l132 53q15 43 28 73q-95 -38 -128 -38q-18 0 -24 15z" />
    <glyph glyph-name="uniFB00" unicode="&#xfb00;" horiz-adv-x="945" 
d="M-68 212l85 41q41 106 85 202q-21 3 -35 8q-10 4 -19 14.5t-9 19.5q0 6 16.5 16t51 27t49.5 25q29 56 51 92q2 2 15.5 5t23.5 3q13 0 39 -10.5t29 -21.5q127 44 186 44q28 0 65 -13t37 -22q0 -8 -3 -19.5t-8 -12.5q-19 -9 -76 -9q-21 0 -23 9l-3 18q-130 -42 -218 -87
q-56 -104 -107 -226q111 36 188 63q78 26 100 26t34 -7q7 -5 7 -19q0 -2 -2 -4t-6.5 -4.5t-9.5 -5.5t-13.5 -6.5t-15.5 -6.5t-17.5 -7t-18.5 -7.5t-20.5 -8.5t-20.5 -8q-110 -44 -244 -104q-23 -59 -50 -146q0 -1 -2.5 -13t-7 -16t-14.5 -6t-28.5 -6.5t-31.5 -7.5t-18 -3
q-28 0 -28 35q0 3 3 8t4 8l35 104q-38 4 -47 13q-6 5 -8 26zM537 540q0 14 118 75q27 82 37 99q6 0 20.5 1t22.5 1q13 0 38.5 -11.5t31.5 -23.5q136 48 194 48q86 0 86 -17q0 -8 -20 -28.5t-28 -20.5q-6 0 -19.5 1t-19.5 1q-86 0 -221 -68q-38 -99 -80 -218q205 82 253 82
q20 0 20 -15q0 -7 -13 -17t-24 -15q-207 -92 -267 -123q-15 -42 -39.5 -117t-30.5 -91q-2 -5 -4.5 -16.5t-4.5 -17t-8.5 -12.5t-16.5 -13q-12 0 -45 -5t-41 -5q-9 0 -17.5 5.5t-8.5 13.5q0 7 13 51q26 81 45 133q-40 -11 -58 -11q-7 0 -14 8t-10 17q0 8 15 17.5t47 26
t50 26.5q27 77 82 220q-38 -3 -73 -3l-5 9q-5 9 -5 13z" />
    <glyph glyph-name="uniFB01" unicode="&#xfb01;" horiz-adv-x="747" 
d="M-68 212l85 41q41 106 85 202q-21 3 -35 8q-10 4 -19 14.5t-9 19.5q0 6 16.5 16t51 27t49.5 25q29 56 51 92q2 2 15.5 5t23.5 3q13 0 39 -10.5t29 -21.5q127 44 186 44q28 0 65 -13t37 -22q0 -8 -3 -19.5t-8 -12.5q-19 -9 -76 -9q-21 0 -23 9l-3 18q-130 -42 -218 -87
q-56 -104 -107 -226q111 36 188 63q78 26 100 26t34 -7q7 -5 7 -19q0 -2 -2 -4t-6.5 -4.5t-9.5 -5.5t-13.5 -6.5t-15.5 -6.5t-17.5 -7t-18.5 -7.5t-20.5 -8.5t-20.5 -8q-110 -44 -244 -104q-23 -59 -50 -146q0 -1 -2.5 -13t-7 -16t-14.5 -6t-28.5 -6.5t-31.5 -7.5t-18 -3
q-28 0 -28 35q0 3 3 8t4 8l35 104q-38 4 -47 13q-6 5 -8 26zM541 33q-5 -1 -23.5 -4.5t-27.5 -3.5q-11 0 -23 10t-12 20q0 36 72.5 254.5t151.5 380.5q7 16 99 16q22 0 29 -6t7 -21q0 -7 -12 -12q-47 -76 -122 -294.5t-95 -298.5q-3 -12 -4.5 -17t-6 -11t-12.5 -9t-21 -4z
" />
    <glyph glyph-name="uniFB02" unicode="&#xfb02;" horiz-adv-x="897" 
d="M-68 212l85 41q41 106 85 202q-21 3 -35 8q-10 4 -19 14.5t-9 19.5q0 6 16.5 16t51 27t49.5 25q29 56 51 92q2 2 15.5 5t23.5 3q13 0 39 -10.5t29 -21.5q127 44 186 44q28 0 65 -13t37 -22q0 -8 -3 -19.5t-8 -12.5q-19 -9 -76 -9q-21 0 -23 9l-3 18q-130 -42 -218 -87
q-56 -104 -107 -226q111 36 188 63q78 26 100 26t34 -7q7 -5 7 -19q0 -2 -2 -4t-6.5 -4.5t-9.5 -5.5t-13.5 -6.5t-15.5 -6.5t-17.5 -7t-18.5 -7.5t-20.5 -8.5t-20.5 -8q-110 -44 -244 -104q-23 -59 -50 -146q0 -1 -2.5 -13t-7 -16t-14.5 -6t-28.5 -6.5t-31.5 -7.5t-18 -3
q-28 0 -28 35q0 3 3 8t4 8l35 104q-38 4 -47 13q-6 5 -8 26zM438 65q191 490 191 506q0 4 -8 8t-8 8q0 3 7 17.5t15 31t10 21.5q13 5 35 5q9 0 32.5 6.5t33.5 6.5q29 0 29 -23q0 -25 -10 -54q-78 -238 -184 -483q136 71 275 136q8 3 13 3q6 0 18.5 -3t18.5 -3q13 0 13 -18
q0 -6 -5.5 -10t-14.5 -7.5t-11 -5.5q-37 -22 -98 -59.5t-115.5 -70t-109.5 -61.5q-11 -6 -28 -6q-5 0 -15 0.5t-16 0.5q-43 0 -63 -2q-1 2 -9.5 12t-8.5 16q0 5 6 15.5t7 12.5z" />
    <glyph glyph-name="uniFB03" unicode="&#xfb03;" horiz-adv-x="1202" 
d="M-68 212l85 41q41 106 85 202q-21 3 -35 8q-10 4 -19 14.5t-9 19.5q0 6 16.5 16t51 27t49.5 25q29 56 51 92q2 2 15.5 5t23.5 3q13 0 39 -10.5t29 -21.5q127 44 186 44q28 0 65 -13t37 -22q0 -8 -3 -19.5t-8 -12.5q-19 -9 -76 -9q-21 0 -23 9l-3 18q-130 -42 -218 -87
q-56 -104 -107 -226q111 36 188 63q78 26 100 26t34 -7q7 -5 7 -19q0 -2 -2 -4t-6.5 -4.5t-9.5 -5.5t-13.5 -6.5t-15.5 -6.5t-17.5 -7t-18.5 -7.5t-20.5 -8.5t-20.5 -8q-110 -44 -244 -104q-23 -59 -50 -146q0 -1 -2.5 -13t-7 -16t-14.5 -6t-28.5 -6.5t-31.5 -7.5t-18 -3
q-28 0 -28 35q0 3 3 8t4 8l35 104q-38 4 -47 13q-6 5 -8 26zM537 540q0 14 118 75q27 82 37 99q6 0 20.5 1t22.5 1q13 0 38.5 -11.5t31.5 -23.5q136 48 194 48q86 0 86 -17q0 -8 -20 -28.5t-28 -20.5q-6 0 -19.5 1t-19.5 1q-86 0 -221 -68q-38 -99 -80 -218q205 82 253 82
q20 0 20 -15q0 -7 -13 -17t-24 -15q-207 -92 -267 -123q-15 -42 -39.5 -117t-30.5 -91q-2 -5 -4.5 -16.5t-4.5 -17t-8.5 -12.5t-16.5 -13q-12 0 -45 -5t-41 -5q-9 0 -17.5 5.5t-8.5 13.5q0 7 13 51q26 81 45 133q-40 -11 -58 -11q-7 0 -14 8t-10 17q0 8 15 17.5t47 26
t50 26.5q27 77 82 220q-38 -3 -73 -3l-5 9q-5 9 -5 13zM996 33q-5 -1 -23.5 -4.5t-27.5 -3.5q-11 0 -23 10t-12 20q0 36 72.5 254.5t151.5 380.5q7 16 99 16q22 0 29 -6t7 -21q0 -7 -12 -12q-47 -76 -122 -294.5t-95 -298.5q-3 -12 -4.5 -17t-6 -11t-12.5 -9t-21 -4z" />
    <glyph glyph-name="uniFB04" unicode="&#xfb04;" horiz-adv-x="1352" 
d="M-68 212l85 41q41 106 85 202q-21 3 -35 8q-10 4 -19 14.5t-9 19.5q0 6 16.5 16t51 27t49.5 25q29 56 51 92q2 2 15.5 5t23.5 3q13 0 39 -10.5t29 -21.5q127 44 186 44q28 0 65 -13t37 -22q0 -8 -3 -19.5t-8 -12.5q-19 -9 -76 -9q-21 0 -23 9l-3 18q-130 -42 -218 -87
q-56 -104 -107 -226q111 36 188 63q78 26 100 26t34 -7q7 -5 7 -19q0 -2 -2 -4t-6.5 -4.5t-9.5 -5.5t-13.5 -6.5t-15.5 -6.5t-17.5 -7t-18.5 -7.5t-20.5 -8.5t-20.5 -8q-110 -44 -244 -104q-23 -59 -50 -146q0 -1 -2.5 -13t-7 -16t-14.5 -6t-28.5 -6.5t-31.5 -7.5t-18 -3
q-28 0 -28 35q0 3 3 8t4 8l35 104q-38 4 -47 13q-6 5 -8 26zM537 540q0 14 118 75q27 82 37 99q6 0 20.5 1t22.5 1q13 0 38.5 -11.5t31.5 -23.5q136 48 194 48q86 0 86 -17q0 -8 -20 -28.5t-28 -20.5q-6 0 -19.5 1t-19.5 1q-86 0 -221 -68q-38 -99 -80 -218q205 82 253 82
q20 0 20 -15q0 -7 -13 -17t-24 -15q-207 -92 -267 -123q-15 -42 -39.5 -117t-30.5 -91q-2 -5 -4.5 -16.5t-4.5 -17t-8.5 -12.5t-16.5 -13q-12 0 -45 -5t-41 -5q-9 0 -17.5 5.5t-8.5 13.5q0 7 13 51q26 81 45 133q-40 -11 -58 -11q-7 0 -14 8t-10 17q0 8 15 17.5t47 26
t50 26.5q27 77 82 220q-38 -3 -73 -3l-5 9q-5 9 -5 13zM893 65q191 490 191 506q0 4 -8 8t-8 8q0 3 7 17.5t15 31t10 21.5q12 5 35 5q9 0 32.5 6.5t33.5 6.5q29 0 29 -23q0 -25 -10 -54q-78 -238 -184 -483q136 71 275 136q7 3 13 3t18.5 -3t18.5 -3q13 0 13 -18
q0 -6 -5.5 -10t-14.5 -7.5t-11 -5.5q-37 -22 -98 -59.5t-115.5 -70t-109.5 -61.5q-11 -6 -28 -6q-5 0 -15 0.5t-16 0.5q-43 0 -63 -2q-1 2 -9.5 12t-8.5 16q0 5 6 15.5t7 12.5z" />
    <glyph glyph-name="uniFEFF" unicode="&#xfeff;" horiz-adv-x="0" 
 />
    <glyph glyph-name="zero.alt01" horiz-adv-x="526" 
d="M324 672q22 0 57 -18q85 -46 111 -76.5t26 -78.5q0 -81 -49.5 -182.5t-124.5 -185.5q-47 -53 -91.5 -76t-99.5 -23q-96 0 -126 26.5t-30 103.5q0 144 93 339q84 173 112 173q26 0 70 -24q25 22 52 22zM271 521q-6 0 -27 23q-51 -78 -91 -197t-40 -187q0 -31 5.5 -41.5
t23.5 -10.5q32 0 66 31.5t80 95.5q49 70 78 140t29 123q0 40 -10.5 57.5t-35.5 17.5q-3 0 -6 -0.5t-6.5 -2t-6 -3t-6.5 -5t-7 -5.5t-8 -6.5t-7.5 -7t-9 -8.5t-9.5 -9q-6 -5 -12 -5z" />
    <glyph glyph-name="one.alt01" horiz-adv-x="334" 
d="M38 143q43 141 113 344q-51 -40 -59 -40q-13 0 -32 21.5t-19 31.5q0 3 7.5 11t22 21.5t19.5 18.5q54 54 102 117q8 12 38 16q4 1 26.5 8t39.5 7q11 0 17 -9.5t6 -18.5q0 -29 -14 -67q-44 -128 -97 -307.5t-65 -247.5q-2 -10 -14.5 -17.5t-19.5 -7.5q-28 1 -72 7
q-18 2 -18 20q0 28 19 92z" />
    <glyph glyph-name="two.alt01" horiz-adv-x="503" 
d="M-52 109q0 22 45 66q14 14 71 68t104 100.5t100 101.5t84 94.5t31 55.5q0 19 -18 19q-26 0 -80.5 -33.5t-98.5 -77.5q-12 -12 -24 -25t-18 -20t-12 -13.5t-10 -9t-8 -2.5q-16 0 -48.5 19.5t-32.5 30.5q0 27 67 80q62 50 137.5 84.5t119.5 34.5q56 0 116 -20q20 -7 28 -22
t8 -43q0 -43 -39 -93.5t-135 -148.5q-50 -50 -127 -122t-100 -94q131 40 227 40q97 0 97 -18q0 -24 -7.5 -43.5t-14.5 -19.5q-8 0 -23 0.5t-24 0.5q-158 0 -312 -59q-28 -13 -42 -13q-12 0 -36.5 35t-24.5 47z" />
    <glyph glyph-name="three.alt01" horiz-adv-x="520" 
d="M65 129q19 0 44 -14q209 48 209 123q0 60 -234 60q-8 0 -17.5 20.5t-9.5 35.5q0 2 1.5 4t5.5 4t7.5 4.5t10.5 6t12 5.5t14.5 6.5t15.5 7.5q107 51 179 108.5t74 92.5q0 7 -6.5 12.5t-16.5 5.5q-36 0 -91 -26t-73 -53q-3 -5 -6 -10.5t-4.5 -8.5t-4.5 -6t-7 -5
q-9 -4 -45.5 -9t-48.5 -5q-20 0 -20 16q0 38 55 77q124 91 241 91q77 0 121 -21t44 -59q0 -88 -272 -222q97 -6 157.5 -38.5t60.5 -84.5q0 -57 -86.5 -109.5t-189 -80t-169.5 -27.5q-22 0 -39 20.5t-17 35.5q0 18 32.5 30.5t72.5 12.5z" />
    <glyph glyph-name="four.alt01" horiz-adv-x="556" 
d="M289 627q8 0 20.5 -4.5t29.5 -12t21 -9.5q4 11 15 41t15 39q3 7 13 13t19 6q48 0 77 -9q12 -3 12 -11q0 -11 -14.5 -49.5t-43 -113.5t-50.5 -139q78 28 92 28q28 0 56.5 -6.5t28.5 -13.5q0 -19 -54 -38l-149 -49q-70 -219 -70 -252q0 -6 1 -12.5t1 -7.5q0 -14 -27 -21
q-63 -15 -77 -15q-6 0 -14 12t-8 24q0 37 25 115q19 65 36 115l-116 -35q-70 -21 -100 -21q-12 0 -36 29.5t-24 45.5q0 21 26 48q183 200 249 267q36 36 46 36zM268 332q61 184 78 231q-98 -105 -259 -287q114 34 181 56z" />
    <glyph glyph-name="five.alt01" horiz-adv-x="539" 
d="M164 400q0 -13 28 -18q48 -9 128 -18q73 -8 118.5 -39.5t45.5 -74.5q0 -58 -56 -105t-135.5 -72.5t-150.5 -39t-116 -13.5q-5 0 -9.5 16.5t-4.5 26.5q0 35 9 44q9 10 24 10q137 0 228.5 27.5t91.5 73.5q0 16 -25.5 29t-77.5 18q-57 6 -137 17q-49 7 -69.5 20.5
t-30.5 43.5q0 25 66 147q-34 3 -34 18q0 25 19 34q8 3 33 16.5t31 16.5q15 24 43 75q12 22 39 22q11 0 34 -1t26 -1q12 0 14 -35q129 44 197 44q14 0 74 -10q5 -1 9 -7t4 -11q0 -14 -7 -23q-6 -8 -20 -9q-11 -1 -39 -1q-72 0 -277 -79q-73 -114 -73 -142z" />
    <glyph glyph-name="six.alt01" horiz-adv-x="502" 
d="M310 733q45 0 89 -20q10 -4 10 -14q0 -8 -7 -23.5t-11 -15.5q-22 0 -37.5 -12.5t-41.5 -49.5q-87 -122 -136 -216q73 57 138 57q49 0 113 -50q42 -34 42 -67q0 -37 -51 -109.5t-122.5 -133t-120.5 -60.5q-32 0 -77 8.5t-55 14.5q-57 36 -57 101q0 89 73.5 240t162.5 275
q29 41 49 58t39 17zM125 216q-7 -9 -18 -12q-9 -44 -9 -84q0 -8 5.5 -16t12.5 -8q32 0 80.5 37.5t95.5 93.5q28 34 48 68t20 49q0 25 -22 25q-42 0 -109 -50.5t-104 -102.5z" />
    <glyph glyph-name="seven.alt01" horiz-adv-x="527" 
d="M375 624q-18 0 -86 -24t-142 -58q-49 -22 -64 -22q-8 0 -20.5 27.5t-12.5 39.5q0 14 69 39q93 35 189.5 62t128.5 27q25 0 55 -21t30 -38q0 -36 -81 -175l-36 -63q31 4 66 4q2 0 62 -15q30 -9 30 -18q-6 -21 -28 -21q-72 0 -167 -14q-88 -161 -158 -308q-11 -24 -20 -27
t-50.5 -13t-49.5 -10q-15 0 -15 28q6 20 12 33q74 145 137 262q-57 -19 -105 -39q-21 -9 -35 -9q-17 0 -48.5 11.5t-31.5 18.5q0 9 12 20t31 18q99 35 221 59q112 204 112 218q0 8 -5 8z" />
    <glyph glyph-name="eight.alt01" horiz-adv-x="519" 
d="M530 473q-25 -22 -56.5 -45.5t-83.5 -59.5t-82 -58q78 -69 78 -137q0 -67 -62.5 -112.5t-154.5 -45.5q-88 0 -137.5 29.5t-49.5 78.5q0 29 29 66t60 63.5t88 70.5q-56 45 -86 92t-30 83q0 43 60 96q36 32 122 64t132 32q39 0 89.5 -16t74.5 -38q39 -36 39 -99
q0 -36 -30 -64zM162 489q0 -14 21.5 -46.5t51.5 -63.5q104 76 154 119.5t50 65.5q0 23 -5.5 34t-21.5 11q-81 0 -165.5 -42.5t-84.5 -77.5zM278 186q0 39 -36 75q-56 -44 -96.5 -86t-41.5 -60q0 -29 44 -29q42 0 86 30.5t44 69.5z" />
    </font>
</defs>
</svg>
